<?xml version="1.0" standalone="no"?>
<!DOCTYPE svg PUBLIC "-//W3C//DTD SVG 1.1//EN" "http://www.w3.org/Graphics/SVG/1.1/DTD/svg11.dtd" >
<svg xmlns="http://www.w3.org/2000/svg" xmlns:xlink="http://www.w3.org/1999/xlink" version="1.1">
<metadata>
Created by FontForge 20170731 at Fri Jan  1 02:30:17 1904
 By Aleksey,,,
Copyright (c) 1994 Image Club Graphics, Inc.
</metadata>
<defs>
<font id="BocaRatonICG-Oblique" horiz-adv-x="556" >
  <font-face 
    font-family="Boca Raton"
    font-weight="400"
    font-style="oblique"
    font-stretch="normal"
    units-per-em="1000"
    panose-1="4 0 0 0 0 0 0 0 0 0"
    ascent="800"
    descent="-200"
    x-height="477"
    cap-height="659"
    bbox="-80 -212 1233 906"
    underline-thickness="16"
    underline-position="-161"
    slope="-12"
    unicode-range="U+0020-F002"
  />
<missing-glyph horiz-adv-x="443" 
d="M40 0v484h363v-484h-363zM80 40h283v404h-283v-404z" />
    <glyph glyph-name=".notdef" horiz-adv-x="443" 
d="M40 0v484h363v-484h-363zM80 40h283v404h-283v-404z" />
    <glyph glyph-name=".null" horiz-adv-x="0" 
 />
    <glyph glyph-name="nonmarkingreturn" horiz-adv-x="333" 
 />
    <glyph glyph-name="space" unicode=" " horiz-adv-x="258" 
 />
    <glyph glyph-name="exclam" unicode="!" horiz-adv-x="305" 
d="M400 659l-145 -454h-116l37 409q28 26 73 42.5t90 16.5q34 0 49 -7q7 -2 12 -7zM260 77q-8 -38 -40 -64.5t-70 -26.5t-59 26.5t-13 64.5t40.5 64.5t70.5 26.5q33 0 53 -20t20 -51q0 -5 -0.5 -10t-1.5 -10zM330 568l7 23h-11q-15 -1 -45.5 -4t-66.5 -29l-30 -308h45l7 23
h-28l3 22h33l8 23h-39l2 23h42l8 23h-48l2 22h53l8 23h-58l2 23h63l7 23h-68l1 22h73l8 23h-78l2 23h84l6 22h-88q2 0 6.5 4l4.5 4q25 12 42 13t43 2zM188 77q2 8 -2.5 13.5t-12.5 5.5q-18 0 -23 -19q-3 -18 16 -18q7 0 13.5 5.5t8.5 12.5z" />
    <glyph glyph-name="quotedbl" unicode="&#x22;" horiz-adv-x="391" 
d="M491 705l-53 -250h-114l53 250h114zM309 705l-53 -250h-114l53 250h114zM383 518h22l26 123h-22zM201 518h23l26 123h-23z" />
    <glyph glyph-name="numbersign" unicode="#" horiz-adv-x="538" 
d="M578 386l-24 -113h-123l-19 -91h-68l19 91h-70l-19 -91h-68l19 91h-122l24 113h122l15 69h-122l24 113h122l19 91h68l-19 -91h70l19 91h68l-19 -91h123l-24 -113h-123l-15 -69h123zM215 500h324l5 23h-324zM317 386h70l15 69h-70zM177 318h324l4 23h-324z" />
    <glyph glyph-name="dollar" unicode="$" horiz-adv-x="576" 
d="M593 212q-19 -93 -98 -151t-195 -71l-22 -104h-68l21 101q-136 0 -192 86l32 57q38 -30 85 -46t94 -16q45 0 76.5 18.5t39.5 53.5q8 37 -63 80q-109 67 -130 89q-51 51 -51 118q0 19 5 42q17 79 88 134q67 51 161 66l22 104h68l-21 -99q77 0 128.5 -21.5t76.5 -61.5
l-42 -46q-7 10 -22.5 18.5t-36.5 14.5t-45.5 9.5t-47.5 3.5q-38 0 -72 -14t-41 -50q-7 -32 67 -72q52 -28 85.5 -48.5t48.5 -34.5q53 -49 53 -118q0 -10 -1 -21t-3 -21zM422 205h114l2 22h-132l-24 23h156l-5 23h-183l-37 22h209l-18 23h-228l-32 23h233l-35 23h-223l-16 22
h199l-39 23h-171l-4 23h140l-22 23h-117l3 22h100l-7 23h-85l12 23h74l5 22h-61l26 23h50l25 23h-75q-71 -45 -87 -122q-1 -8 -2.5 -16.5t-1.5 -16.5q0 -30 13 -57.5t40 -48.5q31 -22 64.5 -43t65.5 -42q70 -48 58 -105q-4 -22 -14 -39.5t-28 -32.5h65l35 23h-54l12 23h67
l18 22h-78l3 23h88l10 23h-99z" />
    <glyph glyph-name="percent" unicode="%" horiz-adv-x="727" 
d="M735 159q-17 -81 -63.5 -127.5t-109.5 -46.5q-49 0 -77 32.5t-28 87.5q0 25 6 54q17 80 63.5 125t108.5 45q51 0 78.5 -30.5t27.5 -85.5q0 -25 -6 -54zM591 659h131l-447 -659h-130zM406 503q-17 -81 -63.5 -127.5t-108.5 -46.5q-49 0 -77.5 32t-28.5 88q0 25 6 54
q16 79 63 124.5t110 45.5q50 0 77.5 -31t27.5 -85q0 -25 -6 -54zM691 156q7 32 7 65q0 9 -0.5 18.5t-1.5 18.5l-20 -6q1 -6 1 -12.5v-12.5q0 -33 -8 -71q-6 -28 -13 -48.5t-21 -45.5l17 -9q16 29 24.5 51t14.5 52zM362 500q8 37 8 66q0 18 -3 36l-21 -7q1 -7 1.5 -15.5
t0.5 -16.5q0 -32 -7 -63q-6 -29 -13.5 -49.5t-21.5 -45.5l17 -9q16 29 24.5 51.5t14.5 52.5zM627 159q7 31 10 55.5t3 40.5q0 33 -14 33q-27 0 -54 -129q-8 -34 -11 -58.5t-3 -41.5q0 -32 13 -32q27 0 56 132zM268 68l355 523h-25l-355 -523h25zM298 503q14 67 14 97
q0 32 -14 32q-28 0 -55 -129q-7 -33 -10.5 -58t-3.5 -41q0 -33 14 -33q26 0 55 132zM503 53l21 9q-3 18 -3 33q0 13 2 27.5t6 33.5q11 50 36 96l-18 6q-17 -28 -25 -50.5t-14 -51.5q-7 -34 -7 -69q0 -9 0.5 -17.5t1.5 -16.5zM174 396l21 9q-1 8 -1.5 15.5t-0.5 15.5
q0 14 2 29t6 35q11 52 34 95l-17 7q-16 -28 -24 -50.5t-15 -51.5q-7 -34 -7 -70v-17.5t2 -16.5z" />
    <glyph glyph-name="ampersand" unicode="&#x26;" horiz-adv-x="738" 
d="M617 159l100 -159h-235l-26 39q-31 -17 -57.5 -27t-52.5 -16t-54 -8t-61 -2q-84 0 -134 39q-43 33 -43 86q0 15 3 31q15 71 82 132q55 49 120 71q-17 32 -29 61.5t-12 61.5q0 15 3 32q9 40 31.5 72.5t55 54.5t72.5 34t84 12q68 0 110 -31t42 -80q0 -12 -3 -24
q-11 -53 -46.5 -88.5t-91.5 -69.5l101 -159q33 31 64 75l41 -62q-36 -46 -64 -75zM562 538q3 14 3 26q0 17 -6 32h-26q9 -18 9 -37q0 -11 -3 -21q-7 -38 -29 -63.5t-62 -52.5l10 -17q44 30 69.5 59.5t34.5 73.5zM490 538q4 21 -4 39.5t-26 18.5q-22 0 -38 -18.5t-22 -47.5
q-4 -18 7.5 -40.5t23.5 -41.5q21 20 38 44t21 46zM491 74h130l-15 22h-101l-15 23h101l-14 23h-101l-14 23h101l-15 22h-101l-15 23h102l-15 23h-101l-15 22h101l-14 23h-101l-15 23h101l-14 23h-100l-16 22h102l-16 23h-101l-14 23h101l-15 23h-99l-13 22h98l-15 23h-89
l-1 23h79l-5 22h-71l8 23h65l7 23h-59l22 23h48l16 22h-67q-50 -34 -63 -96q-3 -15 -3 -28q0 -28 13.5 -54t36.5 -63zM415 105l-110 170q-18 -13 -33.5 -33.5t-19.5 -41.5q-3 -14 -3 -27q0 -41 24.5 -70t64.5 -29q20 0 41 9t36 22zM114 74h119l-14 22h-93l-5 12l-1 11h90
l-4 23h-85l7 23h76l1 22h-67l15 23h58l11 23h-48l28 22h32l19 23h-52q-41 -26 -67 -60t-35 -76q-1 -5 -1.5 -10.5t-0.5 -9.5q0 -28 17 -48z" />
    <glyph glyph-name="quotesingle" unicode="'" horiz-adv-x="206" 
d="M309 705l-53 -250h-114l53 250h114zM201 518h23l26 123h-23z" />
    <glyph glyph-name="parenleft" unicode="(" horiz-adv-x="360" 
d="M314 -67l-35 -29q-20 9 -41.5 26.5t-44.5 43.5q-59 68 -85 145q-20 62 -20 124q0 41 9 85q22 108 100 210q62 82 146 145q67 51 116 70l23 -29q-43 -40 -75.5 -81.5t-57 -89.5t-42.5 -103t-32 -122q-11 -53 -17.5 -98.5t-6.5 -84.5q0 -61 15.5 -111.5t47.5 -100.5z
M207 11l21 16l-29 41h18l-3 23h-27l-9 23h34v22h-43l-7 23h51l1 23h-57l-4 23h63l2 22h-67l-1 23h71l4 23h-74l2 22h76l5 23h-77l4 23h77l5 23h-75l8 22h73l6 23h-70l11 23h66l7 23h-62l13 22h56l9 23h-50l17 23h43l9 22h-34l20 23h26l14 23h-18l45 42l-15 13
q-72 -61 -124 -135q-63 -91 -82 -183q-9 -42 -9 -82q0 -26 3.5 -50.5t9.5 -48.5q21 -72 67 -136z" />
    <glyph glyph-name="parenright" unicode=")" horiz-adv-x="360" 
d="M399 328q-12 -54 -36.5 -106.5t-63.5 -102.5q-61 -80 -147 -145q-65 -50 -115 -70l-23 29q43 41 77 84.5t57 91.5q22 43 40.5 98t32.5 121q23 113 23 186v18t-1 17q-7 92 -61 175l35 29q40 -19 85 -69q59 -65 86 -146q20 -57 20 -122q0 -43 -9 -88zM351 295l7 23h-77
l4 23h77l3 23h-75l4 22h73l2 23h-71l3 23h67l-1 23h-63l2 22h57l-5 23h-51l1 23h45l-9 22h-36l-2 23h30l-12 23h-20l-10 45l-23 -11q13 -48 13 -106q0 -79 -24 -191q-20 -92 -46.5 -163t-68.5 -131l20 -11l28 45h20l21 23h-29l11 23h37l18 22h-45l9 23h52l15 23h-58l7 23h64
l10 22h-68l7 23h71l9 23h-73l5 22h75z" />
    <glyph glyph-name="asterisk" unicode="*" horiz-adv-x="373" 
d="M416 558l38 -25l-78 -99l-37 24l-10 -49h-114l11 53l-49 -26l-36 99l47 23l-36 25l78 98l37 -26l11 50h114l-10 -48l47 24l36 -98zM355 508l16 20l-47 30l59 31l-8 20l-56 -30l12 57h-22l-13 -60l-46 30l-15 -19l45 -29l-58 -30l7 -20l60 31l-14 -62h22l13 60z" />
    <glyph glyph-name="plus" unicode="+" horiz-adv-x="545" 
d="M572 364l-24 -114h-169l-36 -168h-113l36 168h-168l24 114h168l36 168h113l-36 -168h169zM344 295h151l5 23h-151l31 150h-23l-31 -150h-149l-5 -23h149l-32 -150h23z" />
    <glyph glyph-name="comma" unicode="," horiz-adv-x="284" 
d="M277 102q-11 -50 -35 -94t-62 -77q-80 -71 -174 -106l-21 38q25 17 46.5 45t25.5 47q4 14 -3.5 46.5t-7.5 67.5q0 17 3 33q5 24 18 44.5t32 35.5t41.5 24t46.5 9q41 0 66.5 -25.5t25.5 -64.5q0 -6 -0.5 -11.5t-1.5 -11.5zM127 114h102q0 14 -5 22h-109q-6 -8 -10.5 -16
t-6.5 -18q-2 -5 -2 -10.5v-10.5q0 -29 9 -58.5t4 -49.5q-4 -25 -12 -37q0 -1 -3 -4l18 -12q16 20 19 35q2 8 3 10q2 11 1 12h25l20 23h-44l-1 23h59l12 22h-80l-7 23h96l8 23h-102l2 11z" />
    <glyph glyph-name="hyphen" unicode="-" horiz-adv-x="507" 
d="M522 341l-33 -159h-405l33 159h405zM162 250h277l5 23h-277z" />
    <glyph glyph-name="period" unicode="." horiz-adv-x="285" 
d="M277 102q-5 -24 -18.5 -44.5t-32.5 -36t-41.5 -24.5t-46.5 -9q-41 0 -66.5 25.5t-25.5 63.5q0 13 3 25q5 24 18 44.5t32 35.5t41.5 24t46.5 9q41 0 66.5 -25.5t25.5 -64.5q0 -6 -0.5 -11.5t-1.5 -11.5zM224 91h-102l1 11l4 12h102q0 14 -5 22h-109q-6 -8 -10.5 -16
t-6.5 -18q-2 -9 -1 -17.5t3 -16.5h109q9 9 15 23z" />
    <glyph glyph-name="slash" unicode="/" horiz-adv-x="542" 
d="M466 750h211l-464 -841h-205zM572 659l13 23h-115l-390 -705h116l13 23h-90l12 23h90l14 22h-90l11 23h90l13 23h-90l12 23h90l13 22h-90l13 23h90l12 23h-89l12 23h90l12 22h-90l13 23h91l12 23h-90l12 22h90l13 23h-90l12 23h90l13 23h-90l12 22h91l12 23h-90l12 23h90
l14 23h-90l11 22h90l13 23h-90l12 23h91l13 22h-90l13 23h90l12 23h-90l12 23h90l12 22h-90l14 23h88z" />
    <glyph glyph-name="zero" unicode="0" horiz-adv-x="600" 
d="M643 333q-17 -81 -50 -145t-78 -109t-100.5 -69t-117.5 -24q-98 0 -154.5 64t-56.5 176q0 50 12 107q17 80 49.5 143t77.5 107t100 67t118 23q101 0 156.5 -61.5t55.5 -171.5q0 -50 -12 -107zM478 295h105l5 23h-105l4 23h104l4 23h-103l5 22h101l4 23h-100l4 23h97l1 23
h-95l3 22h91l-2 23h-87l2 23h81l-6 22h-72v23h63l-14 23h-74q1 -7 1 -15v-16q0 -44 -8.5 -105.5t-24.5 -136.5q-13 -58 -23.5 -99.5t-20.5 -70t-19 -47.5t-20 -33h74l28 23h-65l11 23h74l17 22h-83l8 23h89l12 23h-93l6 23h98l8 22h-101l6 23h102l7 23h-104zM426 333
q27 129 27 193q0 65 -27 65q-56 0 -110 -258q-29 -137 -29 -201t27 -64q30 0 56.5 64.5t55.5 200.5zM337 568l19 23h-77q-50 -41 -87 -114.5t-55 -158.5q-11 -52 -11 -92q0 -30 6 -57q13 -58 49 -101h56l-4 23h-36l-18 23h52l1 22h-65l-8 23h74l2 23h-82l-4 23h90l2 22h-93
v23h97l5 23h-99l3 22h100l5 23h-100l4 23h101l5 23h-99l7 22h98l6 23h-97l10 23h93l7 23h-91l11 22h86l8 23h-81l16 23h74l10 22h-66l22 23h54z" />
    <glyph glyph-name="one" unicode="1" horiz-adv-x="385" 
d="M475 659l-140 -659h-214l121 568l-114 -91l20 91l113 91h214zM184 68h118l5 23h-95l5 23h95l5 22h-95l5 23h95l5 23h-95l5 23h95l4 22h-95l5 23h95l5 23h-95l5 22h95l5 23h-95l4 23h95l5 23h-95l5 22h95l5 23h-95l5 23h95l5 23h-95l4 22h95l5 23h-95l5 23h95l5 22h-95
l5 23h95l5 23h-118z" />
    <glyph glyph-name="two" unicode="2" horiz-adv-x="540" 
d="M523 68l-14 -68h-464l14 68l181 170q46 43 77 77.5t50 59.5q32 45 40 81q4 16 4 34q0 36 -19 57t-54 21q-46 0 -84.5 -18t-76.5 -57l-28 41q14 22 35.5 42t50.5 39q83 58 182 58q105 0 153 -68q29 -42 29 -99q0 -12 -1 -24.5t-4 -25.5q-12 -57 -50 -118.5t-90 -110.5
l-166 -159h235zM536 432l6 23h-61l3 22h61l1 23h-61l-1 23h60l-6 22h-59l-8 23h56l-16 23h-88q19 -16 29 -41t10 -54q0 -10 -1 -20t-3 -20q-10 -49 -53 -108q-19 -26 -43.5 -53t-55.5 -57l-181 -170h98l24 23h-67l24 23h67l24 22h-67l24 23h67l24 23h-66l24 23h66l23 22h-66
l24 23h65l22 23h-64l20 22h64l18 23h-63l17 23h61l15 23h-61l13 22h61l10 23h-61l9 23h62z" />
    <glyph glyph-name="three" unicode="3" 
d="M572 218q-22 -106 -124 -172q-93 -60 -204 -60q-65 0 -115.5 18t-88.5 59l30 37q16 -19 46 -26q21 -6 53 -6q64 0 115 41t65 109q3 12 4 23t1 22q0 37 -15 62q-27 50 -104 50l203 216h-239l14 68h423l-200 -214q76 -18 114 -76q28 -41 28 -97q0 -26 -6 -54zM521 205l5 22
h-103l4 23h102l1 23h-102v22h100l-7 23h-98l-6 23h90l-11 12l-15 11h-73q-16 32 -52 56l162 171h-30l-168 -178q64 -27 80 -90q6 -24 6 -49q0 -13 -2 -27t-5 -29q-19 -94 -100 -150h90l51 23h-85l19 23h93l21 22h-99l12 23h101l12 23h-102l7 23h102z" />
    <glyph glyph-name="four" unicode="4" horiz-adv-x="602" 
d="M617 205l-15 -69h-68l-29 -136h-214l29 136h-264l15 69l366 454h208l-96 -454h68zM355 68h117l5 23h-94l5 23h94l5 22h-94l5 23h94l5 23h-94l5 23h94l4 22h-94l5 23h94l5 23h-94l5 22h94l5 23h-94l4 23h94l5 23h-94l5 22h94l5 23h-94l5 23h94l5 23h-94l4 22h94l5 23h-94
l5 23h94l5 22h-94l5 23h94l5 23h-117zM148 205l253 314l10 44l-289 -358h26zM199 205h136l48 227z" />
    <glyph glyph-name="five" unicode="5" horiz-adv-x="555" 
d="M572 218q-22 -106 -124 -172q-93 -60 -204 -60q-65 0 -115.5 18t-88.5 59l30 37q16 -19 46 -26q21 -6 53 -6q64 0 115 41t65 109q4 17 4 38q0 40 -20 69q-32 50 -98 50h-91l60 284h396l-14 -68h-182l-29 -136q44 -6 80.5 -20.5t64.5 -39.5q58 -49 58 -125q0 -25 -6 -52z
M518 205l5 22h-103l2 23h104v23h-103l-3 22h105l-8 23h-100l-10 23h96l-11 12l-15 11h-81q-4 11 -23 30q-29 30 -62 42t-80 19l4 22h94l5 23h-94l5 23h94l5 22h-94l5 23h94l5 23h-117l-34 -159q115 0 166 -77q31 -48 31 -97q0 -17 -5 -40q-19 -94 -99 -150h90l50 23h-84
l18 23h93l21 22h-99l13 23h101l11 23h-102l8 23h102z" />
    <glyph glyph-name="six" unicode="6" horiz-adv-x="558" 
d="M576 201q-10 -47 -37.5 -86t-67.5 -68t-90 -45t-104 -16q-123 0 -168 83q-28 49 -28 127q0 60 16 133q28 136 132 237q110 107 243 107q32 0 67.5 -8.5t62.5 -33.5l-28 -44q-15 11 -33.5 15t-46.5 4q-67 0 -119 -71q-48 -63 -69 -160q26 13 48 17.5t54 4.5
q78 0 125.5 -40.5t47.5 -110.5q0 -10 -1.5 -21.5t-3.5 -23.5zM448 205h84l3 22h-86l1 23h86l-3 23h-83l-4 22h79l-8 12l-8 11h-97q13 -29 13 -73q0 -28 -6 -55q-15 -74 -55 -122h68l30 23h-55l12 23h66l19 22h-76l9 23h79l9 23h-82zM359 568l21 23h-61q-68 -43 -115.5 -112
t-64.5 -150q-15 -72 -15 -126q0 -89 42 -135h58l-6 23h-39l-14 23h52l-1 22h-59l-6 23h67l3 23h-73v23h76l3 22h-80l1 23h83l6 23h-85l3 22h88l6 23h-90l4 23h92l6 23h-91l7 22h91l8 23h-89l12 23h86l9 23h-82l15 22h76l12 23h-70l21 23h61l15 22h-51l29 23h39zM376 190
q4 16 6.5 34t2.5 35q0 25 -8 42t-29 17q-28 0 -51 -38.5t-34 -89.5q-7 -34 -7 -62q0 -60 38 -60q31 0 50.5 31.5t31.5 90.5z" />
    <glyph glyph-name="seven" unicode="7" horiz-adv-x="567" 
d="M167 659h523l-341 -659h-225l306 591h-277zM595 568l11 23h-131l-271 -523h131l12 23h-107l11 23h108l12 22h-107l12 23h106l12 23h-107l12 23h108l10 22h-107l12 23h107l12 23h-108l13 22h107l12 23h-107l11 23h107l12 23h-107l12 22h106l13 23h-108l13 23h107l11 23
h-106l10 22h107l12 23h-107l13 23h106l12 22h-107l11 23h109z" />
    <glyph glyph-name="eight" unicode="8" horiz-adv-x="560" 
d="M572 199q-10 -47 -35 -86.5t-63.5 -67.5t-88 -43.5t-107.5 -15.5q-100 0 -157 46.5t-57 122.5q0 19 5 44q15 68 60 108q39 35 84 44q-30 13 -44 32.5t-14 51.5q0 13 2 27.5t6 32.5q17 82 84.5 130t175.5 48q93 0 140 -35.5t47 -98.5q0 -11 -1.5 -21.5t-3.5 -22.5
q-13 -63 -39.5 -95t-71.5 -49q40 -8 61.5 -37t21.5 -72q0 -18 -5 -43zM487 477h65l5 23h-66l2 23h66l-1 22h-66l-4 23h61l-9 13q-1 3 -4 5t-5 5h-72q14 -30 14 -63q0 -19 -5 -44q-6 -28 -21 -56t-29 -42h61l19 12l13 11h-49l12 23h56l13 23h-61zM427 489q4 17 4 35
q0 37 -24 67q-56 -46 -68 -103q-5 -23 -5 -38q0 -35 28 -64q26 16 42 43t23 60zM331 568l20 23h-72q-55 -31 -69 -96q-4 -19 -4 -36q0 -47 35 -73h60l-7 23h-44l-15 23h57l-1 23h-61l-1 22h63l5 23h-64l8 23h65l11 22h-63l11 13l12 10h54zM436 205h89l1 22h-88l1 23h86
l-3 13l-5 10h-78l-3 22h65l-16 14q-2 2 -8 4.5t-10 4.5h-59q4 -8 8 -28.5t4 -44.5q0 -11 -1 -21t-3 -19q-8 -36 -25.5 -74.5t-39.5 -62.5h63l39 23h-62l12 23h76l18 22h-83l9 23h87l9 23h-88zM364 194q6 27 6 49q0 40 -23 75q-56 -51 -71 -125q-7 -29 -7 -56q0 -39 23 -69
q26 20 45 53.5t27 72.5zM170 68h61l-7 23h-46l-22 23h63v22h-75l-6 23h82l4 23h-86l4 23h87l5 22h-85l13 23h81l11 23h-71l17 12l19 10h49l16 23h-59q-43 -15 -71 -46t-37 -73q-4 -16 -4 -35q0 -62 57 -96z" />
    <glyph glyph-name="nine" unicode="9" horiz-adv-x="560" 
d="M603 330q-30 -140 -129 -237q-109 -107 -246 -107q-36 0 -71 10.5t-59 31.5l28 44q15 -11 33.5 -15t46.5 -4q66 0 118 71q49 66 70 162q-52 -24 -102 -24q-78 0 -125.5 40.5t-47.5 110.5q0 11 1.5 22t3.5 23q10 46 37.5 85.5t67.5 68.5t90 45t104 16q126 0 169 -78
q28 -47 28 -126q0 -59 -17 -139zM437 469q7 34 7 62q0 60 -38 60q-31 0 -51 -31.5t-32 -90.5q-8 -40 -8 -67t8.5 -44t28.5 -17q28 0 51 38.5t34 89.5zM545 295l7 23h-78l6 23h75l5 23h-74l6 22h72l3 23h-69l5 23h66l1 23h-62l4 22h56l-1 23h-52l1 23h47l-6 22h-40l-2 23h32
l-16 23h-47q9 -25 9 -58q0 -32 -7 -64q-20 -92 -38.5 -158t-37.5 -113t-39 -78t-42 -52h47l32 23h-32l15 23h44l22 22h-53l13 23h59l16 23h-65l10 23h70l11 22h-74l8 23h76l10 23h-77l7 22h77zM197 341h82l-6 23h-63l-13 22h74v23h-79l-1 23h80l2 23h-79l6 22h77l7 23h-73
l14 23h67l9 22h-57l13 13l13 10h44l16 23h-60q-80 -48 -98 -136q-4 -19 -4 -38q0 -49 29 -76z" />
    <glyph glyph-name="colon" unicode=":" horiz-adv-x="284" 
d="M335 375q-5 -24 -18.5 -44.5t-32.5 -36t-41.5 -24.5t-46.5 -9q-41 0 -66.5 25.5t-25.5 63.5q0 13 3 25q5 24 18 44.5t32 35.5t41.5 24t46.5 9q41 0 66.5 -25.5t25.5 -64.5q0 -6 -0.5 -11.5t-1.5 -11.5zM277 102q-5 -24 -18.5 -44.5t-32.5 -36t-41.5 -24.5t-46.5 -9
q-41 0 -66.5 25.5t-25.5 63.5q0 13 3 25q5 24 18 44.5t32 35.5t41.5 24t46.5 9q41 0 66.5 -25.5t25.5 -64.5q0 -6 -0.5 -11.5t-1.5 -11.5zM282 364h-102l1 11l4 11h102q0 11 -5 23h-109q-6 -7 -10.5 -16t-6.5 -18q-2 -10 -1 -18.5t3 -15.5h109q9 9 15 23zM224 91h-102l1 11
l4 12h102q0 14 -5 22h-109q-6 -8 -10.5 -16t-6.5 -18q-2 -9 -1 -17.5t3 -16.5h109q9 9 15 23z" />
    <glyph glyph-name="semicolon" unicode=";" horiz-adv-x="284" 
d="M335 375q-5 -24 -18.5 -44.5t-32.5 -36t-41.5 -24.5t-46.5 -9q-41 0 -66.5 25.5t-25.5 63.5q0 13 3 25q5 24 18 44.5t32 35.5t41.5 24t46.5 9q41 0 66.5 -25.5t25.5 -64.5q0 -6 -0.5 -11.5t-1.5 -11.5zM277 102q-11 -50 -35 -94t-62 -77q-80 -71 -174 -106l-21 38
q25 17 46.5 45t25.5 47q4 14 -3.5 46.5t-7.5 67.5q0 17 3 33q5 24 18 44.5t32 35.5t41.5 24t46.5 9q41 0 66.5 -25.5t25.5 -64.5q0 -6 -0.5 -11.5t-1.5 -11.5zM282 364h-102l1 11l4 11h102q0 11 -5 23h-109q-6 -7 -10.5 -16t-6.5 -18q-2 -10 -1 -18.5t3 -15.5h109q9 9 15 23
zM127 114h102q0 14 -5 22h-109q-6 -8 -10.5 -16t-6.5 -18q-2 -5 -2 -10.5v-10.5q0 -29 9 -58.5t4 -49.5q-4 -25 -12 -37q0 -1 -3 -4l18 -12q16 20 19 35q2 8 3 10q2 11 1 12h25l20 23h-44l-1 23h59l12 22h-80l-7 23h96l8 23h-102l2 11z" />
    <glyph glyph-name="less" unicode="&#x3c;" horiz-adv-x="524" 
d="M502 128l-28 -131l-377 248l21 100l483 246l-28 -130l-323 -166zM153 269l285 -189l5 25l-265 176l5 27l340 174l6 26l-365 -188z" />
    <glyph glyph-name="equal" unicode="=" horiz-adv-x="587" 
d="M633 432l-24 -114h-496l24 114h496zM599 273l-24 -114h-496l24 114h496zM186 364h368l5 22h-368zM153 205h368l4 22h-368z" />
    <glyph glyph-name="greater" unicode="&#x3e;" horiz-adv-x="515" 
d="M548 345l-21 -100l-483 -248l28 131l324 167l-253 166l28 130zM116 80l365 189l11 51l-285 188l-6 -26l266 -174l-5 -27l-341 -176z" />
    <glyph glyph-name="question" unicode="?" horiz-adv-x="427" 
d="M515 541q-7 -34 -38 -68t-66.5 -65.5t-65 -59t-33.5 -47.5q-12 -53 56 -53l-18 -43q-107 0 -157 34q-45 30 -45 82q0 7 1 15t3 16q7 34 38.5 65.5t67 60.5t65.5 55.5t35 50.5t-14.5 35t-49.5 11q-31 0 -64 -8.5t-51 -23.5l-18 33q31 29 77 44.5t109 15.5q73 0 122 -34
t49 -90q0 -13 -3 -26zM320 77q-8 -38 -40 -64.5t-70 -26.5t-59 26.5t-13 64.5t40.5 64.5t70.5 26.5q33 0 53 -20t20 -51q0 -5 -0.5 -10t-1.5 -10zM468 523l6 22h-65l9 23h58l-5 23h-70q-7 -32 -38 -62t-66.5 -59t-66 -58t-36.5 -60q-3 -14 -3 -25q0 -60 79 -77l-7 25l-14 6
q-5 2 -9 5t-9 9h35l7 23h-56l-2 12v11h69l22 23h-86l5 12l7 10h105l35 23h-121l13 12l16 11h124l25 23h-115l32 22h100l14 23h-87l21 23h74zM248 77q2 8 -2.5 13.5t-12.5 5.5q-18 0 -23 -19q-3 -18 16 -18q7 0 13.5 5.5t8.5 12.5z" />
    <glyph glyph-name="at" unicode="@" horiz-adv-x="671" 
d="M725 382q-20 -95 -102 -170q-77 -71 -145 -71q-26 0 -45 16.5t-26 44.5q-23 -26 -47 -41q-32 -20 -63 -20q-43 0 -69.5 31.5t-26.5 81.5q0 18 5 41q10 48 34 89.5t57 72t72 48.5t80 18q49 0 63 -38l14 30h107l-126 -272q-5 -10 -7 -18t-4 -13q-3 -15 3 -15q26 0 53 18.5
t50.5 46t40.5 60t23 60.5t6 54q0 76 -50.5 122.5t-142.5 46.5q-55 0 -108.5 -22t-97.5 -59t-75 -86.5t-43 -105.5q-6 -30 -6 -59q0 -45 15 -84.5t43 -68.5t67.5 -45.5t87.5 -16.5q77 0 142 34q59 30 98 84h67q-22 -33 -49 -61t-59 -50q-94 -65 -211 -65q-59 0 -107 20
t-82 55.5t-52.5 83t-18.5 102.5q0 33 8 71q27 127 135 225q118 104 257 104q135 0 198 -81q44 -54 44 -132q0 -34 -7 -66zM472 415q4 18 -2 37t-23 19q-21 0 -42 -16.5t-40.5 -44.5t-35 -65.5t-24.5 -79.5q-5 -23 -5 -37q0 -31 24 -31q22 0 46 25t45 60t36.5 72t20.5 61z
" />
    <glyph glyph-name="A" unicode="A" horiz-adv-x="780" 
d="M653 659l109 -659h-149l-25 159h-212l-91 -159h-268l390 659h246zM412 227h162l-37 228zM666 68h24l-85 523h-198l-310 -523h163l13 23h-137l13 23h137l12 22h-134l13 23h134l13 23h-133l13 23h133l11 22h-132l14 23h131l12 23h-129l14 22h129l12 23h-128l13 23h127
l12 23h-126l14 22h126l12 23h-125l14 23h124l12 23h-122l13 22h121l13 23h-121l14 23h120l12 22h-119l14 23h165z" />
    <glyph glyph-name="B" unicode="B" horiz-adv-x="664" 
d="M680 199q-9 -45 -36 -81.5t-66.5 -63t-89 -40.5t-103.5 -14h-340l140 659h340q103 0 152 -30.5t49 -92.5q0 -10 -1.5 -20t-3.5 -21q-12 -60 -54 -96q-36 -30 -98 -48q58 0 91 -40q24 -30 24 -73q0 -20 -4 -39zM651 477l6 23h-104l2 23h103l-3 22h-102l-5 23h98l-8 13
l-8 10h-119q21 -25 21 -67q0 -21 -6 -47q-12 -60 -47 -91h94l17 12l12 11h-79l13 23h89l16 23h-97l5 22h102zM477 477q6 25 6 44q0 70 -72 70l-44 -205q43 0 72 24.5t38 66.5zM499 205h118v22h-115l1 23h111l-3 13l-8 10h-101l-5 22h89l-16 14l-15 9h-96q22 -28 22 -70
q0 -18 -5 -43q-9 -42 -29.5 -79.5t-56.5 -57.5h122l32 23h-100l17 23h108l18 22h-113l11 23h116l10 23h-118zM427 199q2 12 3.5 22.5t1.5 20.5q0 76 -79 76l-54 -250q23 0 44 11.5t38 30.5t29 42t17 47zM100 68h141l5 23h-118l5 23h118l5 22h-118l5 23h118l5 23h-118l5 23
h118l4 22h-118l5 23h118l5 23h-118l5 22h118l5 23h-118l4 23h118l5 23h-118l5 22h118l5 23h-118l5 23h118l5 23h-118l4 22h118l5 23h-118l5 23h118l5 22h-118l5 23h118l5 23h-141z" />
    <glyph glyph-name="C" unicode="C" horiz-adv-x="658" 
d="M626 116l22 -45q-34 -29 -58 -42q-81 -43 -180 -43q-163 0 -250 84q-72 68 -72 177q0 39 9 84q36 167 173 259q124 83 286 83q100 0 162 -41q10 -7 20 -17.5t21 -23.5l-42 -46q-13 16 -26 23q-41 23 -111 23q-69 0 -137 -65q-78 -72 -105 -195q-9 -42 -9 -78
q0 -65 28 -114q41 -71 111 -71q49 0 85.5 10.5t72.5 37.5zM229 68h124l-29 23h-81l-32 23h90l-13 22h-97l-15 23h103l-6 23h-108l-6 23h110l-3 22h-113l-1 23h114l1 23h-114l2 22h114l4 23h-114l4 23h114l5 23h-113l8 22h113l9 23h-113l11 23h111l12 23h-108l15 22h105
l15 23h-99l24 23h93l20 22h-84l38 23h77l35 23h-120q-75 -41 -125 -109t-68 -151q-8 -42 -8 -74q0 -47 14 -87q24 -62 85 -102z" />
    <glyph glyph-name="D" unicode="D" horiz-adv-x="744" 
d="M786 331q-35 -164 -169 -254q-115 -77 -257 -77h-315l140 659h315q155 0 233 -75q63 -60 63 -163q0 -44 -10 -90zM712 295l7 23h-118l4 23h118l3 23h-117l4 22h114v23h-111l2 23h107l-4 23h-101l-1 22h94l-10 23h-84l-3 23h73l-17 22h-61l-11 23h47l-33 23h-63
q37 -27 41 -106q1 -6 1 -12.5v-13.5q0 -59 -16 -130q-19 -91 -51 -154q-36 -75 -94 -107h66l41 23h-45l23 23h58l29 22h-71l14 23h82l21 23h-92l9 23h100l14 22h-106l7 23h111l10 23h-114l6 22h117zM534 329q14 68 14 118q0 54 -15 90.5t-47 53.5h-75l-112 -523h60
q70 33 114 101q40 62 61 160zM100 68h141l5 23h-118l5 23h118l5 22h-118l5 23h118l5 23h-118l5 23h118l4 22h-118l5 23h118l5 23h-118l5 22h118l5 23h-118l4 23h118l5 23h-118l5 22h118l5 23h-118l5 23h118l5 23h-118l4 22h118l5 23h-118l5 23h118l5 22h-118l5 23h118l5 23
h-141z" />
    <glyph glyph-name="E" unicode="E" horiz-adv-x="533" 
d="M519 68l-14 -68h-460l140 659h460l-14 -68h-220l-44 -205h130l-14 -68h-130l-54 -250h220zM100 68h141l5 23h-118l5 23h118l5 22h-118l5 23h118l5 23h-118l5 23h118l4 22h-118l5 23h118l5 23h-118l5 22h118l5 23h-118l4 23h118l5 23h-118l5 22h118l5 23h-118l5 23h118
l5 23h-118l4 22h118l5 23h-118l5 23h118l5 22h-118l5 23h118l5 23h-141z" />
    <glyph glyph-name="F" unicode="F" horiz-adv-x="533" 
d="M645 659l-14 -68h-220l-44 -205h130l-14 -68h-130l-68 -318h-240l140 659h460zM100 68h141l5 23h-118l5 23h118l5 22h-118l5 23h118l5 23h-118l5 23h118l4 22h-118l5 23h118l5 23h-118l5 22h118l5 23h-118l4 23h118l5 23h-118l5 22h118l5 23h-118l5 23h118l5 23h-118
l4 22h118l5 23h-118l5 23h118l5 22h-118l5 23h118l5 23h-141z" />
    <glyph glyph-name="G" unicode="G" horiz-adv-x="762" 
d="M786 318l-60 -282q-47 -22 -130 -36t-186 -14q-157 0 -247 84q-75 70 -75 181q0 38 9 80q36 167 173 259q124 83 286 83q83 0 137 -27q42 -19 66 -55l-41 -46q-23 26 -57.5 36t-80.5 10q-69 0 -137 -65q-78 -72 -105 -195q-11 -55 -11 -96q0 -79 38 -123t112 -44h16
l54 250h239zM534 68h141l5 23h-118l5 23h118l5 22h-118l5 23h118l5 23h-118l5 23h118l4 22h-118l5 23h118l5 23h-141zM229 68h124l-29 23h-81l-32 23h90l-13 22h-97l-15 23h103l-6 23h-108l-6 23h110l-3 22h-113l-1 23h114l1 23h-114l2 22h114l4 23h-114l4 23h114l5 23h-113
l8 22h113l9 23h-113l11 23h111l12 23h-108l15 22h105l15 23h-99l24 23h93l20 22h-84l38 23h77l35 23h-120q-75 -41 -125 -109t-68 -151q-8 -42 -8 -74q0 -47 14 -87q24 -62 85 -102z" />
    <glyph glyph-name="H" unicode="H" horiz-adv-x="691" 
d="M781 659l-140 -659h-239l63 295h-117l-63 -295h-240l140 659h240l-63 -295h117l63 295h239zM457 68h141l5 23h-119l5 23h119l5 22h-119l5 23h119l5 23h-119l5 23h119l4 22h-119l5 23h119l5 23h-119l5 22h119l5 23h-119l4 23h119l5 23h-119l5 22h119l5 23h-119l5 23h119
l5 23h-119l4 22h119l5 23h-119l5 23h119l5 22h-119l5 23h119l5 23h-141zM100 68h141l5 23h-118l5 23h118l5 22h-118l5 23h118l5 23h-118l5 23h118l4 22h-118l5 23h118l5 23h-118l5 22h118l5 23h-118l4 23h118l5 23h-118l5 22h118l5 23h-118l5 23h118l5 23h-118l4 22h118
l5 23h-118l5 23h118l5 22h-118l5 23h118l5 23h-141z" />
    <glyph glyph-name="I" unicode="I" horiz-adv-x="335" 
d="M425 659l-140 -659h-240l140 659h240zM101 68h140l5 23h-118l5 23h118l5 22h-118l5 23h118l5 23h-118l5 23h118l4 22h-118l5 23h118l5 23h-118l5 22h118l5 23h-118l4 23h118l5 23h-118l5 22h118l5 23h-118l5 23h118l5 23h-118l4 22h118l5 23h-118l5 23h118l5 22h-118
l5 23h118l5 23h-140z" />
    <glyph glyph-name="J" unicode="J" horiz-adv-x="333" 
d="M425 659l-104 -490q-30 -140 -135 -230q-109 -94 -259 -94l-7 47q58 19 89.5 54t47.5 109l128 604h240zM143 159h118l5 23h-118l5 23h118l4 22h-118l5 23h118l5 23h-118l5 22h118l5 23h-118l4 23h118l5 23h-118l5 22h118l5 23h-118l5 23h118l5 23h-118l4 22h118l5 23
h-118l5 23h118l5 22h-118l5 23h118l5 23h-141l-112 -523q-6 -30 -16 -60t-27 -53q-3 -6 -10.5 -12.5t-15.5 -10.5h57q4 0 16.5 8t21.5 15h-41l12 22h60l24 23h-76l8 23h87l15 22h-96l4 23h105l10 23h-110l5 23h115l7 22h-117z" />
    <glyph glyph-name="K" unicode="K" horiz-adv-x="698" 
d="M647 659h175l-337 -295l191 -364h-272l-81 179l-38 -179h-240l140 659h240l-51 -241zM423 68h148l-12 23h-116l-11 23h116l-13 22h-112l-11 23h112l-11 23h-111l-10 23h108l-12 22h-107l-10 23h105l-12 23h-99l5 22h82l-11 23h-66l4 19l290 254h-32l-278 -244l-20 -91z
M100 68h141l5 23h-118l5 23h118l5 22h-118l5 23h118l5 23h-118l5 23h118l4 22h-118l5 23h118l5 23h-118l5 22h118l5 23h-118l4 23h118l5 23h-118l5 22h118l5 23h-118l5 23h118l5 23h-118l4 22h118l5 23h-118l5 23h118l5 22h-118l5 23h118l5 23h-141z" />
    <glyph glyph-name="L" unicode="L" horiz-adv-x="533" 
d="M519 68l-14 -68h-460l140 659h240l-126 -591h220zM100 68h141l5 23h-118l5 23h118l5 22h-118l5 23h118l5 23h-118l5 23h118l4 22h-118l5 23h118l5 23h-118l5 22h118l5 23h-118l4 23h118l5 23h-118l5 22h118l5 23h-118l5 23h118l5 23h-118l4 22h118l5 23h-118l5 23h118
l5 22h-118l5 23h118l5 23h-141z" />
    <glyph glyph-name="M" unicode="M" horiz-adv-x="978" 
d="M1013 659l-54 -659h-244l35 341l-227 -341h-146l-81 350l-125 -350h-153l237 659h197l105 -392l249 392h207zM769 68h141l3 23h-116l2 23h116l1 22h-113l2 23h114l2 23h-114l2 23h114v22h-111l2 23h112l2 23h-112l3 22h110l3 23h-110l1 23h110l2 23h-110l3 22h109l2 23
h-108l2 23h108l1 23h-106l1 22h107l2 23h-106l2 23h106l2 22h-105l2 23h105l2 23h-129zM514 68l248 390l6 53l-268 -420h-62l-5 23h26l15 22h-47l-5 23h67l15 23h-87l-5 23h104l-7 22h-103l-5 23h102l-6 23h-101l-5 22h101l-7 23h-99l-7 23h100l-7 23h-98l-5 22h98l-6 23
h-97l-5 23h96l-6 23h-95l-6 22h94l-6 23h-93l-6 23h93l-6 22h-92l-5 23h91l-6 23h-119l121 -523h100zM131 68l140 389l-10 43l-156 -432h26z" />
    <glyph glyph-name="N" unicode="N" horiz-adv-x="724" 
d="M817 659l-140 -659h-202l-211 385l-82 -385h-137l140 659h207l208 -380l81 380h136zM496 68h136l112 523h-23l-107 -500h-101l-13 23h65l5 22h-82l-12 23h99l5 23h-116l-13 23h117l-14 22h-116l-12 23h116l-12 23h-117l-12 22h116l-12 23h-117l-12 23h115l-11 23h-118
l-11 22h116l-13 23h-115l-12 23h115l-12 23h-116l-14 22h117l-13 23h-116l-12 23h116l-12 22h-117l-12 23h116l-12 23h-129l-5 -22zM114 68h23l85 396l-17 29z" />
    <glyph glyph-name="O" unicode="O" horiz-adv-x="824" 
d="M868 331q-34 -166 -172 -260q-126 -85 -286 -85q-163 0 -250 84q-72 68 -72 177q0 39 9 84q36 167 173 259q124 83 286 83q160 0 250 -82q72 -67 72 -176q0 -19 -3 -40t-7 -44zM795 295l7 23h-105l4 23h105l3 23h-104l2 22h104l1 23h-102l-1 23h102l-3 23h-99l-4 22h97
l-9 23h-92l-6 23h88l-14 22h-84l-16 23h81l-27 23h-116q51 -25 69 -103q8 -35 8 -71q0 -21 -3 -43t-7 -45q-17 -82 -61 -150q-44 -71 -118 -111h105l42 23h-76l24 23h84l25 22h-88l18 23h92l19 23h-96l12 23h99l12 22h-101l10 23h102l9 23h-104l8 22h104zM627 331
q10 43 10 83q0 61 -24 107q-28 54 -74 70q-33 -10 -61.5 -31t-55.5 -53q-62 -74 -84 -176q-9 -43 -9 -81q0 -60 22 -105q27 -60 76 -77q61 19 118 88q61 76 82 175zM229 68h124l-29 23h-81l-32 23h90l-13 22h-97l-15 23h103l-6 23h-108l-6 23h110l-3 22h-113l-1 23h114l1 23
h-114l2 22h114l4 23h-114l4 23h114l5 23h-113l8 22h113l9 23h-113l11 23h111l12 23h-108l15 22h105l15 23h-99l24 23h93l20 22h-84l38 23h77l35 23h-120q-75 -41 -125 -109t-68 -151q-8 -42 -8 -74q0 -47 14 -87q24 -62 85 -102z" />
    <glyph glyph-name="P" unicode="P" horiz-adv-x="658" 
d="M731 460q-20 -93 -123 -142q-99 -45 -265 -45l-58 -273h-240l140 659h313q113 0 179 -53q58 -45 58 -111q0 -8 -1.5 -17t-2.5 -18zM661 432l9 23h-118l3 22h118v23h-116l-1 23h113l-8 22h-108l-7 23h100l-22 23h-122q17 -13 24.5 -37t7.5 -51q0 -12 -1.5 -24t-3.5 -24
q-17 -75 -66 -114h96l19 9l22 14h-89l15 22h101l12 10l9 13h-111l9 23h115zM483 460q1 8 2.5 17t1.5 17q0 38 -19 67.5t-57 29.5l-54 -250q100 0 126 119zM100 68h141l5 23h-118l5 23h118l5 22h-118l5 23h118l5 23h-118l5 23h118l4 22h-118l5 23h118l5 23h-118l5 22h118
l5 23h-118l4 23h118l5 23h-118l5 22h118l5 23h-118l5 23h118l5 23h-118l4 22h118l5 23h-118l5 23h118l5 22h-118l5 23h118l5 23h-141z" />
    <glyph glyph-name="Q" unicode="Q" horiz-adv-x="827" 
d="M868 331q-28 -138 -130 -228q-92 -82 -223 -107q0 -44 18 -67t59 -37l-28 -47q-96 0 -159.5 39.5t-89.5 110.5q-124 26 -182 105q-45 62 -45 147q0 39 9 84q36 167 173 259q124 83 286 83q160 0 250 -82q72 -67 72 -176q0 -19 -3 -40t-7 -44zM795 295l7 23h-105l4 23h105
l3 23h-104l2 22h104l1 23h-102l-1 23h102l-3 23h-99l-4 22h97l-9 23h-92l-6 23h88l-14 22h-84l-16 23h81l-27 23h-116q51 -25 69 -103q8 -35 8 -71q0 -21 -3 -43t-7 -45q-17 -82 -61 -150q-44 -71 -118 -111h105l42 23h-76l24 23h84l25 22h-88l18 23h92l19 23h-96l12 23h99
l12 22h-101l10 23h102l9 23h-104l8 22h104zM627 331q10 43 10 83q0 61 -24 107q-28 54 -74 70q-33 -10 -61.5 -31t-55.5 -53q-62 -74 -84 -176q-9 -43 -9 -81q0 -60 22 -105q27 -60 76 -77q61 19 118 88q61 76 82 175zM229 68h124l-29 23h-81l-32 23h90l-13 22h-97l-15 23
h103l-6 23h-108l-6 23h110l-3 22h-113l-1 23h114l1 23h-114l2 22h114l4 23h-114l4 23h114l5 23h-113l8 22h113l9 23h-113l11 23h111l12 23h-108l15 22h105l15 23h-99l24 23h93l20 22h-84l38 23h77l35 23h-120q-75 -41 -125 -109t-68 -151q-8 -42 -8 -74q0 -47 14 -87
q24 -62 85 -102zM475 -101l11 18q-21 7 -38.5 27t-21.5 42h-29q6 -26 28.5 -52.5t49.5 -34.5z" />
    <glyph glyph-name="R" unicode="R" horiz-adv-x="660" 
d="M539 295l105 -295h-259l-49 240l-51 -240h-240l140 659h313q113 0 179 -53q58 -45 58 -111q0 -8 -1.5 -17t-2.5 -18q-15 -68 -72 -110q-43 -34 -120 -55zM483 460q1 8 2.5 17t1.5 17q0 38 -19 67.5t-57 29.5l-54 -250q100 0 126 119zM661 432l9 23h-118l3 22h118v23h-116
l-1 23h113l-8 22h-108l-7 23h100l-22 23h-122q17 -13 24.5 -37t7.5 -51q0 -12 -1.5 -24t-3.5 -24q-10 -48 -42 -89q-45 -58 -121 -66l46 -232h147l-8 23h-117l-5 23h114l-8 22h-111l-4 23h107l-7 23h-105l-4 23h101l-9 22h-97l-5 23h95l-9 23h-90l-2 11q29 5 55 20.5
t44 36.5h65l19 9l22 14h-89l15 22h101l12 10l9 13h-111l9 23h115zM100 68h141l5 23h-118l5 23h118l5 22h-118l5 23h118l5 23h-118l5 23h118l4 22h-118l5 23h118l5 23h-118l5 22h118l5 23h-118l4 23h118l5 23h-118l5 22h118l5 23h-118l5 23h118l5 23h-118l4 22h118l5 23h-118
l5 23h118l5 22h-118l5 23h118l5 23h-141z" />
    <glyph glyph-name="S" unicode="S" horiz-adv-x="580" 
d="M598 212q-11 -52 -41.5 -93.5t-76.5 -71t-105.5 -45t-127.5 -15.5q-92 0 -150 34q-31 18 -54 52l32 57q39 -30 86 -46t94 -16q44 0 76.5 18.5t39.5 53.5q8 36 -63 80q-109 67 -130 89q-51 51 -51 117q0 18 5 43q10 46 38.5 83.5t70 64.5t92.5 41.5t106 14.5
q165 0 215 -82l-42 -46q-14 20 -59.5 33t-91.5 13q-37 0 -72 -13.5t-42 -50.5q-6 -33 67 -72q52 -29 86 -49t49 -34q53 -49 53 -119q0 -22 -4 -41zM427 205h113l3 22h-132l-24 23h156l-5 23h-184l-36 22h209l-18 23h-228l-33 23h234l-35 23h-224l-16 22h200l-39 23h-171
l-4 23h140l-22 23h-118l3 22h100l-6 23h-86l12 23h74l6 22h-62l26 23h51l25 23h-75q-71 -45 -87 -122q-2 -8 -3 -16.5t-1 -16.5q0 -30 13 -57.5t40 -48.5q31 -22 64.5 -42.5t65.5 -42.5q70 -47 58 -105q-5 -22 -14.5 -39.5t-27.5 -32.5h64l36 23h-55l13 23h67l18 22h-78
l3 23h88l9 23h-99z" />
    <glyph glyph-name="T" unicode="T" horiz-adv-x="638" 
d="M756 659l-14 -68h-175l-126 -591h-239l126 591h-175l14 68h589zM257 68h141l5 23h-119l5 23h119l5 22h-119l5 23h119l5 23h-119l5 23h119l4 22h-119l5 23h119l5 23h-119l5 22h119l5 23h-119l4 23h119l5 23h-119l5 22h119l5 23h-119l5 23h119l5 23h-119l4 22h119l5 23
h-119l5 23h119l5 22h-119l5 23h119l5 23h-141z" />
    <glyph glyph-name="U" unicode="U" horiz-adv-x="736" 
d="M835 659l-87 -409q-27 -126 -121 -193q-98 -71 -260 -71q-140 0 -209 46t-69 142q0 34 9 76l87 409h240l-90 -424q-6 -30 -6 -55q0 -33 9 -58q20 -54 74 -54t98 54q38 47 52 113l90 424h183zM628 250h78l5 23h-78l5 22h78l5 23h-78l4 23h78l5 23h-78l5 22h78l5 23h-78
l5 23h78l5 23h-78l4 22h78l5 23h-78l5 23h78l5 22h-78l5 23h78l5 23h-100l-76 -356q-5 -25 -15 -50.5t-24.5 -48.5t-33.5 -41t-42 -27h91l19 11l16 12h-60l19 23h65l19 22h-69l11 23h73l12 23h-74l9 23h75l6 22h-77zM180 68h136q-9 4 -14 11l-9 12h-98l-11 10l-9 13h105
l-6 22h-110l-6 23h113v23h-115l1 23h116l2 22h-117l4 23h118l5 23h-118l5 22h118l5 23h-118l4 23h118l5 23h-118l5 22h118l5 23h-118l5 23h118l5 23h-118l4 22h118l5 23h-118l5 23h118l5 22h-118l5 23h118l5 23h-141l-73 -341q-4 -18 -6.5 -36t-2.5 -34q0 -32 11 -59.5
t39 -52.5z" />
    <glyph glyph-name="V" unicode="V" horiz-adv-x="753" 
d="M708 659h167l-390 -659h-218l-110 659h239l65 -445zM462 68l307 523h-28l-294 -500h-129l-4 23h92l13 22h-108l-3 23h104l-3 23h-105l-4 23h106l-4 22h-107l-3 23h106l-3 23h-106l-4 22h107l-3 23h-108l-4 23h108l-3 23h-110l-3 22h109l-3 23h-109l-4 23h110l-3 23h-110
l-5 22h111l-4 23h-111l-4 23h112l-3 22h-113l-3 23h113l-3 23h-139l87 -523h165z" />
    <glyph glyph-name="W" unicode="W" horiz-adv-x="1109" 
d="M1083 659h150l-365 -659h-196l-44 343l-190 -343h-196l-85 659h215l49 -445l239 445h143l48 -445zM849 68l287 523h-25l-276 -500h-111l-3 23h75l12 22h-89l-2 23h86l-2 23h-87l-3 23h88l-5 22h-87l-2 23h87l-2 23h-87l-4 22h89l-3 23h-89l-3 23h89l-2 23h-90l-3 22h90
l-2 23h-90l-3 23h91l-3 23h-90l-4 22h90l-2 23h-92l-3 23h93l-2 22h-84l12 23h69l-2 23h-78l-34 -62l62 -461h144zM419 68l198 364l-5 38l-206 -379h-112l-3 23h75l12 22h-89l-2 23h85l-2 23h-86l-4 23h88l-4 22h-88l-2 23h88l-2 23h-88l-4 22h89l-3 23h-89l-3 23h89l-2 23
h-90l-2 22h90l-3 23h-90l-3 23h91l-2 23h-91l-4 22h91l-2 23h-93l-2 23h92l-2 22h-93l-2 23h92l-2 23h-117l68 -523h144z" />
    <glyph glyph-name="X" unicode="X" horiz-adv-x="637" 
d="M497 366l119 -366h-241l-55 167l-148 -167h-153l259 293l-119 366h242l55 -167l148 167h152zM481 417l156 174h-27l-138 -152zM395 68h135l-7 23h-109l-7 23h109l-8 22h-109l-7 23h109l-7 23h-110l-6 23h109l-9 22h-109l-7 23h109l-8 23h-109l-6 22h109l-8 23h-109l-8 23
h109l-8 23h-109l-7 22h109l-7 23h-109l-7 23h109l-7 23h-109l-9 22h109l-7 23h-109l-7 23h109l-7 22h-110l-7 23h109l-6 23h-137zM168 68l134 150l-7 24l-156 -174h29z" />
    <glyph glyph-name="Y" unicode="Y" horiz-adv-x="684" 
d="M657 659h149l-286 -409l-53 -250h-239l53 250l-124 409h245l78 -254zM505 320l192 271h-25l-175 -246zM284 68h140l5 23h-118l5 23h118l5 22h-118l5 23h118l5 23h-118l5 23h118l4 22h-118l5 23h118l-7 23h-108l-6 22h107l-6 23h-109l-7 23h108l-6 23h-108l-7 22h108
l-7 23h-108l-7 23h108l-6 23h-109l-7 22h109l-8 23h-108l-7 23h108l-7 22h-108l-7 23h109l-6 23h-134l99 -328z" />
    <glyph glyph-name="Z" unicode="Z" horiz-adv-x="655" 
d="M647 68l-14 -68h-616l454 591h-296l14 68h584l-454 -591h328zM638 568l17 23h-137l-403 -523h139l18 23h-113l19 23h111l17 22h-112l18 23h112l18 23h-112l18 23h111l17 22h-112l18 23h111l19 23h-112l17 22h112l17 23h-112l17 23h112l18 23h-112l18 22h111l18 23h-112
l17 23h112l19 23h-113l17 22h111l18 23h-112l18 23h112l18 22h-112l17 23h112z" />
    <glyph glyph-name="bracketleft" unicode="[" horiz-adv-x="375" 
d="M346 -23l-14 -68h-306l178 841h306l-14 -68h-91l-150 -705h91zM89 -23h118l5 23h-96l5 23h96l5 22h-96l4 23h96l5 23h-96l5 23h96l5 22h-96l5 23h96l5 23h-96l5 23h96l4 22h-96l5 23h96l5 23h-96l5 22h96l5 23h-96l4 23h96l5 23h-96l5 22h96l5 23h-96l5 23h96l5 23h-96
l4 22h96l5 23h-96l5 23h96l5 22h-96l5 23h96l5 23h-96l5 23h96l4 22h-96l5 23h96l5 23h-118z" />
    <glyph glyph-name="backslash" unicode="\" horiz-adv-x="542" 
d="M397 750l102 -841h-204l-109 841h211zM326 -23h116l-2 23h-93l-3 23h93l-2 22h-93l-4 23h92l-2 23h-93l-3 23h93l-2 22h-93l-3 23h92l-2 23h-93l-2 23h92l-3 22h-93l-3 23h93l-3 23h-93l-3 22h93l-2 23h-93l-4 23h93l-3 23h-93l-3 22h93l-2 23h-94l-2 23h93l-3 23h-92
l-4 22h92l-2 23h-93l-3 23h93l-2 22h-94l-2 23h92l-3 23h-93l-2 23h93l-3 22h-93l-3 23h92l-3 23h-115z" />
    <glyph glyph-name="bracketright" unicode="]" horiz-adv-x="378" 
d="M492 750l-178 -841h-306l14 68h91l150 705h-91l14 68h306zM161 -23h119l5 23h-96l5 23h96l5 22h-96l4 23h96l5 23h-96l5 23h96l5 22h-96l5 23h96l5 23h-96l5 23h96l4 22h-96l5 23h96l5 23h-96l5 22h96l5 23h-96l4 23h96l5 23h-96l5 22h96l5 23h-96l5 23h96l5 23h-96l4 22
h96l5 23h-96l5 23h96l5 22h-96l5 23h96l5 23h-96l5 23h96l4 22h-96l5 23h96l5 23h-119z" />
    <glyph glyph-name="asciicircum" unicode="^" horiz-adv-x="456" 
d="M407 693l126 -108l-30 -40l-146 68l-175 -68l-13 40l172 108h66z" />
    <glyph glyph-name="underscore" unicode="_" horiz-adv-x="553" 
d="M551 -45l-9 -46h-561l9 46h561z" />
    <glyph glyph-name="grave" unicode="`" horiz-adv-x="316" 
d="M268 715l131 -130l-30 -40l-191 82q-3 1 2.5 13t17.5 27t30 28.5t40 19.5z" />
    <glyph glyph-name="a" unicode="a" horiz-adv-x="551" 
d="M567 295l-63 -295q-17 -14 -59 -14q-41 0 -65 13.5t-45 40.5q-37 -30 -68 -42t-73 -12q-70 0 -111 35q-33 30 -33 76q0 7 1 15.5t3 16.5q19 85 118 130q81 36 188 36q6 27 6 49q0 34 -17 52.5t-56 18.5q-37 0 -65 -11q-11 -4 -22.5 -10.5t-22.5 -15.5l-18 43q52 37 95 51
q57 19 143 19q84 0 127 -39t43 -106q0 -24 -6 -51zM471 68l5 23q-11 1 -28 2t-38 16l-5 5h76l5 22h-89l2 23h92l5 23h-92l5 23h92l4 22h-92l5 23h92l5 23h-92l5 22h91l4 23h-91v23h90l-3 23h-87l-5 22h83l-10 13l-14 10h-101q7 -7 9 -10q9 -11 12.5 -27t3.5 -33
q0 -27 -6 -54l-28 -130q-3 -13 -3 -24q0 -31 29 -49q16 -10 34 -12t35 -2zM319 105l26 122q-41 0 -68.5 -31.5t-35.5 -70.5q-6 -27 2.5 -42t27.5 -15t31.5 8.5t16.5 28.5zM238 205l21 22q-60 0 -104 -26t-54 -72q-1 -6 -1.5 -11.5t-0.5 -9.5q0 -10 2.5 -19.5t7.5 -20.5h93
q-3 0 -3.5 9t-3.5 14h-71l-4 23h75l5 22h-76l6 12l8 11h71l13 23h-57l29 13q9 4 21.5 6t22.5 4z" />
    <glyph glyph-name="b" unicode="b" horiz-adv-x="618" 
d="M639 232q-23 -105 -98 -173q-84 -73 -199 -73q-27 0 -53.5 17.5t-35.5 35.5q-31 -25 -67.5 -39t-79.5 -14q-33 0 -48 7q-8 2 -13 7l140 659h215l-42 -200q22 14 47 23t59 9q86 0 134.5 -50.5t48.5 -136.5q0 -17 -2 -34.5t-6 -37.5zM489 205h97l4 22h-97l5 23h97l4 23h-96
l3 22h94v23h-91v23h87l-8 23h-79l-2 22h69l-13 13l-14 10h-79q17 -24 17 -67q0 -23 -4.5 -52t-11.5 -63q-18 -87 -49 -140q-5 -9 -14 -19h73l18 11l14 12h-66l12 23h77l18 22h-86l8 23h91l10 23h-94zM431 227q14 65 14 108q0 74 -37 74q-29 0 -55.5 -49.5t-44.5 -132.5
q-11 -55 -11 -89q0 -70 38 -70q27 0 53.5 42.5t42.5 116.5zM109 68h119l5 23h-96l5 23h96l5 22h-96l5 23h96l5 23h-96l5 23h96l4 22h-96l5 23h96l5 23h-96l5 22h96l5 23h-96l4 23h96l5 23h-96l5 22h96l5 23h-96l5 23h96l5 23h-96l4 22h96l5 23h-96l5 23h96l5 22h-96l5 23h96
l5 23h-119z" />
    <glyph glyph-name="c" unicode="c" horiz-adv-x="527" 
d="M506 100l13 -37q-55 -41 -108.5 -59t-127.5 -18q-109 0 -168 62q-45 50 -45 123q0 29 8 67q25 120 136 190q98 63 213 63q58 0 95.5 -17.5t56.5 -48.5l-31 -36q-9 12 -31.5 16t-51.5 4q-34 0 -64 -13.5t-54 -36.5t-40.5 -54t-24.5 -67q-3 -12 -4 -24t-1 -23
q0 -57 31.5 -90t83.5 -33q42 0 69 8t45 24zM340 399l20 10h-104q-38 -21 -57 -39q-61 -56 -80 -143q-6 -27 -6 -50q0 -64 50 -109h103l-16 23h-76l-19 23h85l-6 22h-90l-6 23h93l-1 23h-93l2 23h92l2 22h-91l6 23h90l7 23h-90l12 22h88l13 23h-87l17 23h83l20 23h-78l15 11
l19 11h65z" />
    <glyph glyph-name="d" unicode="d" horiz-adv-x="624" 
d="M712 659l-140 -659q-24 -14 -67 -14t-73.5 14t-51.5 39q-8 -8 -21 -17.5t-29 -17.5t-32 -13t-29 -5q-117 0 -167 73q-33 47 -33 111q0 31 7 62q12 56 40 103.5t66.5 82t84.5 54t94 19.5q71 0 95 -23l41 191h215zM478 227h95h-95l5 23h95l5 23h-95l5 22h95l5 23h-95l4 23
h95l5 23h-95l5 22h95l5 23h-95l5 23h95l5 23h-95l4 22h95l5 23h-95l5 23h95l5 22h-95l5 23h95l5 23h-118l-93 -436q-5 -24 2 -40.5t22 -27t34.5 -15t40.5 -4.5l5 23q-13 1 -30.5 2t-37.5 16q-1 1 -2.5 2t-3.5 3h79l5 22h-92l2 23h95l5 23h-95l5 23h95l4 22h-95zM405 227
q6 30 9.5 56t3.5 48q0 37 -9.5 57.5t-28.5 20.5q-32 0 -55.5 -48.5t-41.5 -133.5q-6 -27 -8.5 -50t-2.5 -42q0 -67 35 -67q65 0 98 159zM159 68h79l-8 23h-60l-20 23h78l-1 22h-87l-6 23h94l2 23h-96l1 23h99l3 22h-99l6 23h98l7 23h-98l10 22h95l8 23h-91l16 23h83l10 23
h-70l14 11l17 11h52l16 23h-73q-52 -31 -81.5 -76t-42.5 -106q-6 -27 -6 -50q0 -64 51 -109z" />
    <glyph glyph-name="e" unicode="e" horiz-adv-x="555" 
d="M573 227h-290q-6 -29 -6 -53q0 -32 10 -55q23 -51 88 -51q41 0 70 7t51 25l14 -37q-48 -38 -103 -57.5t-126 -19.5q-100 0 -156 52t-56 135q0 26 6 53q13 62 41.5 111t69.5 83t92.5 52.5t109.5 18.5q124 0 171 -83q23 -40 23 -100q0 -38 -9 -81zM434 295h100l-1 23h-72
v23h67l-7 23h-60l-3 22h52l-8 12l-11 11h-69q6 -10 7 -14q10 -28 7 -67zM298 295h96q2 9 3 20.5t1 24.5q0 26 -6 47.5t-20 21.5q-12 0 -23.5 -11t-21.5 -27.5t-17.5 -37t-11.5 -38.5zM163 68h100l-14 23h-75l-19 23h86l-5 22h-92l-6 23h97v23h-98l2 23h100l3 22h-100l6 23
h99l6 23h-97l11 22h92l7 23h-88l16 23h80l9 23h-69l31 22h51l16 23h-71q-52 -33 -80.5 -78t-41.5 -104q-3 -13 -4 -25.5t-1 -23.5q0 -43 18 -74q8 -15 31 -36z" />
    <glyph glyph-name="f" unicode="f" horiz-adv-x="362" 
d="M562 685l-31 -49q-28 0 -56 -14t-51.5 -38t-41 -55t-24.5 -64l-17 -79h77l-14 -68h-77l-68 -318h-214l97 454q23 111 110.5 176t221.5 65q25 0 43.5 -1.5t44.5 -8.5zM418 626l20 10h-95q-42 -19 -63 -35q-68 -53 -88 -146l-83 -387h116l5 23h-93l5 23h93l5 22h-93l5 23
h93l5 23h-93l5 23h93l4 22h-93l5 23h94l5 23h-94l5 22h94l5 23h-94l4 23h94l5 23h-94l5 22h94l5 23h-93l5 23h93l5 23h-94l5 22h93l5 23h-90l11 23h88l14 22h-88l19 23h84l19 23h-75l19 13l22 10h60z" />
    <glyph glyph-name="g" unicode="g" horiz-adv-x="620" 
d="M673 477l-98 -464q-11 -53 -42.5 -90.5t-75.5 -62.5t-97 -39t-107 -20l-9 43q54 21 76 53.5t34 89.5l7 31q-22 -14 -47.5 -23t-59.5 -9q-94 0 -141 42.5t-47 122.5q0 34 9 76q24 109 102 182q86 82 199 82q31 0 57 -13t33 -34q30 22 66 34.5t80 12.5q31 0 49 -6
q8 -4 12 -8zM434 23h93l5 22h-93l4 23h93l5 23h-93l5 23h93l5 22h-93l5 23h93l5 23h-93l5 23h93l4 22h-93l5 23h93l5 23h-93l5 22h93l5 23h-93l4 23h93l5 23h-93q2 0 6.5 3.5l4.5 3.5q24 12 42 13t45 2l5 23h-11q-14 -1 -45 -4t-67 -29l-83 -391q-4 -18 -13.5 -48t-19.5 -45
q-3 -3 -5 -6h51q8 4 18 10t19 13h-49l9 23h65l10 11l8 12h-77l5 22h86l9 23h-90zM405 227q7 31 10 58.5t3 49.5q0 74 -36 74q-28 0 -55 -51t-44 -131q-12 -57 -12 -94q0 -65 38 -65q63 0 96 159zM297 386l15 23h-75q-49 -31 -79.5 -81t-42.5 -105q-4 -19 -6 -36.5t-2 -32.5
q0 -54 31 -86h98l-7 23h-79l-12 23h89l-1 22h-93l-3 23h97l2 23h-96l2 23h98l3 22h-97l6 23h97l6 23h-95l11 22h92l8 23h-87l16 23h80l11 23h-71l28 22h56z" />
    <glyph glyph-name="h" unicode="h" horiz-adv-x="611" 
d="M629 305l-65 -305h-216l66 310q3 15 3 28q0 38 -33 38q-23 0 -37.5 -18t-23.5 -61l-63 -297h-215l140 659h215l-44 -208q26 19 62 29.5t66 10.5q67 0 108.5 -39t41.5 -104q0 -18 -5 -43zM408 68h118l5 23h-96l5 23h96l5 22h-96l5 23h96l5 23h-96l5 23h96l4 22h-96l5 23
h96l5 23h-96l5 22h96l4 23h-96v23h97l-2 23h-96l-5 22h94q0 1 -6.5 9.5t-7.5 13.5h-122q7 -7 9 -10q17 -25 17 -63q0 -24 -6 -51zM109 68h119l5 23h-96l5 23h96l5 22h-96l5 23h96l5 23h-96l5 23h96l4 22h-96l5 23h96l5 23h-96l5 22h96l5 23h-96l4 23h96l5 23h-96l5 22h96
l5 23h-96l5 23h96l5 23h-96l4 22h96l5 23h-96l5 23h96l5 22h-96l5 23h96l5 23h-119z" />
    <glyph glyph-name="i" unicode="i" horiz-adv-x="309" 
d="M404 647q-5 -24 -18.5 -44.5t-32 -35.5t-40.5 -24t-46 -9q-41 0 -67 25.5t-26 63.5q0 12 3 24q5 24 18 44.5t32 36t41.5 24.5t46.5 9q41 0 66 -25.5t25 -64.5v-12t-2 -12zM361 477l-101 -477h-215l92 432q29 26 73.5 42.5t89.5 16.5q33 0 49 -6q7 -3 12 -8zM351 636h-101
l1 11l4 12h101q1 11 -4 23h-109q-6 -8 -10.5 -16.5t-6.5 -18.5q-4 -16 3 -33h109q8 8 13 22zM109 68h116l5 23h-93l5 23h93l5 22h-93l5 23h93l5 23h-93l5 23h93l4 22h-93l5 23h93l5 23h-93l5 22h93l5 23h-93l4 23h93l5 23h-93q2 0 6.5 3.5l4.5 3.5q24 12 42 13t45 2l5 23
h-11q-14 -1 -45 -4t-67 -29z" />
    <glyph glyph-name="j" unicode="j" horiz-adv-x="309" 
d="M404 647q-5 -24 -18.5 -44.5t-32 -35.5t-40.5 -24t-46 -9q-41 0 -67 25.5t-26 63.5q0 12 3 24q5 24 18 44.5t32 36t41.5 24.5t46.5 9q41 0 66 -25.5t25 -64.5v-12t-2 -12zM361 477l-98 -464q-11 -53 -42.5 -90.5t-75 -62.5t-96.5 -39t-107 -20l-10 43q22 8 42.5 22
t33.5 32q22 29 34 89l95 445q29 26 73.5 42.5t89.5 16.5q33 0 49 -6q7 -3 12 -8zM351 636h-101l1 11l4 12h101q1 11 -4 23h-109q-6 -8 -10.5 -16.5t-6.5 -18.5q-4 -16 3 -33h109q8 8 13 22zM123 23h93l5 22h-93l4 23h93l5 23h-93l5 23h93l5 22h-93l5 23h93l5 23h-93l5 23h93
l4 22h-93l5 23h93l5 23h-93l5 22h93l5 23h-93l4 23h93l5 23h-93q2 0 6.5 3.5l4.5 3.5q24 12 42 13t45 2l5 23h-11q-14 -1 -45 -4t-67 -29l-83 -391q-6 -29 -14.5 -56t-17.5 -37q-3 -3 -5 -6h40q5 0 19 8.5t21 14.5h-42l9 23h60l21 23h-75l5 22h86l11 23h-92z" />
    <glyph glyph-name="k" unicode="k" horiz-adv-x="600" 
d="M473 281l109 -281h-227l-60 165l-35 -165h-215l140 659h215l-80 -378l192 196h148zM388 68h110l-9 23h-83l-7 23h81l-8 22h-81l-8 23h80l-9 23h-79l-8 23h78l-10 22h-74l174 182h-31l-173 -182zM109 68h119l5 23h-96l5 23h96l5 22h-96l5 23h96l5 23h-96l5 23h96l4 22h-96
l5 23h96l5 23h-96l5 22h96l5 23h-96l4 23h96l5 23h-96l5 22h96l5 23h-96l5 23h96l5 23h-96l4 22h96l5 23h-96l5 23h96l5 22h-96l5 23h96l5 23h-119z" />
    <glyph glyph-name="l" unicode="l" horiz-adv-x="309" 
d="M400 659l-140 -659h-215l140 659h215zM109 68h118l5 23h-96l5 23h96l5 22h-96l5 23h96l5 23h-96l5 23h96l4 22h-96l5 23h96l5 23h-96l5 22h96l5 23h-96l4 23h96l5 23h-96l5 22h96l5 23h-96l5 23h96l5 23h-96l4 22h96l5 23h-96l5 23h96l5 22h-96l5 23h96l5 23h-118z" />
    <glyph glyph-name="m" unicode="m" horiz-adv-x="864" 
d="M887 328l-70 -328h-199l66 310q3 15 3 28q0 38 -33 38q-22 0 -37 -18t-24 -61l-63 -297h-198l66 310q3 15 3 27q0 39 -34 39q-23 0 -37 -18t-23 -61l-63 -297h-199l101 477q2 5 26.5 9.5t40.5 4.5q36 0 64.5 -11.5t57.5 -34.5q19 17 57 31.5t76 14.5q47 0 77 -12.5
t45 -41.5q34 25 77 39.5t87 14.5q74 0 110 -38q28 -29 28 -79q0 -18 -5 -46zM679 68h105l5 23h-82l5 23h82l5 22h-82l5 23h82l5 23h-82l5 23h82l4 22h-82l5 23h82l5 23h-82l5 22h82l5 23h-84l1 23h87l1 23h-89l-5 22h92q0 7 -2 11.5t-6 11.5h-126q26 -25 26 -67
q0 -13 -2 -26.5t-5 -30.5zM391 68h105l5 23h-82l5 23h82l5 22h-82l5 23h82l5 23h-82l5 23h82l4 22h-82l5 23h82l5 23h-82l5 22h81l3 23h-81l1 23h80l-1 23h-80l-5 22h81l-8 13l-13 10h-102q14 -13 20 -30.5t6 -37.5q0 -13 -2 -27t-5 -29zM109 68h102l5 23h-79l5 23h79l5 22
h-79l5 23h79l5 23h-79l5 23h79l4 22h-79l5 23h79l5 23h-79l5 22h79l5 23h-79l4 23h79l5 23h-79l5 22h79q-2 0 -5.5 3t-4.5 3q-17 10 -34 13.5t-39 3.5h-14z" />
    <glyph glyph-name="n" unicode="n" horiz-adv-x="613" 
d="M634 328l-70 -328h-216l66 310q3 15 3 28q0 38 -33 38q-23 0 -37.5 -18t-23.5 -61l-63 -297h-215l101 477q1 3 8.5 5.5t18 4.5t22 3t18.5 1q39 0 76.5 -17.5t49.5 -35.5q37 27 71 40t74 13q81 0 121 -38q33 -31 33 -84q0 -22 -4 -41zM411 68h118l5 23h-95l5 23h95l5 22
h-95l5 23h95l5 23h-95l5 23h95l4 22h-95l5 23h95l5 23h-95l5 22h95l5 23h-97l1 23h100l1 23h-102l-5 22h104q-1 6 -4 11.5t-8 11.5h-134q14 -13 20 -30.5t6 -37.5q0 -13 -2 -27t-5 -29zM109 68h119l5 23h-96l5 23h96l5 22h-96l5 23h96l5 23h-96l5 23h96l4 22h-96l5 23h96
l5 23h-96l5 22h96l5 23h-96l4 23h96l5 23h-96l5 22h86q-9 0 -25.5 8t-19.5 10q-23 5 -45 5h-14z" />
    <glyph glyph-name="o" unicode="o" horiz-adv-x="593" 
d="M614 232q-11 -51 -40 -96t-71.5 -78.5t-96 -52.5t-113.5 -19q-51 0 -92 15t-70 41.5t-44.5 62.5t-15.5 78q0 12 1 24t4 25q12 57 42.5 104.5t73.5 82t96.5 53.5t111.5 19q101 0 161 -54t60 -144q0 -14 -1.5 -29.5t-5.5 -31.5zM465 205h96l4 22h-96l5 23h96l4 23h-96l3 22
h94l-1 23h-90l1 23h84l-7 23h-78l-2 22h66l-12 13l-14 10h-77q17 -25 17 -67q0 -23 -4 -52t-12 -63q-18 -90 -49 -140q-2 -4 -5.5 -9t-8.5 -10h72l17 11l14 12h-63l11 23h75l18 22h-83l7 23h91l11 23h-95zM406 227q14 65 14 108q0 74 -37 74q-29 0 -56 -51t-44 -131
q-11 -52 -11 -86q0 -35 10 -54t28 -19q28 0 54 42.5t42 116.5zM303 386l20 23h-69q-55 -25 -85 -71t-44 -111q-5 -28 -5 -48q0 -33 12 -59.5t36 -51.5h71l-5 23h-55l-17 23h70v22h-80l-6 23h87l3 23h-92l1 23h94l4 22h-95l6 23h94l6 23h-93l8 22h92l9 23h-88l15 23h80l12 23
h-70l17 12l17 10h50z" />
    <glyph glyph-name="p" unicode="p" horiz-adv-x="618" 
d="M637 223q-20 -92 -91 -159q-82 -78 -193 -78q-29 0 -49 9.5t-39 27.5l-44 -205h-215l140 659q1 3 8 5.5t17.5 4.5t21.5 3t20 1q37 0 69.5 -13.5t55.5 -35.5q22 23 56.5 36t65.5 13q122 0 165 -87q22 -46 22 -100q0 -19 -2.5 -39t-7.5 -42zM489 205h97l4 22h-97l5 23h97
l4 23h-96l3 22h94v23h-91v23h87l-8 23h-79l-2 22h69l-13 13l-14 10h-79q17 -24 17 -67q0 -23 -4.5 -52t-11.5 -63q-18 -87 -49 -140q-5 -9 -14 -19h73l18 11l14 12h-66l12 23h77l18 22h-86l8 23h91l10 23h-94zM431 227q14 65 14 109q0 34 -9 53.5t-28 19.5q-29 0 -56 -50.5
t-44 -131.5q-6 -27 -8.5 -49.5t-2.5 -40.5q0 -69 38 -69q26 0 53 41t43 118zM71 -114h119l5 23h-96l5 23h96l4 23h-96l5 22h96l5 23h-96l5 23h96l5 22h-96l4 23h96l5 23h-96l5 23h96l5 22h-96l5 23h96l5 23h-96l5 23h96l4 22h-96l5 23h96l5 23h-96l5 22h96l5 23h-96l4 23h96
l5 23h-96l5 22h85q-3 0 -5.5 2t-3.5 2q-17 8 -27.5 11t-18.5 4.5t-14.5 2t-15.5 1.5h-18z" />
    <glyph glyph-name="q" unicode="q" horiz-adv-x="618" 
d="M672 477l-140 -659h-215l44 205q-27 -19 -49 -28t-48 -9q-116 0 -165 78q-29 47 -29 107q0 33 7 64q11 50 36 93.5t62 80.5q85 82 192 82q28 0 57.5 -11.5t42.5 -37.5q29 21 69 35t75 14q33 0 49 -6q7 -3 12 -8zM378 -114h115l5 23h-92l5 23h92l4 23h-92l5 22h92l5 23
h-92l5 23h92l5 22h-92l4 23h92l5 23h-92l5 23h92l5 22h-92l5 23h92l5 23h-92l5 23h92l4 22h-92l5 23h92l5 23h-92l5 22h92l5 23h-92l4 23h92l5 23h-92q1 0 5.5 3t5.5 4q23 12 41 13t45 2l5 23h-11q-5 0 -17 -0.5t-28 -3.5t-33 -9.5t-33 -19.5zM405 227q13 59 13 105
q0 36 -10 56.5t-29 20.5q-30 0 -54.5 -50t-41.5 -132q-11 -57 -11 -91q0 -68 34 -68q66 0 99 159zM162 68h79l-7 23h-60l-20 23h77v22h-87l-7 23h94l3 23h-98l2 23h100l3 22h-100l6 23h99l7 23h-100l10 22h96l9 23h-92l14 23h86l10 23h-75l27 22h60l16 23h-80
q-49 -34 -76.5 -80t-39.5 -102q-6 -27 -6 -49q0 -34 12.5 -60.5t37.5 -49.5z" />
    <glyph glyph-name="r" unicode="r" horiz-adv-x="482" 
d="M559 455l-62 -69q-7 17 -23.5 24t-37.5 7q-48 0 -74 -30t-38 -86l-64 -301h-215l101 477q1 3 8.5 5.5t18 4.5t22 3t18.5 1q39 0 76.5 -17.5t49.5 -35.5q37 27 71 40t74 13q22 0 42 -10t33 -26zM109 68h119l5 23h-96l5 23h96l5 22h-96l5 23h96l5 23h-96l5 23h96l4 22h-96
l5 23h96l5 23h-96l5 22h96l5 23h-96l4 23h96l5 23h-96l5 22h86q-9 0 -25.5 8t-19.5 10q-23 5 -45 5h-14z" />
    <glyph glyph-name="s" unicode="s" horiz-adv-x="444" 
d="M450 152q-16 -76 -87.5 -121t-173.5 -45q-53 0 -92.5 13.5t-62.5 46.5l22 41q29 -19 58 -29t63 -10q32 0 53.5 12t27.5 41q3 12 -15 31t-41.5 37.5t-45.5 33.5t-26 20q-34 37 -34 87q0 15 3 31q7 34 29 62t53.5 47.5t70 30t79.5 10.5q121 0 161 -60l-32 -33
q-12 15 -40.5 23.5t-61.5 8.5q-31 0 -54 -10t-28 -36q-3 -12 17 -29.5t46 -35t49.5 -31.5t27.5 -19q37 -37 37 -86q0 -15 -3 -31zM324 159h79l1 23h-94l-26 23h115l-16 22h-137l-37 23h150l-36 23h-136l-12 22h107l-31 23h-79l1 23h60l-4 12l-2 11h-45q3 7 16 22h31
q7 17 12 23h-47q-38 -33 -45 -71q-3 -10 -3 -22q0 -45 36 -73q20 -17 43 -30t43 -29q47 -36 36 -86q-5 -21 -14 -30h58l26 23h-50l5 23h59l9 22h-67z" />
    <glyph glyph-name="t" unicode="t" horiz-adv-x="416" 
d="M408 55l-39 -69q-116 0 -176 49t-60 134q0 28 6 59l39 181h-64l14 68h64l39 182h214l-39 -182h67l-14 -68h-67l-41 -192q-5 -25 -5 -44q0 -37 15 -68t47 -50zM234 68h88l-12 23h-66l-19 23h78l-3 22h-86l-5 23h89l1 23h-91l1 23h92l4 22h-92l5 23h92l5 23h-93l5 22h93
l5 23h-93l4 23h93l5 23h-93l5 22h93l5 23h-93l5 23h92l5 23h-92l4 22h92l5 23h-92l5 23h92l5 22h-92l5 23h92l5 23h-115l-79 -369q-2 -12 -3.5 -23t-1.5 -22q0 -74 51 -109z" />
    <glyph glyph-name="u" unicode="u" horiz-adv-x="620" 
d="M668 477l-101 -477q-13 -8 -30 -11t-36 -3q-39 0 -76.5 17.5t-50.5 35.5q-68 -53 -144 -53q-81 0 -123 39q-35 32 -35 83q0 10 1.5 20t3.5 21l69 328h214l-72 -341q-3 -15 -3 -27q0 -41 38 -41q44 0 59 68l72 341h214zM534 68l5 23q-13 1 -31 2t-38 16l-5 5h79l5 22h-93
l3 23h95l5 23h-95l5 23h95l4 22h-95l5 23h95l5 23h-95l5 22h95l5 23h-95l4 23h95l5 23h-95l5 22h95l5 23h-118l-54 -254q-1 -5 -1.5 -10t-0.5 -10q0 -35 31 -53q17 -10 35.5 -12t34.5 -2zM225 68h11l-2 23q-15 1 -34.5 2t-38.5 16l-5 5h80l4 22h-93l2 23h96l5 23h-96l5 23
h96l4 22h-96l5 23h96l5 23h-96l5 22h96l5 23h-96l4 23h96l5 23h-96l5 22h96l5 23h-118l-54 -254q-9 -41 18 -64t69 -23h12z" />
    <glyph glyph-name="v" unicode="v" horiz-adv-x="576" 
d="M536 477h125l-271 -477h-205l-66 477h213l40 -287zM379 68l193 341h-25l-181 -318h-117l-2 23h81l-4 22h-80l-4 23h82l-3 23h-82l-3 23h82l-4 22h-81l-3 23h81l-3 23h-82l-3 22h82l-3 23h-81l-4 23h82l-4 23h-81l-4 22h83l-3 23h-107l46 -341h152z" />
    <glyph glyph-name="w" unicode="w" horiz-adv-x="849" 
d="M819 477h113l-254 -477h-184l-23 223l-119 -223h-185l-50 477h192l31 -287l154 287h143l29 -287zM669 68l183 341h-24l-169 -318h-105l-2 23h73l-2 22h-74l-2 23h73l-2 23h-74l-2 23h74l-3 22h-73l-2 23h73l-2 23h-74l-2 22h74l-3 23h-73l-4 23h74l-2 23h-74l-2 22h74
l-2 23h-96l34 -341h136zM343 68l122 227l-5 35l-127 -239h-106l-1 23h73l-3 22h-72l-3 23h74l-3 23h-74l-2 23h73l-3 22h-73l-2 23h74l-2 23h-74l-2 22h73l-2 23h-73l-3 23h74l-4 23h-73l-2 22h74l-2 23h-97l35 -341h136z" />
    <glyph glyph-name="x" unicode="x" horiz-adv-x="545" 
d="M417 263l111 -263h-205l-50 117l-117 -117h-138l213 215l-112 262h207l49 -117l116 117h138zM400 300l109 109h-30l-88 -88zM341 68h108l-10 23h-81l-9 23h80l-8 22h-82l-10 23h81l-9 23h-80l-10 23h81l-10 22h-82l-9 23h81l-9 23h-81l-11 22h82l-10 23h-81l-10 23h81
l-11 23h-80l-9 22h81l-10 23h-107zM169 68l88 87l-10 21l-108 -108h30z" />
    <glyph glyph-name="y" unicode="y" horiz-adv-x="575" 
d="M533 477h129l-431 -659h-129l116 178l-100 481h209l51 -237zM223 -114l342 523h-25l-342 -523h25zM325 159l16 23h-89l-5 23h91l-6 22h-90l-5 23h91l-5 23h-91l-4 22h90l-5 23h-90l-6 23h91l-5 23h-90l-5 22h91l-5 23h-115l70 -341h16l15 23h-11l-4 23h30l15 22h-50
l-4 23h69z" />
    <glyph glyph-name="z" unicode="z" horiz-adv-x="538" 
d="M138 477h489l-331 -409h230l-14 -68h-493l333 409h-228zM497 386l18 23h-112l-276 -341h112l18 23h-84l18 23h85l18 22h-84l19 23h84l19 23h-85l19 23h83l19 22h-85l18 23h85l18 23h-84l18 22h85l19 23h-85l19 23h83l19 23h-85l19 22h85z" />
    <glyph glyph-name="braceleft" unicode="{" horiz-adv-x="364" 
d="M328 -23l-14 -68h-76q-66 0 -108 36q-35 30 -35 73q0 14 3 27l43 202q6 29 -5.5 51.5t-38.5 30.5q31 9 51.5 30t26.5 52l44 203q12 60 75 101q56 35 122 35h76l-14 -67h-24q-30 0 -50 -18.5t-27 -49.5l-40 -186q-9 -43 -27 -67.5t-40 -32.5q30 -13 30 -58
q0 -9 -1.5 -19.5t-3.5 -22.5l-39 -184q-3 -12 -3 -22q0 -46 51 -46h24zM350 672l-14 13q-20 -21 -34.5 -44.5t-19.5 -49.5l-39 -180q-8 -41 -23 -56q-7 -11 -16.5 -17t-19.5 -9q16 -8 22.5 -19.5t6.5 -27.5t-4 -35l-38 -175q-2 -10 -4 -20.5t-2 -23.5q0 -25 12 -48l20 13
l-8 24q-3 9 -0.5 24.5t5.5 30.5l38 175q8 37 5 58q-4 13 -2 21.5t7 18t11.5 24.5t12.5 42l36 169q6 26 17.5 48t30.5 44z" />
    <glyph glyph-name="bar" unicode="|" horiz-adv-x="253" 
d="M360 727l-184 -863h-160l184 863h160zM100 -68h22l154 727h-22z" />
    <glyph glyph-name="braceright" unicode="}" horiz-adv-x="349" 
d="M403 329q-65 -19 -78 -82l-43 -202q-13 -60 -76 -100q-57 -36 -122 -36h-76l14 68h24q30 0 50.5 18.5t27.5 49.5l39 184q9 43 27 67.5t40 32.5q-30 11 -30 58q0 9 1.5 19.5t3.5 22.5l40 186q1 5 1.5 11t0.5 10q0 47 -51 47h-24l14 67h76q32 0 60 -8.5t48 -26.5
q36 -31 36 -76q0 -11 -3 -25l-44 -203q-6 -30 5.5 -52t38.5 -30zM316 329q-29 13 -29 46q0 17 4 36l39 180q3 15 3 29q0 36 -17 65l-20 -13q4 -15 8 -19q6 -18 6 -31q0 -14 -6 -42l-36 -169q-6 -29 -6 -44q0 -17 9 -32q2 -4 5 -6q-7 -4 -14 -12t-9 -12q-11 -21 -19 -58
l-38 -175q-3 -14 -6.5 -29t-10.5 -26l-18 -24l14 -13q19 20 28.5 42t15.5 50l38 175q3 15 7 28t11 23q7 12 16 18.5t25 12.5z" />
    <glyph glyph-name="asciitilde" unicode="~" horiz-adv-x="466" 
d="M444 396l32 -13q-21 -39 -52 -63.5t-72 -24.5q-12 0 -29 3.5t-34.5 7.5t-33.5 7.5t-26 3.5q-39 0 -56 -18l-30 19q42 77 124 77q11 0 30.5 -3.5t38 -8t33 -8t16.5 -3.5q19 0 35 7t24 17z" />
    <glyph glyph-name="nonbreakingspace" unicode="&#xa0;" horiz-adv-x="549" 
 />
    <glyph glyph-name="exclamdown" unicode="&#xa1;" horiz-adv-x="304" 
d="M339 445q-8 -37 -40.5 -63.5t-70.5 -26.5t-58.5 26.5t-12.5 63.5q7 38 39.5 64.5t70.5 26.5t58.5 -26.5t13.5 -64.5zM281 318l-40 -409q-29 -26 -73.5 -42.5t-90.5 -16.5q-30 0 -49 6q-2 2 -5.5 3.5t-6.5 4.5l144 454h121zM267 445q3 19 -15 19q-8 0 -15 -6t-8 -13
q-2 -7 2.5 -13t12.5 -6t14.5 6t8.5 13zM81 -68h120l1 23h-93l8 22h86l2 23h-81l7 23h78l2 22h-73l7 23h67l2 23h-62l7 23h58l2 22h-52l7 23h47l3 23h-42l7 23h38l1 22h-33l7 23h28l3 23h-46z" />
    <glyph glyph-name="cent" unicode="&#xa2;" horiz-adv-x="527" 
d="M545 283l13 -38q-53 -40 -99.5 -57.5t-108.5 -17.5l-17 -79h-69l18 81q-93 12 -138 73q-35 46 -35 112q0 32 7 64q22 97 102 164q75 61 168 80l18 81h69l-16 -72h9q52 0 92.5 -18.5t59.5 -48.5l-31 -35q-9 12 -31.5 16t-51.5 4q-34 0 -64.5 -13.5t-54.5 -37t-40.5 -54.5
t-24.5 -66q-2 -12 -3.5 -23.5t-1.5 -21.5q0 -57 31.5 -91t84.5 -34q42 0 69 8t45 24zM379 582l20 10h-104q-37 -21 -57 -39q-62 -56 -80 -143q-6 -28 -6 -51q0 -62 50 -108h103l-16 23h-76l-19 22h85l-6 23h-90l-6 23h93l-1 23h-93l1 22h92l3 23h-91l6 23h90l7 22h-90l12 23
h88l12 23h-87l18 23h83l20 22h-78l14 11l20 12h65z" />
    <glyph glyph-name="sterling" unicode="&#xa3;" horiz-adv-x="573" 
d="M559 68l-14 -68h-518l14 68h82l54 250h-82l14 68h82l18 83q19 94 111 151q85 53 197 53q105 0 163 -37l-41 -60q-39 15 -87 15q-43 0 -68.5 -37.5t-36.5 -89.5l-17 -78h84l-14 -68h-84l-54 -250h197zM428 568l18 23h-107q-18 -13 -32.5 -25t-25.5 -27q-23 -30 -30 -70
l-86 -401h140l5 23h-118l5 23h118l5 22h-118l5 23h118l5 23h-118l5 23h118l4 22h-118l5 23h118l5 23h-118l5 22h118l5 23h-118l4 23h118l5 23h-118l5 22h118l5 23h-118l5 23h118l5 23h-118l4 22h118l7 23h-118l13 23h112l10 22h-104l11 12l15 11h90z" />
    <glyph glyph-name="currency" unicode="&#xa4;" horiz-adv-x="622" 
d="M652 323q-19 -88 -92 -156l41 -52l-58 -49l-44 56q-77 -45 -169 -45q-90 0 -149 46l-69 -57l-38 49l64 52q-29 45 -29 105q0 12 1 25t4 26q21 98 94 168l-42 54l58 49l45 -58q79 46 169 46t148 -46l69 58l38 -49l-65 -53q31 -50 31 -109q0 -14 -2 -29t-5 -31zM501 295h97
l5 23h-97l4 23h97l4 23h-97l3 22h94v23h-90l1 23h85l-8 23h-77l-4 22h67l-13 13l-14 10h-77q12 -14 13 -32q3 -16 3 -38q0 -42 -14 -112q-20 -91 -49 -140q-2 -4 -6 -9l-8 -10h72l17 11l15 12h-64l11 23h76l16 22h-83l8 23h90l11 23h-95zM443 318q7 32 10 59t3 49
q0 74 -36 74q-29 0 -56.5 -51t-43.5 -131q-11 -52 -11 -86q0 -73 39 -73q27 0 53 42.5t42 116.5zM339 477l21 23h-69q-32 -15 -52 -33q-57 -54 -76 -149q-6 -27 -6 -51q0 -61 48 -108h72l-6 23h-55l-17 23h70l-1 22h-80l-6 23h87l4 23h-92v22h95l5 23h-96l5 23h95l6 23h-94
l9 22h91l9 23h-88l16 23h81l11 23h-70l33 22h50z" />
    <glyph glyph-name="yen" unicode="&#xa5;" horiz-adv-x="684" 
d="M655 659h150l-191 -273h77l-14 -68h-111l-48 -68h144l-14 -68h-144l-39 -182h-239l39 182h-149l14 68h149l-20 68h-114l14 68h78l-82 273h245l78 -254zM503 320l192 271h-24l-176 -246zM282 68h140l5 23h-118l5 23h118l5 22h-118l5 23h118l5 23h-118l5 23h118l4 22h-118
l5 23h118l-7 23h-108l-6 22h108l-7 23h-108l-8 23h108l-6 23h-108l-7 22h108l-7 23h-108l-7 23h109l-7 23h-108l-8 22h109l-8 23h-108l-7 23h108l-7 22h-108l-7 23h110l-7 23h-134l99 -328z" />
    <glyph glyph-name="brokenbar" unicode="&#xa6;" horiz-adv-x="249" 
d="M360 727l-89 -415h-160l89 415h160zM258 250l-88 -415h-160l88 415h160zM195 380h22l59 279h-22zM93 -97h22l60 279h-22z" />
    <glyph glyph-name="section" unicode="&#xa7;" horiz-adv-x="527" 
d="M568 326q-13 -62 -65 -103t-131 -51q20 -17 31 -38t11 -48q0 -16 -4 -32q-8 -36 -29.5 -65.5t-54.5 -50.5t-74.5 -32t-89.5 -11q-50 0 -88 13.5t-60 44.5l21 39q53 -37 115 -37q31 0 52.5 11.5t27.5 38.5q3 12 -15 30.5t-41 36.5t-44 32.5t-24 17.5q-32 37 -32 82
q0 15 3 30q6 31 25.5 57t47 45t62 30t70.5 11q-24 19 -37.5 43.5t-13.5 54.5q0 7 1.5 15t2.5 16q7 32 27 58.5t49.5 45.5t66 29.5t75.5 10.5q118 0 155 -58l-30 -31q-27 30 -97 30q-30 0 -52.5 -9.5t-27.5 -34.5q-2 -11 17.5 -28.5t45 -34t48 -30t25.5 -16.5q35 -35 35 -80
q0 -8 -1 -16t-3 -16zM511 295l9 23h-66l-7 23h76l-1 23h-91l-31 22h115l-19 23h-134l-33 23h139l-40 23h-117l-8 22h88l-21 23h-67l7 23h51v12l1 10h-41l16 23h34l8 13l11 10h-56q-42 -37 -51 -85q-14 -62 103 -141q55 -36 44 -88q-3 -13 -13 -27h59l22 23h-46l4 22h55z
M388 277q4 19 -16 30t-49 11q-30 0 -52.5 -9.5t-27.5 -33.5q-4 -19 14 -33.5t51 -14.5q31 0 52.5 12t27.5 38zM353 23l9 22h-66l-7 23h76l-1 23h-91l-31 23h115l-19 22h-134l-33 23h139l-40 23h-117l-7 23h88l-22 22h-67l7 23h51v12l1 11h-41l16 22h34l8 13l11 10h-56
q-40 -34 -51 -84q-14 -63 103 -141q55 -38 44 -88q-3 -14 -13 -28h59l22 23h-46l4 23h55z" />
    <glyph glyph-name="dieresis" unicode="&#xa8;" horiz-adv-x="407" 
d="M486 608q-5 -26 -27 -44.5t-48 -18.5q-27 0 -41 18.5t-9 44.5q6 26 28 44.5t49 18.5q26 0 40 -18.5t8 -44.5zM304 608q-5 -26 -27 -44.5t-48 -18.5t-40.5 18.5t-9.5 44.5q6 26 28.5 44.5t48.5 18.5t40 -18.5t8 -44.5z" />
    <glyph glyph-name="copyright" unicode="&#xa9;" horiz-adv-x="716" 
d="M760 332q-15 -68 -54 -128.5t-94 -105.5t-121 -71.5t-134 -26.5q-59 0 -108 20t-84.5 55.5t-55 83.5t-19.5 104q0 31 8 69q14 68 53 128t93 104.5t119.5 70.5t133.5 26q59 0 108.5 -20.5t85.5 -56t56 -83.5t20 -104q0 -34 -7 -65zM702 332q6 28 6 55q0 47 -16.5 86.5
t-46 68.5t-70.5 45.5t-90 16.5q-56 0 -110 -21.5t-99 -58.5t-76.5 -86.5t-43.5 -105.5q-6 -30 -6 -57q0 -46 16 -85.5t45 -69t69 -46t89 -16.5q56 0 110.5 21.5t100 59t78 87.5t44.5 106zM521 271h61q-12 -52 -61 -92q-59 -47 -136 -47q-66 0 -103.5 42t-37.5 107q0 24 6 51
q9 41 29.5 77t49.5 63t65.5 42.5t75.5 15.5q76 0 115 -47q25 -31 25 -68q0 -12 -3 -24h-61q8 36 -20 59.5t-68 23.5q-59 0 -103 -49q-37 -43 -47 -93q-4 -17 -4 -38q0 -29 12 -56q22 -51 81 -51q43 0 79.5 23.5t44.5 60.5z" />
    <glyph glyph-name="ordfeminine" unicode="&#xaa;" horiz-adv-x="299" 
d="M387 575l-31 -148q-4 -5 -12.5 -6t-16.5 -1q-35 0 -55 27q-20 -16 -34 -21.5t-36 -5.5q-36 0 -57 19t-13 53q4 22 20 38t37.5 26t46.5 14.5t49 4.5q3 13 3 24q0 36 -37 36q-18 0 -30.5 -5t-24.5 -14l-8 22q26 18 50.5 26.5t68.5 8.5q41 0 62 -19t21 -52q0 -12 -3 -27z
M354 386l-10 -45h-245l10 45h245zM265 480l13 61q-21 0 -34.5 -15.5t-18.5 -35.5q-6 -28 16 -28q20 0 24 18z" />
    <glyph glyph-name="guillemotleft" unicode="&#xab;" horiz-adv-x="515" 
d="M443 296l60 -169l-112 -55l-82 223l180 228l86 -58zM242 296l60 -169l-112 -55l-82 223l180 228l86 -58zM389 296l108 137l-17 12l-117 -148l54 -148l22 11zM188 296l109 137l-17 12l-118 -148l54 -148l22 11z" />
    <glyph glyph-name="logicalnot" unicode="&#xac;" horiz-adv-x="698" 
d="M732 364l-60 -282h-114l36 168h-496l24 114h610zM617 145h23l37 173h-500l-5 -23h477z" />
    <glyph glyph-name="minus" unicode="&#xad;" horiz-adv-x="587" 
d="M618 364l-24 -114h-496l24 114h496zM172 295h368l5 23h-368z" />
    <glyph glyph-name="registered" unicode="&#xae;" horiz-adv-x="722" 
d="M760 332q-15 -68 -54 -128.5t-94 -105.5t-121 -71.5t-134 -26.5q-59 0 -108 20t-84.5 55.5t-55 83.5t-19.5 104q0 31 8 69q14 68 53 128t93 104.5t119.5 70.5t133.5 26q59 0 108.5 -20.5t85.5 -56t56 -83.5t20 -104q0 -34 -7 -65zM702 332q6 28 6 55q0 47 -16.5 86.5
t-46 68.5t-70.5 45.5t-90 16.5q-56 0 -110 -21.5t-99 -58.5t-76.5 -86.5t-43.5 -105.5q-6 -30 -6 -57q0 -46 16 -85.5t45 -69t69 -46t89 -16.5q56 0 110.5 21.5t100 59t78 87.5t44.5 106zM547 141h-65q-3 12 -3 27q0 13 2 27.5t5 28.5q3 15 3 26q0 26 -15 35.5t-46 9.5h-84
l-33 -154h-58l81 381h142q61 0 92 -20q28 -19 28 -59q0 -7 -1 -15.5t-3 -17.5q-8 -34 -23.5 -56.5t-35.5 -35.5q15 -20 15 -54q0 -17 -5 -40q-6 -26 -6 -39q0 -11 2.5 -20.5t7.5 -23.5zM534 410q7 32 -11.5 43.5t-53.5 11.5h-89l-24 -111h89q34 0 58 11.5t31 44.5z" />
    <glyph glyph-name="macron" unicode="&#xaf;" horiz-adv-x="466" 
d="M526 614l-15 -69h-320l15 69h320z" />
    <glyph glyph-name="degree" unicode="&#xb0;" horiz-adv-x="347" 
d="M407 537q-5 -25 -19.5 -47.5t-35 -39.5t-45.5 -26.5t-50 -9.5q-45 0 -73 27.5t-28 69.5q0 12 3 26q6 26 20.5 48.5t34.5 39.5t44.5 26.5t50.5 9.5q45 0 73 -27.5t28 -69.5q0 -14 -3 -27zM359 537q7 32 -9.5 55t-49.5 23q-32 0 -60 -22.5t-35 -55.5q-7 -31 11 -54t51 -23
q31 0 58 23t34 54z" />
    <glyph glyph-name="plusminus" unicode="&#xb1;" horiz-adv-x="596" 
d="M615 455l-25 -114h-169l-35 -168h-114l35 168h-167l25 114h167l35 168h114l-35 -168h169zM565 114l-24 -114h-496l24 114h496zM386 386h151l5 23h-151l32 150h-23l-32 -150h-149l-5 -23h149l-32 -150h23zM119 45h368l4 23h-368z" />
    <glyph glyph-name="twosuperior" unicode="&#xb2;" horiz-adv-x="296" 
d="M345 364l-7 -35h-232l7 35l90 84q33 30 53 55q25 30 30 54q6 25 -3 41t-30 16q-24 0 -43.5 -10t-38.5 -29l-13 21q21 32 58.5 50.5t74.5 18.5q46 0 72 -25t26 -61q0 -12 -3 -22q-6 -31 -22 -61t-41 -53l-83 -79h105zM347 557q3 13 3 24q0 20 -13 33h-24q3 -4 6 -7t4 -6
q4 -9 4 -24q0 -5 -0.5 -10t-1.5 -10q-9 -47 -66 -102l-96 -91h27l96 91q22 21 39 48t22 54z" />
    <glyph glyph-name="threesuperior" unicode="&#xb3;" horiz-adv-x="305" 
d="M370 438q-6 -27 -22 -48.5t-38.5 -36.5t-50 -23t-54.5 -8q-63 0 -101 39l15 18q7 -9 20.5 -12t29.5 -3q31 0 56.5 20t32.5 54q3 12 3 23q0 25 -15 40t-44 15l73 109h-92l7 34h212l-77 -115q48 -23 48 -77q0 -14 -3 -29zM324 438q2 8 3 15t1 14q0 51 -47 74l57 84h-25
l-66 -97q28 -3 42.5 -23t14.5 -47q0 -5 -0.5 -10t-1.5 -10q-8 -40 -45 -74h26q13 13 17 21q10 13 15.5 26.5t8.5 26.5z" />
    <glyph glyph-name="acute" unicode="&#xb4;" horiz-adv-x="332" 
d="M407 627l-225 -82l-13 40l186 130q20 -5 32 -19t18 -29t6 -27t-4 -13z" />
    <glyph glyph-name="mu" unicode="&#xb5;" horiz-adv-x="617" 
d="M668 477l-101 -477q-13 -8 -30 -11t-36 -3q-39 0 -76.5 17.5t-50.5 35.5q-26 -21 -51 -30t-56 -9q-73 0 -102 18l-33 -154h-116l130 613h214l-72 -341q-3 -15 -3 -27q0 -41 38 -41q44 0 59 68l72 341h214zM534 68l5 23q-13 1 -31 2t-38 16l-5 5h79l5 22h-93l3 23h95l5 23
h-95l5 23h95l4 22h-95l5 23h95l5 23h-95l5 22h95l5 23h-95l4 23h95l5 23h-95l5 22h95l5 23h-118l-54 -254q-1 -5 -1.5 -10t-0.5 -10q0 -35 31 -53q17 -10 35.5 -12t34.5 -2zM129 68h96l5 23h-96l5 23h96l5 22h-96l5 23h96l5 23h-96l5 23h96l4 22h-96l5 23h96l5 23h-96l5 22
h96l5 23h-96l4 23h96l5 23h-96l5 22h96l5 23h-118l-101 -477h22z" />
    <glyph glyph-name="paragraph" unicode="&#xb6;" horiz-adv-x="709" 
d="M798 659l-169 -795h-141l155 727h-53l-155 -727h-141l63 295h-37q-112 0 -169 59q-45 46 -45 123q0 33 7 65q26 120 132 190q96 63 218 63h335zM562 -68h23l140 659h-23zM376 247l67 319q-47 -18 -80.5 -61.5t-45.5 -98.5q-2 -13 -3.5 -24.5t-1.5 -22.5q0 -41 16 -70
t48 -42zM368 -68h23l140 659h-23zM376 567l20 10h-104q-36 -20 -58 -39q-61 -55 -79 -143q-6 -27 -6 -50q0 -64 50 -109h103l-16 23h-76l-19 23h85l-6 23h-90l-6 22h93l-2 23h-93l2 23h92l3 22h-91l6 23h90l7 23h-90l12 23h88l12 22h-87l18 23h83l20 23h-78l14 11l20 12h65z
" />
    <glyph glyph-name="periodcentered" unicode="&#xb7;" horiz-adv-x="284" 
d="M315 284q-5 -24 -18 -44.5t-32 -36t-41.5 -24.5t-46.5 -9q-41 0 -66.5 26t-25.5 65q0 6 0.5 11.5t1.5 11.5q11 47 51 80t87 33q41 0 67 -25.5t26 -63.5q0 -12 -3 -24zM263 273h-102v11l5 11h102q0 13 -5 23h-109q-13 -15 -18 -34q-3 -19 3 -34h109q9 9 15 23z" />
    <glyph glyph-name="cedilla" unicode="&#xb8;" horiz-adv-x="313" 
d="M231 -125q-6 -31 -42 -56t-88 -25q-45 0 -91 17l34 48q28 -16 58 -16q22 0 38 5t21 23q4 20 -13.5 25t-51.5 5h-25l57 89h62l-28 -44q35 0 55.5 -20t13.5 -51z" />
    <glyph glyph-name="onesuperior" unicode="&#xb9;" horiz-adv-x="202" 
d="M319 659l-70 -330h-107l61 285l-57 -46l10 46l56 45h107zM191 364h21l56 261h-21z" />
    <glyph glyph-name="ordmasculine" unicode="&#xba;" horiz-adv-x="323" 
d="M411 544q-11 -52 -56.5 -88t-104.5 -36q-52 0 -81.5 28t-29.5 70q0 12 3 26q12 56 58 92.5t104 36.5q51 0 80.5 -27t29.5 -72q0 -15 -3 -30zM377 386l-10 -45h-269l10 45h269zM307 541q7 31 7 55q0 36 -19 36q-14 0 -28 -25t-22 -66q-3 -13 -4 -23.5t-1 -19.5
q0 -36 19 -36q13 0 27 21t21 58z" />
    <glyph glyph-name="guillemotright" unicode="&#xbb;" horiz-adv-x="516" 
d="M456 523l83 -228l-178 -223l-88 55l133 169l-61 169zM255 523l83 -228l-178 -223l-88 55l133 169l-61 169zM370 149l116 148l-54 148l-23 -12l50 -137l-107 -136zM169 149l116 148l-54 148l-23 -12l50 -137l-107 -136z" />
    <glyph glyph-name="onequarter" unicode="&#xbc;" horiz-adv-x="633" 
d="M617 103l-8 -35h-34l-14 -68h-107l14 68h-132l215 262h80l-48 -227h34zM511 68h22l41 192h-22zM408 103h68l24 113zM319 659l-70 -330h-107l61 285l-57 -46l10 46l56 45h107zM191 364h21l56 261h-21zM534 659h131l-448 -659h-130zM210 68l356 523h-25l-355 -523h24z" />
    <glyph glyph-name="onehalf" unicode="&#xbd;" horiz-adv-x="669" 
d="M703 28l-7 -35h-232l7 35l90 84q33 30 53 55q25 30 30 54q6 25 -3 41t-30 16q-24 0 -43.5 -10t-38.5 -29l-13 21q21 32 58.5 50.5t74.5 18.5q46 0 72 -25t26 -61q0 -12 -3 -22q-6 -31 -22 -61t-41 -53l-83 -79h105zM705 221q3 13 3 24q0 20 -13 33h-24q3 -4 6 -7t4 -6
q4 -9 4 -24q0 -5 -0.5 -10t-1.5 -10q-9 -47 -66 -102l-96 -91h27l96 91q22 21 39 48t22 54zM319 659l-70 -330h-107l61 285l-57 -46l10 46l56 45h107zM191 364h21l56 261h-21zM527 659h131l-448 -659h-130zM203 68l356 523h-25l-355 -523h24z" />
    <glyph glyph-name="threequarters" unicode="&#xbe;" horiz-adv-x="695" 
d="M677 103l-8 -35h-34l-14 -68h-107l14 68h-132l215 262h80l-48 -227h34zM571 68h22l41 192h-22zM468 103h68l24 113zM380 436q-6 -27 -22.5 -48.5t-39 -36.5t-49.5 -23t-54 -8q-63 0 -102 39l15 18q8 -9 21.5 -12t29.5 -3q31 0 56 20.5t33 53.5q1 6 1.5 11.5t0.5 10.5
q0 26 -14.5 41.5t-44.5 15.5l73 108h-92l8 34h212l-78 -115q49 -22 49 -77q0 -14 -3 -29zM334 436q3 15 3 29q0 52 -46 74l56 84h-25l-65 -97q28 -3 42.5 -23t14.5 -47q0 -5 -0.5 -10t-1.5 -10q-10 -42 -45 -74h26q11 11 16 21q19 26 25 53zM595 659h131l-447 -659h-130z
M272 68l356 523h-26l-354 -523h24z" />
    <glyph glyph-name="questiondown" unicode="&#xbf;" horiz-adv-x="378" 
d="M399 445q-8 -37 -40.5 -63.5t-70.5 -26.5t-58.5 26.5t-12.5 63.5q7 38 39.5 64.5t70.5 26.5t58.5 -26.5t13.5 -64.5zM358 -75l17 -33q-31 -29 -77 -44.5t-109 -15.5q-81 0 -130 40q-41 33 -41 83q0 13 3 27q7 34 38 68t66.5 65.5t65 58.5t33.5 48q6 27 -9 40t-46 13
l18 43q105 0 157 -34q44 -30 44 -81q0 -17 -4 -32q-7 -34 -38 -65.5t-66.5 -60.5t-65.5 -55.5t-35 -50.5q-5 -25 14 -35.5t49 -10.5q32 0 64.5 8.5t51.5 23.5zM327 445q3 19 -15 19q-8 0 -15 -6t-8 -13q-2 -7 2.5 -13t12.5 -6t14.5 6t8.5 13zM339 159l6 23h-66l10 23h57
l-8 22h-45q2 9 2 19.5t-4 18.5l-21 -7q2 -8 1.5 -20t-1.5 -17q-6 -27 -36 -55t-66 -58t-67 -61.5t-38 -64.5q-6 -26 5 -50h68l6 23h-56l1 22h66l16 23h-76l9 23h92l31 22h-108l20 23h124l32 23h-127l36 23h114l14 22h-93l25 23h77z" />
    <glyph glyph-name="Agrave" unicode="&#xc0;" horiz-adv-x="783" 
d="M653 659l109 -659h-149l-25 159h-212l-91 -159h-268l390 659h246zM412 227h162l-37 228zM666 68h24l-85 523h-198l-310 -523h163l13 23h-137l13 23h137l12 22h-134l13 23h134l13 23h-133l13 23h133l11 22h-132l14 23h131l12 23h-129l14 22h129l12 23h-128l13 23h127
l12 23h-126l14 22h126l12 23h-125l14 23h124l12 23h-122l13 22h121l13 23h-121l14 23h120l12 22h-119l14 23h165zM500 897l131 -130l-30 -40l-191 82q-3 1 2.5 13t17.5 27t30 28.5t40 19.5z" />
    <glyph glyph-name="Aacute" unicode="&#xc1;" horiz-adv-x="783" 
d="M653 659l109 -659h-149l-25 159h-212l-91 -159h-268l390 659h246zM412 227h162l-37 228zM666 68h24l-85 523h-198l-310 -523h163l13 23h-137l13 23h137l12 22h-134l13 23h134l13 23h-133l13 23h133l11 22h-132l14 23h131l12 23h-129l14 22h129l12 23h-128l13 23h127
l12 23h-126l14 22h126l12 23h-125l14 23h124l12 23h-122l13 22h121l13 23h-121l14 23h120l12 22h-119l14 23h165zM634 809l-225 -82l-13 40l186 130q20 -5 32 -19t18 -29t6 -27t-4 -13z" />
    <glyph glyph-name="Acircumflex" unicode="&#xc2;" horiz-adv-x="783" 
d="M653 659l109 -659h-149l-25 159h-212l-91 -159h-268l390 659h246zM412 227h162l-37 228zM666 68h24l-85 523h-198l-310 -523h163l13 23h-137l13 23h137l12 22h-134l13 23h134l13 23h-133l13 23h133l11 22h-132l14 23h131l12 23h-129l14 22h129l12 23h-128l13 23h127
l12 23h-126l14 22h126l12 23h-125l14 23h124l12 23h-122l13 22h121l13 23h-121l14 23h120l12 22h-119l14 23h165zM582 875l126 -108l-30 -40l-146 68l-175 -68l-13 40l172 108h66z" />
    <glyph glyph-name="Atilde" unicode="&#xc3;" horiz-adv-x="783" 
d="M653 659l109 -659h-149l-25 159h-212l-91 -159h-268l390 659h246zM412 227h162l-37 228zM666 68h24l-85 523h-198l-310 -523h163l13 23h-137l13 23h137l12 22h-134l13 23h134l13 23h-133l13 23h133l11 22h-132l14 23h131l12 23h-129l14 22h129l12 23h-128l13 23h127
l12 23h-126l14 22h126l12 23h-125l14 23h124l12 23h-122l13 22h121l13 23h-121l14 23h120l12 22h-119l14 23h165zM664 830l33 -13q-22 -39 -53 -63.5t-72 -24.5q-12 0 -28.5 3.5t-34 7.5t-33.5 7.5t-26 3.5q-40 0 -57 -18l-30 19q42 77 124 77q11 0 30.5 -3.5t38 -8t33 -8
t16.5 -3.5q20 0 36 7t23 17z" />
    <glyph glyph-name="Adieresis" unicode="&#xc4;" horiz-adv-x="783" 
d="M653 659l109 -659h-149l-25 159h-212l-91 -159h-268l390 659h246zM412 227h162l-37 228zM666 68h24l-85 523h-198l-310 -523h163l13 23h-137l13 23h137l12 22h-134l13 23h134l13 23h-133l13 23h133l11 22h-132l14 23h131l12 23h-129l14 22h129l12 23h-128l13 23h127
l12 23h-126l14 22h126l12 23h-125l14 23h124l12 23h-122l13 22h121l13 23h-121l14 23h120l12 22h-119l14 23h165zM673 792q-5 -26 -27 -44.5t-48 -18.5q-27 0 -41 18.5t-9 44.5q6 26 28 44.5t49 18.5q26 0 40 -18.5t8 -44.5zM491 792q-5 -26 -27 -44.5t-48 -18.5t-40.5 18.5
t-9.5 44.5q6 26 28.5 44.5t48.5 18.5t40 -18.5t8 -44.5z" />
    <glyph glyph-name="Aring" unicode="&#xc5;" horiz-adv-x="783" 
d="M653 659l109 -659h-149l-25 159h-212l-91 -159h-268l390 659h246zM412 227h162l-37 228zM666 68h24l-85 523h-198l-310 -523h163l13 23h-137l13 23h137l12 22h-134l13 23h134l13 23h-133l13 23h133l11 22h-132l14 23h131l12 23h-129l14 22h129l12 23h-128l13 23h127
l12 23h-126l14 22h126l12 23h-125l14 23h124l12 23h-122l13 22h121l13 23h-121l14 23h120l12 22h-119l14 23h165zM618 817q-8 -38 -39 -64t-69 -26q-33 0 -52.5 19.5t-19.5 50.5q0 5 0.5 10t1.5 10q8 37 39 63t69 26q33 0 52.5 -19.5t19.5 -49.5q0 -5 -0.5 -10t-1.5 -10z
M579 817q4 22 -7 36t-32 14q-22 0 -39.5 -14t-22.5 -36q-5 -23 6.5 -37t33.5 -14q21 0 39 14t22 37z" />
    <glyph glyph-name="AE" unicode="&#xc6;" horiz-adv-x="956" 
d="M940 68l-14 -68h-460l34 159h-185l-130 -159h-168l530 659h519l-14 -68h-221l-44 -205h131l-14 -68h-131l-54 -250h221zM521 68h141l5 23h-118l5 23h118l5 22h-118l5 23h118l5 23h-118l5 23h118l4 22h-118l5 23h118l5 23h-118l5 22h118l5 23h-118l4 23h118l5 23h-118
l5 22h118l5 23h-118l5 23h118l5 23h-118l4 22h118l5 23h-118l5 23h118l5 22h-118l5 23h118l5 23h-141zM368 227h146l53 250zM168 68l421 523h-28l-422 -523h29z" />
    <glyph glyph-name="Ccedilla" unicode="&#xc7;" horiz-adv-x="655" 
d="M626 116l22 -45q-34 -29 -58 -42q-81 -43 -180 -43l-26 -40q35 0 55.5 -20t13.5 -51q-6 -31 -42.5 -56t-88.5 -25q-44 0 -90 17l33 48q29 -16 59 -16q20 0 37 5t22 23q4 20 -13.5 25t-51.5 5h-25l57 89q-139 16 -207 98q-55 64 -55 160q0 39 9 83q36 167 173 259
q123 84 286 84q101 0 163 -41q18 -13 40 -42l-42 -46q-13 16 -26 23q-41 23 -111 23q-69 0 -137 -65q-78 -72 -105 -195q-9 -42 -9 -78q0 -65 28 -114q41 -71 111 -71q49 0 85.5 10.5t72.5 37.5zM229 68h124l-29 23h-81l-32 23h90l-13 22h-97l-15 23h103l-6 23h-108l-6 23
h110l-3 22h-113l-1 23h114l1 23h-114l2 22h114l4 23h-114l4 23h114l5 23h-113l8 22h113l9 23h-113l11 23h111l12 23h-108l15 22h105l15 23h-99l24 23h93l20 22h-84l38 23h77l35 23h-120q-75 -41 -125 -109t-68 -151q-8 -42 -8 -74q0 -47 14 -87q24 -62 85 -102z" />
    <glyph glyph-name="Egrave" unicode="&#xc8;" horiz-adv-x="543" 
d="M519 68l-14 -68h-460l140 659h460l-14 -68h-220l-44 -205h130l-14 -68h-130l-54 -250h220zM100 68h141l5 23h-118l5 23h118l5 22h-118l5 23h118l5 23h-118l5 23h118l4 22h-118l5 23h118l5 23h-118l5 22h118l5 23h-118l4 23h118l5 23h-118l5 22h118l5 23h-118l5 23h118
l5 23h-118l4 22h118l5 23h-118l5 23h118l5 22h-118l5 23h118l5 23h-141zM385 897l131 -130l-30 -40l-191 82q-3 1 2.5 13t17.5 27t30 28.5t40 19.5z" />
    <glyph glyph-name="Eacute" unicode="&#xc9;" horiz-adv-x="542" 
d="M519 68l-14 -68h-460l140 659h460l-14 -68h-220l-44 -205h130l-14 -68h-130l-54 -250h220zM100 68h141l5 23h-118l5 23h118l5 22h-118l5 23h118l5 23h-118l5 23h118l4 22h-118l5 23h118l5 23h-118l5 22h118l5 23h-118l4 23h118l5 23h-118l5 22h118l5 23h-118l5 23h118
l5 23h-118l4 22h118l5 23h-118l5 23h118l5 22h-118l5 23h118l5 23h-141zM532 809l-225 -82l-13 40l186 130q20 -5 32 -19t18 -29t6 -27t-4 -13z" />
    <glyph glyph-name="Ecircumflex" unicode="&#xca;" horiz-adv-x="540" 
d="M519 68l-14 -68h-460l140 659h460l-14 -68h-220l-44 -205h130l-14 -68h-130l-54 -250h220zM100 68h141l5 23h-118l5 23h118l5 22h-118l5 23h118l5 23h-118l5 23h118l4 22h-118l5 23h118l5 23h-118l5 22h118l5 23h-118l4 23h118l5 23h-118l5 22h118l5 23h-118l5 23h118
l5 23h-118l4 22h118l5 23h-118l5 23h118l5 22h-118l5 23h118l5 23h-141zM466 875l126 -108l-30 -40l-146 68l-175 -68l-13 40l172 108h66z" />
    <glyph glyph-name="Edieresis" unicode="&#xcb;" horiz-adv-x="545" 
d="M519 68l-14 -68h-460l140 659h460l-14 -68h-220l-44 -205h130l-14 -68h-130l-54 -250h220zM100 68h141l5 23h-118l5 23h118l5 22h-118l5 23h118l5 23h-118l5 23h118l4 22h-118l5 23h118l5 23h-118l5 22h118l5 23h-118l4 23h118l5 23h-118l5 22h118l5 23h-118l5 23h118
l5 23h-118l4 22h118l5 23h-118l5 23h118l5 22h-118l5 23h118l5 23h-141zM563 791q-5 -26 -27 -44.5t-48 -18.5q-27 0 -41 18.5t-9 44.5q6 26 28 44.5t49 18.5q26 0 40 -18.5t8 -44.5zM381 791q-5 -26 -27 -44.5t-48 -18.5t-40.5 18.5t-9.5 44.5q6 26 28.5 44.5t48.5 18.5
t40 -18.5t8 -44.5z" />
    <glyph glyph-name="Igrave" unicode="&#xcc;" horiz-adv-x="339" 
d="M425 659l-140 -659h-240l140 659h240zM101 68h140l5 23h-118l5 23h118l5 22h-118l5 23h118l5 23h-118l5 23h118l4 22h-118l5 23h118l5 23h-118l5 22h118l5 23h-118l4 23h118l5 23h-118l5 22h118l5 23h-118l5 23h118l5 23h-118l4 22h118l5 23h-118l5 23h118l5 22h-118
l5 23h118l5 23h-140zM274 899l131 -130l-30 -40l-191 82q-3 1 2.5 13t17.5 27t30 28.5t40 19.5z" />
    <glyph glyph-name="Iacute" unicode="&#xcd;" horiz-adv-x="339" 
d="M425 659l-140 -659h-240l140 659h240zM101 68h140l5 23h-118l5 23h118l5 22h-118l5 23h118l5 23h-118l5 23h118l4 22h-118l5 23h118l5 23h-118l5 22h118l5 23h-118l4 23h118l5 23h-118l5 22h118l5 23h-118l5 23h118l5 23h-118l4 22h118l5 23h-118l5 23h118l5 22h-118
l5 23h118l5 23h-140zM411 809l-225 -82l-13 40l186 130q20 -5 32 -19t18 -29t6 -27t-4 -13z" />
    <glyph glyph-name="Icircumflex" unicode="&#xce;" horiz-adv-x="339" 
d="M425 659l-140 -659h-240l140 659h240zM101 68h140l5 23h-118l5 23h118l5 22h-118l5 23h118l5 23h-118l5 23h118l4 22h-118l5 23h118l5 23h-118l5 22h118l5 23h-118l4 23h118l5 23h-118l5 22h118l5 23h-118l5 23h118l5 23h-118l4 22h118l5 23h-118l5 23h118l5 22h-118
l5 23h118l5 23h-140zM351 876l126 -108l-30 -40l-146 68l-175 -68l-13 40l172 108h66z" />
    <glyph glyph-name="Idieresis" unicode="&#xcf;" horiz-adv-x="339" 
d="M425 659l-140 -659h-240l140 659h240zM101 68h140l5 23h-118l5 23h118l5 22h-118l5 23h118l5 23h-118l5 23h118l4 22h-118l5 23h118l5 23h-118l5 22h118l5 23h-118l4 23h118l5 23h-118l5 22h118l5 23h-118l5 23h118l5 23h-118l4 22h118l5 23h-118l5 23h118l5 22h-118
l5 23h118l5 23h-140zM451 792q-5 -26 -27 -44.5t-48 -18.5q-27 0 -41 18.5t-9 44.5q6 26 28 44.5t49 18.5q26 0 40 -18.5t8 -44.5zM269 792q-5 -26 -27 -44.5t-48 -18.5t-40.5 18.5t-9.5 44.5q6 26 28.5 44.5t48.5 18.5t40 -18.5t8 -44.5z" />
    <glyph glyph-name="Eth" unicode="&#xd0;" horiz-adv-x="785" 
d="M832 331q-35 -164 -170 -254q-115 -77 -257 -77h-314l68 318h-64l14 68h64l58 273h314q156 0 234 -75q63 -62 63 -164q0 -43 -10 -89zM758 295l6 23h-118l4 23h118l4 23h-118l4 22h115l-1 23h-110l2 23h106l-4 23h-101v22h93l-9 23h-85l-3 23h74l-17 22h-62l-10 23h47
l-33 23h-64q36 -27 42 -106q1 -6 1 -12.5v-13.5q0 -59 -16 -130q-19 -91 -51 -154q-37 -75 -94 -107h65l41 23h-44l22 23h58l29 22h-71l14 23h82l21 23h-91l8 23h100l14 22h-105l7 23h110l11 23h-115l6 22h118zM579 329q7 33 10.5 63.5t3.5 56.5q0 53 -15.5 89.5t-46.5 52.5
h-75l-44 -205h75l-14 -68h-75l-54 -250h61q71 34 114 101q39 63 60 160zM146 68h141l5 23h-118l5 23h118l5 22h-118l5 23h118l5 23h-118l5 23h118l4 22h-118l5 23h118l5 23h-118l5 22h118l5 23h-118l4 23h118l5 23h-118l5 22h118l5 23h-118l5 23h118l5 23h-118l4 22h118
l5 23h-118l5 23h118l5 22h-118l5 23h118l5 23h-141z" />
    <glyph glyph-name="Ntilde" unicode="&#xd1;" horiz-adv-x="731" 
d="M817 659l-140 -659h-202l-211 385l-82 -385h-137l140 659h207l208 -380l81 380h136zM496 68h136l112 523h-23l-107 -500h-101l-13 23h65l5 22h-82l-12 23h99l5 23h-116l-13 23h117l-14 22h-116l-12 23h116l-12 23h-117l-12 22h116l-12 23h-117l-12 23h115l-11 23h-118
l-11 22h116l-13 23h-115l-12 23h115l-12 23h-116l-14 22h117l-13 23h-116l-12 23h116l-12 22h-117l-12 23h116l-12 23h-129l-5 -22zM114 68h23l85 396l-17 29zM613 829l33 -13q-22 -39 -53 -63.5t-72 -24.5q-12 0 -28.5 3.5t-34 7.5t-33.5 7.5t-26 3.5q-40 0 -57 -18l-30 19
q42 77 124 77q11 0 30.5 -3.5t38 -8t33 -8t16.5 -3.5q20 0 36 7t23 17z" />
    <glyph glyph-name="Ograve" unicode="&#xd2;" horiz-adv-x="832" 
d="M868 331q-34 -166 -172 -260q-126 -85 -286 -85q-163 0 -250 84q-72 68 -72 177q0 39 9 84q36 167 173 259q124 83 286 83q160 0 250 -82q72 -67 72 -176q0 -19 -3 -40t-7 -44zM795 295l7 23h-105l4 23h105l3 23h-104l2 22h104l1 23h-102l-1 23h102l-3 23h-99l-4 22h97
l-9 23h-92l-6 23h88l-14 22h-84l-16 23h81l-27 23h-116q51 -25 69 -103q8 -35 8 -71q0 -21 -3 -43t-7 -45q-17 -82 -61 -150q-44 -71 -118 -111h105l42 23h-76l24 23h84l25 22h-88l18 23h92l19 23h-96l12 23h99l12 22h-101l10 23h102l9 23h-104l8 22h104zM627 331
q10 43 10 83q0 61 -24 107q-28 54 -74 70q-33 -10 -61.5 -31t-55.5 -53q-62 -74 -84 -176q-9 -43 -9 -81q0 -60 22 -105q27 -60 76 -77q61 19 118 88q61 76 82 175zM229 68h124l-29 23h-81l-32 23h90l-13 22h-97l-15 23h103l-6 23h-108l-6 23h110l-3 22h-113l-1 23h114l1 23
h-114l2 22h114l4 23h-114l4 23h114l5 23h-113l8 22h113l9 23h-113l11 23h111l12 23h-108l15 22h105l15 23h-99l24 23h93l20 22h-84l38 23h77l35 23h-120q-75 -41 -125 -109t-68 -151q-8 -42 -8 -74q0 -47 14 -87q24 -62 85 -102zM521 897l131 -130l-30 -40l-191 82
q-3 1 2.5 13t17.5 27t30 28.5t40 19.5z" />
    <glyph glyph-name="Oacute" unicode="&#xd3;" horiz-adv-x="832" 
d="M868 331q-34 -166 -172 -260q-126 -85 -286 -85q-163 0 -250 84q-72 68 -72 177q0 39 9 84q36 167 173 259q124 83 286 83q160 0 250 -82q72 -67 72 -176q0 -19 -3 -40t-7 -44zM795 295l7 23h-105l4 23h105l3 23h-104l2 22h104l1 23h-102l-1 23h102l-3 23h-99l-4 22h97
l-9 23h-92l-6 23h88l-14 22h-84l-16 23h81l-27 23h-116q51 -25 69 -103q8 -35 8 -71q0 -21 -3 -43t-7 -45q-17 -82 -61 -150q-44 -71 -118 -111h105l42 23h-76l24 23h84l25 22h-88l18 23h92l19 23h-96l12 23h99l12 22h-101l10 23h102l9 23h-104l8 22h104zM627 331
q10 43 10 83q0 61 -24 107q-28 54 -74 70q-33 -10 -61.5 -31t-55.5 -53q-62 -74 -84 -176q-9 -43 -9 -81q0 -60 22 -105q27 -60 76 -77q61 19 118 88q61 76 82 175zM229 68h124l-29 23h-81l-32 23h90l-13 22h-97l-15 23h103l-6 23h-108l-6 23h110l-3 22h-113l-1 23h114l1 23
h-114l2 22h114l4 23h-114l4 23h114l5 23h-113l8 22h113l9 23h-113l11 23h111l12 23h-108l15 22h105l15 23h-99l24 23h93l20 22h-84l38 23h77l35 23h-120q-75 -41 -125 -109t-68 -151q-8 -42 -8 -74q0 -47 14 -87q24 -62 85 -102zM657 811l-225 -82l-13 40l186 130
q20 -5 32 -19t18 -29t6 -27t-4 -13z" />
    <glyph glyph-name="Ocircumflex" unicode="&#xd4;" horiz-adv-x="832" 
d="M868 331q-34 -166 -172 -260q-126 -85 -286 -85q-163 0 -250 84q-72 68 -72 177q0 39 9 84q36 167 173 259q124 83 286 83q160 0 250 -82q72 -67 72 -176q0 -19 -3 -40t-7 -44zM795 295l7 23h-105l4 23h105l3 23h-104l2 22h104l1 23h-102l-1 23h102l-3 23h-99l-4 22h97
l-9 23h-92l-6 23h88l-14 22h-84l-16 23h81l-27 23h-116q51 -25 69 -103q8 -35 8 -71q0 -21 -3 -43t-7 -45q-17 -82 -61 -150q-44 -71 -118 -111h105l42 23h-76l24 23h84l25 22h-88l18 23h92l19 23h-96l12 23h99l12 22h-101l10 23h102l9 23h-104l8 22h104zM627 331
q10 43 10 83q0 61 -24 107q-28 54 -74 70q-33 -10 -61.5 -31t-55.5 -53q-62 -74 -84 -176q-9 -43 -9 -81q0 -60 22 -105q27 -60 76 -77q61 19 118 88q61 76 82 175zM229 68h124l-29 23h-81l-32 23h90l-13 22h-97l-15 23h103l-6 23h-108l-6 23h110l-3 22h-113l-1 23h114l1 23
h-114l2 22h114l4 23h-114l4 23h114l5 23h-113l8 22h113l9 23h-113l11 23h111l12 23h-108l15 22h105l15 23h-99l24 23h93l20 22h-84l38 23h77l35 23h-120q-75 -41 -125 -109t-68 -151q-8 -42 -8 -74q0 -47 14 -87q24 -62 85 -102zM591 872l126 -108l-30 -40l-146 68l-175 -68
l-13 40l172 108h66z" />
    <glyph glyph-name="Otilde" unicode="&#xd5;" horiz-adv-x="833" 
d="M868 331q-34 -166 -172 -260q-126 -85 -286 -85q-163 0 -250 84q-72 68 -72 177q0 39 9 84q36 167 173 259q124 83 286 83q160 0 250 -82q72 -67 72 -176q0 -19 -3 -40t-7 -44zM795 295l7 23h-105l4 23h105l3 23h-104l2 22h104l1 23h-102l-1 23h102l-3 23h-99l-4 22h97
l-9 23h-92l-6 23h88l-14 22h-84l-16 23h81l-27 23h-116q51 -25 69 -103q8 -35 8 -71q0 -21 -3 -43t-7 -45q-17 -82 -61 -150q-44 -71 -118 -111h105l42 23h-76l24 23h84l25 22h-88l18 23h92l19 23h-96l12 23h99l12 22h-101l10 23h102l9 23h-104l8 22h104zM627 331
q10 43 10 83q0 61 -24 107q-28 54 -74 70q-33 -10 -61.5 -31t-55.5 -53q-62 -74 -84 -176q-9 -43 -9 -81q0 -60 22 -105q27 -60 76 -77q61 19 118 88q61 76 82 175zM229 68h124l-29 23h-81l-32 23h90l-13 22h-97l-15 23h103l-6 23h-108l-6 23h110l-3 22h-113l-1 23h114l1 23
h-114l2 22h114l4 23h-114l4 23h114l5 23h-113l8 22h113l9 23h-113l11 23h111l12 23h-108l15 22h105l15 23h-99l24 23h93l20 22h-84l38 23h77l35 23h-120q-75 -41 -125 -109t-68 -151q-8 -42 -8 -74q0 -47 14 -87q24 -62 85 -102zM675 830l33 -13q-22 -39 -53 -63.5
t-72 -24.5q-12 0 -28.5 3.5t-34 7.5t-33.5 7.5t-26 3.5q-40 0 -57 -18l-30 19q42 77 124 77q11 0 30.5 -3.5t38 -8t33 -8t16.5 -3.5q20 0 36 7t23 17z" />
    <glyph glyph-name="Odieresis" unicode="&#xd6;" horiz-adv-x="829" 
d="M868 331q-34 -166 -172 -260q-126 -85 -286 -85q-163 0 -250 84q-72 68 -72 177q0 39 9 84q36 167 173 259q124 83 286 83q160 0 250 -82q72 -67 72 -176q0 -19 -3 -40t-7 -44zM795 295l7 23h-105l4 23h105l3 23h-104l2 22h104l1 23h-102l-1 23h102l-3 23h-99l-4 22h97
l-9 23h-92l-6 23h88l-14 22h-84l-16 23h81l-27 23h-116q51 -25 69 -103q8 -35 8 -71q0 -21 -3 -43t-7 -45q-17 -82 -61 -150q-44 -71 -118 -111h105l42 23h-76l24 23h84l25 22h-88l18 23h92l19 23h-96l12 23h99l12 22h-101l10 23h102l9 23h-104l8 22h104zM627 331
q10 43 10 83q0 61 -24 107q-28 54 -74 70q-33 -10 -61.5 -31t-55.5 -53q-62 -74 -84 -176q-9 -43 -9 -81q0 -60 22 -105q27 -60 76 -77q61 19 118 88q61 76 82 175zM229 68h124l-29 23h-81l-32 23h90l-13 22h-97l-15 23h103l-6 23h-108l-6 23h110l-3 22h-113l-1 23h114l1 23
h-114l2 22h114l4 23h-114l4 23h114l5 23h-113l8 22h113l9 23h-113l11 23h111l12 23h-108l15 22h105l15 23h-99l24 23h93l20 22h-84l38 23h77l35 23h-120q-75 -41 -125 -109t-68 -151q-8 -42 -8 -74q0 -47 14 -87q24 -62 85 -102zM691 790q-5 -26 -27 -44.5t-48 -18.5
q-27 0 -41 18.5t-9 44.5q6 26 28 44.5t49 18.5q26 0 40 -18.5t8 -44.5zM509 790q-5 -26 -27 -44.5t-48 -18.5t-40.5 18.5t-9.5 44.5q6 26 28.5 44.5t48.5 18.5t40 -18.5t8 -44.5z" />
    <glyph glyph-name="multiply" unicode="&#xd7;" horiz-adv-x="484" 
d="M473 507l63 -81l-146 -119l94 -119l-97 -80l-94 118l-144 -118l-63 81l144 118l-94 119l97 80l94 -119zM326 307l129 107l-13 16l-128 -107l-85 106l-18 -16l82 -106l-127 -105l12 -17l129 106l83 -106l19 16z" />
    <glyph glyph-name="Oslash" unicode="&#xd8;" horiz-adv-x="829" 
d="M868 331q-34 -166 -172 -260q-126 -85 -286 -85q-64 0 -121 15t-99 45l-120 -99l-43 53l113 93q-52 63 -52 156q0 38 9 82q36 167 173 259q123 84 286 84q66 0 120 -14t98 -45l119 99l41 -54l-109 -90q52 -61 52 -156q0 -38 -9 -83zM795 295l7 23h-105l4 23h105l3 23
h-104l2 22h104l1 23h-102l-1 23h102l-3 23h-99l-4 22h97l-9 23h-92l-6 23h88l-14 22h-84l-16 23h81l-27 23h-116q51 -25 69 -103q8 -35 8 -71q0 -21 -3 -43t-7 -45q-17 -82 -61 -150q-44 -71 -118 -111h105l42 23h-76l24 23h84l25 22h-88l18 23h92l19 23h-96l12 23h99l12 22
h-101l10 23h102l9 23h-104l8 22h104zM329 249l296 244q-23 74 -86 98q-33 -10 -61.5 -31t-55.5 -53q-62 -74 -84 -176q-9 -45 -9 -82zM627 331q11 48 9 84l-295 -244q13 -42 38 -70q23 -24 48 -33q61 19 118 88q61 76 82 175zM229 68h124l-29 23h-81l-32 23h90l-13 22h-97
l-15 23h103l-6 23h-108l-6 23h110l-3 22h-113l-1 23h114l1 23h-114l2 22h114l4 23h-114l4 23h114l5 23h-113l8 22h113l9 23h-113l11 23h111l12 23h-108l15 22h105l15 23h-99l24 23h93l20 22h-84l38 23h77l35 23h-120q-75 -41 -125 -109t-68 -151q-8 -42 -8 -74q0 -47 14 -87
q24 -62 85 -102z" />
    <glyph glyph-name="Ugrave" unicode="&#xd9;" horiz-adv-x="749" 
d="M835 659l-87 -409q-27 -126 -121 -193q-98 -71 -260 -71q-140 0 -209 46t-69 142q0 34 9 76l87 409h240l-90 -424q-6 -30 -6 -55q0 -33 9 -58q20 -54 74 -54t98 54q38 47 52 113l90 424h183zM628 250h78l5 23h-78l5 22h78l5 23h-78l4 23h78l5 23h-78l5 22h78l5 23h-78
l5 23h78l5 23h-78l4 22h78l5 23h-78l5 23h78l5 22h-78l5 23h78l5 23h-100l-76 -356q-5 -25 -15 -50.5t-24.5 -48.5t-33.5 -41t-42 -27h91l19 11l16 12h-60l19 23h65l19 22h-69l11 23h73l12 23h-74l9 23h75l6 22h-77zM180 68h136q-9 4 -14 11l-9 12h-98l-11 10l-9 13h105
l-6 22h-110l-6 23h113v23h-115l1 23h116l2 22h-117l4 23h118l5 23h-118l5 22h118l5 23h-118l4 23h118l5 23h-118l5 22h118l5 23h-118l5 23h118l5 23h-118l4 22h118l5 23h-118l5 23h118l5 22h-118l5 23h118l5 23h-141l-73 -341q-4 -18 -6.5 -36t-2.5 -34q0 -32 11 -59.5
t39 -52.5zM484 899l131 -130l-30 -40l-191 82q-3 1 2.5 13t17.5 27t30 28.5t40 19.5z" />
    <glyph glyph-name="Uacute" unicode="&#xda;" horiz-adv-x="749" 
d="M835 659l-87 -409q-27 -126 -121 -193q-98 -71 -260 -71q-140 0 -209 46t-69 142q0 34 9 76l87 409h240l-90 -424q-6 -30 -6 -55q0 -33 9 -58q20 -54 74 -54t98 54q38 47 52 113l90 424h183zM628 250h78l5 23h-78l5 22h78l5 23h-78l4 23h78l5 23h-78l5 22h78l5 23h-78
l5 23h78l5 23h-78l4 22h78l5 23h-78l5 23h78l5 22h-78l5 23h78l5 23h-100l-76 -356q-5 -25 -15 -50.5t-24.5 -48.5t-33.5 -41t-42 -27h91l19 11l16 12h-60l19 23h65l19 22h-69l11 23h73l12 23h-74l9 23h75l6 22h-77zM180 68h136q-9 4 -14 11l-9 12h-98l-11 10l-9 13h105
l-6 22h-110l-6 23h113v23h-115l1 23h116l2 22h-117l4 23h118l5 23h-118l5 22h118l5 23h-118l4 23h118l5 23h-118l5 22h118l5 23h-118l5 23h118l5 23h-118l4 22h118l5 23h-118l5 23h118l5 22h-118l5 23h118l5 23h-141l-73 -341q-4 -18 -6.5 -36t-2.5 -34q0 -32 11 -59.5
t39 -52.5zM636 809l-225 -82l-13 40l186 130q20 -5 32 -19t18 -29t6 -27t-4 -13z" />
    <glyph glyph-name="Ucircumflex" unicode="&#xdb;" horiz-adv-x="749" 
d="M835 659l-87 -409q-27 -126 -121 -193q-98 -71 -260 -71q-140 0 -209 46t-69 142q0 34 9 76l87 409h240l-90 -424q-6 -30 -6 -55q0 -33 9 -58q20 -54 74 -54t98 54q38 47 52 113l90 424h183zM628 250h78l5 23h-78l5 22h78l5 23h-78l4 23h78l5 23h-78l5 22h78l5 23h-78
l5 23h78l5 23h-78l4 22h78l5 23h-78l5 23h78l5 22h-78l5 23h78l5 23h-100l-76 -356q-5 -25 -15 -50.5t-24.5 -48.5t-33.5 -41t-42 -27h91l19 11l16 12h-60l19 23h65l19 22h-69l11 23h73l12 23h-74l9 23h75l6 22h-77zM180 68h136q-9 4 -14 11l-9 12h-98l-11 10l-9 13h105
l-6 22h-110l-6 23h113v23h-115l1 23h116l2 22h-117l4 23h118l5 23h-118l5 22h118l5 23h-118l4 23h118l5 23h-118l5 22h118l5 23h-118l5 23h118l5 23h-118l4 22h118l5 23h-118l5 23h118l5 22h-118l5 23h118l5 23h-141l-73 -341q-4 -18 -6.5 -36t-2.5 -34q0 -32 11 -59.5
t39 -52.5zM571 875l126 -108l-30 -40l-146 68l-175 -68l-13 40l172 108h66z" />
    <glyph glyph-name="Udieresis" unicode="&#xdc;" horiz-adv-x="742" 
d="M835 659l-87 -409q-27 -126 -121 -193q-98 -71 -260 -71q-140 0 -209 46t-69 142q0 34 9 76l87 409h240l-90 -424q-6 -30 -6 -55q0 -33 9 -58q20 -54 74 -54t98 54q38 47 52 113l90 424h183zM628 250h78l5 23h-78l5 22h78l5 23h-78l4 23h78l5 23h-78l5 22h78l5 23h-78
l5 23h78l5 23h-78l4 22h78l5 23h-78l5 23h78l5 22h-78l5 23h78l5 23h-100l-76 -356q-5 -25 -15 -50.5t-24.5 -48.5t-33.5 -41t-42 -27h91l19 11l16 12h-60l19 23h65l19 22h-69l11 23h73l12 23h-74l9 23h75l6 22h-77zM180 68h136q-9 4 -14 11l-9 12h-98l-11 10l-9 13h105
l-6 22h-110l-6 23h113v23h-115l1 23h116l2 22h-117l4 23h118l5 23h-118l5 22h118l5 23h-118l4 23h118l5 23h-118l5 22h118l5 23h-118l5 23h118l5 23h-118l4 22h118l5 23h-118l5 23h118l5 22h-118l5 23h118l5 23h-141l-73 -341q-4 -18 -6.5 -36t-2.5 -34q0 -32 11 -59.5
t39 -52.5zM673 790q-5 -26 -27 -44.5t-48 -18.5q-27 0 -41 18.5t-9 44.5q6 26 28 44.5t49 18.5q26 0 40 -18.5t8 -44.5zM491 790q-5 -26 -27 -44.5t-48 -18.5t-40.5 18.5t-9.5 44.5q6 26 28.5 44.5t48.5 18.5t40 -18.5t8 -44.5z" />
    <glyph glyph-name="Yacute" unicode="&#xdd;" horiz-adv-x="689" 
d="M657 659h149l-286 -409l-53 -250h-239l53 250l-124 409h245l78 -254zM505 320l192 271h-25l-175 -246zM284 68h140l5 23h-118l5 23h118l5 22h-118l5 23h118l5 23h-118l5 23h118l4 22h-118l5 23h118l-7 23h-108l-6 22h107l-6 23h-109l-7 23h108l-6 23h-108l-7 22h108
l-7 23h-108l-7 23h108l-6 23h-109l-7 22h109l-8 23h-108l-7 23h108l-7 22h-108l-7 23h109l-6 23h-134l99 -328zM600 809l-225 -82l-13 40l186 130q20 -5 32 -19t18 -29t6 -27t-4 -13z" />
    <glyph glyph-name="Thorn" unicode="&#xde;" horiz-adv-x="656" 
d="M711 369q-20 -94 -123 -142q-98 -45 -264 -45l-39 -182h-240l140 659h240l-19 -91h73q113 0 178 -53q58 -45 58 -110q0 -8 -1 -17.5t-3 -18.5zM641 341l9 23h-118l4 22h118v23h-116l-1 23h113l-8 23h-108l-8 22h100l-22 23h-122q17 -13 24.5 -36t7.5 -50q0 -23 -5 -50
q-15 -75 -65 -114h96l19 9l22 14h-89l15 22h101l12 10l9 13h-111l8 23h115zM463 369q4 16 4 35q0 38 -19 67t-57 29l-53 -250q101 0 125 119zM100 68h141l5 23h-118l5 23h118l5 22h-118l5 23h118l5 23h-118l5 23h118l4 22h-118l5 23h118l5 23h-118l5 22h118l5 23h-118l4 23
h118l5 23h-118l5 22h118l5 23h-118l5 23h118l5 23h-118l4 22h118l5 23h-118l5 23h118l5 22h-118l5 23h118l5 23h-141z" />
    <glyph glyph-name="germandbls" unicode="&#xdf;" horiz-adv-x="685" 
d="M689 152q-16 -76 -82 -121t-156 -45q-48 0 -83 14t-56 46l21 41q51 -39 108 -39q29 0 49 12t26 41q3 11 -13.5 30t-37.5 37.5t-40 34t-23 20.5q-29 37 -29 83q0 8 1.5 17t2.5 18q7 31 38 62.5t66 61.5t65 57.5t35 50.5q7 32 -7 47.5t-42 15.5q-27 0 -56 -14.5
t-53.5 -38.5t-42 -54.5t-22.5 -63.5l-99 -465h-214l97 454q23 111 110.5 176t221.5 65q133 0 177 -34q30 -23 30 -62q0 -13 -3 -26q-4 -19 -25 -43.5t-45.5 -51t-45.5 -51t-25 -43.5q-3 -12 15 -30t41 -35t44 -31t25 -19q31 -35 31 -82q0 -19 -4 -35zM576 159h71l1 23h-84
l-24 23h104l-13 22h-124l-32 23h134l-31 23h-123l-10 22h96l-28 23h-71l2 23h53l-3 12l-2 11h-40l15 22h29q2 8 4.5 13t5.5 10h-42q-7 -6 -11.5 -12t-9.5 -11q-15 -18 -21 -48q-3 -14 -3 -25q0 -45 39 -78q107 -92 98 -137q-5 -20 -13 -30h52l24 23h-45l5 23h53l9 22h-60z
M418 626l20 10h-95q-42 -19 -63 -35q-68 -53 -88 -146l-83 -387h116l5 23h-93l5 23h93l5 22h-93l5 23h93l5 23h-93l5 23h93l4 22h-93l5 23h94l5 23h-94l5 22h94l5 23h-94l4 23h94l5 23h-94l5 22h94l5 23h-93l5 23h93l5 23h-94l5 22h93l5 23h-90l11 23h88l14 22h-88l19 23h84
l19 23h-75l19 13l22 10h60z" />
    <glyph glyph-name="agrave" unicode="&#xe0;" 
d="M567 295l-63 -295q-17 -14 -59 -14q-41 0 -65 13.5t-45 40.5q-37 -30 -68 -42t-73 -12q-70 0 -111 35q-33 30 -33 76q0 7 1 15.5t3 16.5q19 85 118 130q81 36 188 36q6 27 6 49q0 34 -17 52.5t-56 18.5q-37 0 -65 -11q-11 -4 -22.5 -10.5t-22.5 -15.5l-18 43q52 37 95 51
q57 19 143 19q84 0 127 -39t43 -106q0 -24 -6 -51zM471 68l5 23q-11 1 -28 2t-38 16l-5 5h76l5 22h-89l2 23h92l5 23h-92l5 23h92l4 22h-92l5 23h92l5 23h-92l5 22h91l4 23h-91v23h90l-3 23h-87l-5 22h83l-10 13l-14 10h-101q7 -7 9 -10q9 -11 12.5 -27t3.5 -33
q0 -27 -6 -54l-28 -130q-3 -13 -3 -24q0 -31 29 -49q16 -10 34 -12t35 -2zM319 105l26 122q-41 0 -68.5 -31.5t-35.5 -70.5q-6 -27 2.5 -42t27.5 -15t31.5 8.5t16.5 28.5zM238 205l21 22q-60 0 -104 -26t-54 -72q-1 -6 -1.5 -11.5t-0.5 -9.5q0 -10 2.5 -19.5t7.5 -20.5h93
q-3 0 -3.5 9t-3.5 14h-71l-4 23h75l5 22h-76l6 12l8 11h71l13 23h-57l29 13q9 4 21.5 6t22.5 4zM397 715l131 -130l-30 -40l-191 82q-3 1 2.5 13t17.5 27t30 28.5t40 19.5z" />
    <glyph glyph-name="aacute" unicode="&#xe1;" horiz-adv-x="554" 
d="M567 295l-63 -295q-17 -14 -59 -14q-41 0 -65 13.5t-45 40.5q-37 -30 -68 -42t-73 -12q-70 0 -111 35q-33 30 -33 76q0 7 1 15.5t3 16.5q19 85 118 130q81 36 188 36q6 27 6 49q0 34 -17 52.5t-56 18.5q-37 0 -65 -11q-11 -4 -22.5 -10.5t-22.5 -15.5l-18 43q52 37 95 51
q57 19 143 19q84 0 127 -39t43 -106q0 -24 -6 -51zM471 68l5 23q-11 1 -28 2t-38 16l-5 5h76l5 22h-89l2 23h92l5 23h-92l5 23h92l4 22h-92l5 23h92l5 23h-92l5 22h91l4 23h-91v23h90l-3 23h-87l-5 22h83l-10 13l-14 10h-101q7 -7 9 -10q9 -11 12.5 -27t3.5 -33
q0 -27 -6 -54l-28 -130q-3 -13 -3 -24q0 -31 29 -49q16 -10 34 -12t35 -2zM319 105l26 122q-41 0 -68.5 -31.5t-35.5 -70.5q-6 -27 2.5 -42t27.5 -15t31.5 8.5t16.5 28.5zM238 205l21 22q-60 0 -104 -26t-54 -72q-1 -6 -1.5 -11.5t-0.5 -9.5q0 -10 2.5 -19.5t7.5 -20.5h93
q-3 0 -3.5 9t-3.5 14h-71l-4 23h75l5 22h-76l6 12l8 11h71l13 23h-57l29 13q9 4 21.5 6t22.5 4zM532 627l-225 -82l-13 40l186 130q20 -5 32 -19t18 -29t6 -27t-4 -13z" />
    <glyph glyph-name="acircumflex" unicode="&#xe2;" 
d="M567 295l-63 -295q-17 -14 -59 -14q-41 0 -65 13.5t-45 40.5q-37 -30 -68 -42t-73 -12q-70 0 -111 35q-33 30 -33 76q0 7 1 15.5t3 16.5q19 85 118 130q81 36 188 36q6 27 6 49q0 34 -17 52.5t-56 18.5q-37 0 -65 -11q-11 -4 -22.5 -10.5t-22.5 -15.5l-18 43q52 37 95 51
q57 19 143 19q84 0 127 -39t43 -106q0 -24 -6 -51zM471 68l5 23q-11 1 -28 2t-38 16l-5 5h76l5 22h-89l2 23h92l5 23h-92l5 23h92l4 22h-92l5 23h92l5 23h-92l5 22h91l4 23h-91v23h90l-3 23h-87l-5 22h83l-10 13l-14 10h-101q7 -7 9 -10q9 -11 12.5 -27t3.5 -33
q0 -27 -6 -54l-28 -130q-3 -13 -3 -24q0 -31 29 -49q16 -10 34 -12t35 -2zM319 105l26 122q-41 0 -68.5 -31.5t-35.5 -70.5q-6 -27 2.5 -42t27.5 -15t31.5 8.5t16.5 28.5zM238 205l21 22q-60 0 -104 -26t-54 -72q-1 -6 -1.5 -11.5t-0.5 -9.5q0 -10 2.5 -19.5t7.5 -20.5h93
q-3 0 -3.5 9t-3.5 14h-71l-4 23h75l5 22h-76l6 12l8 11h71l13 23h-57l29 13q9 4 21.5 6t22.5 4zM472 693l126 -108l-30 -40l-146 68l-175 -68l-13 40l172 108h66z" />
    <glyph glyph-name="atilde" unicode="&#xe3;" 
d="M567 295l-63 -295q-17 -14 -59 -14q-41 0 -65 13.5t-45 40.5q-37 -30 -68 -42t-73 -12q-70 0 -111 35q-33 30 -33 76q0 7 1 15.5t3 16.5q19 85 118 130q81 36 188 36q6 27 6 49q0 34 -17 52.5t-56 18.5q-37 0 -65 -11q-11 -4 -22.5 -10.5t-22.5 -15.5l-18 43q52 37 95 51
q57 19 143 19q84 0 127 -39t43 -106q0 -24 -6 -51zM471 68l5 23q-11 1 -28 2t-38 16l-5 5h76l5 22h-89l2 23h92l5 23h-92l5 23h92l4 22h-92l5 23h92l5 23h-92l5 22h91l4 23h-91v23h90l-3 23h-87l-5 22h83l-10 13l-14 10h-101q7 -7 9 -10q9 -11 12.5 -27t3.5 -33
q0 -27 -6 -54l-28 -130q-3 -13 -3 -24q0 -31 29 -49q16 -10 34 -12t35 -2zM319 105l26 122q-41 0 -68.5 -31.5t-35.5 -70.5q-6 -27 2.5 -42t27.5 -15t31.5 8.5t16.5 28.5zM238 205l21 22q-60 0 -104 -26t-54 -72q-1 -6 -1.5 -11.5t-0.5 -9.5q0 -10 2.5 -19.5t7.5 -20.5h93
q-3 0 -3.5 9t-3.5 14h-71l-4 23h75l5 22h-76l6 12l8 11h71l13 23h-57l29 13q9 4 21.5 6t22.5 4zM548 646l33 -13q-22 -39 -53 -63.5t-72 -24.5q-12 0 -28.5 3.5t-34 7.5t-33.5 7.5t-26 3.5q-40 0 -57 -18l-30 19q42 77 124 77q11 0 30.5 -3.5t38 -8t33 -8t16.5 -3.5
q20 0 36 7t23 17z" />
    <glyph glyph-name="adieresis" unicode="&#xe4;" 
d="M567 295l-63 -295q-17 -14 -59 -14q-41 0 -65 13.5t-45 40.5q-37 -30 -68 -42t-73 -12q-70 0 -111 35q-33 30 -33 76q0 7 1 15.5t3 16.5q19 85 118 130q81 36 188 36q6 27 6 49q0 34 -17 52.5t-56 18.5q-37 0 -65 -11q-11 -4 -22.5 -10.5t-22.5 -15.5l-18 43q52 37 95 51
q57 19 143 19q84 0 127 -39t43 -106q0 -24 -6 -51zM471 68l5 23q-11 1 -28 2t-38 16l-5 5h76l5 22h-89l2 23h92l5 23h-92l5 23h92l4 22h-92l5 23h92l5 23h-92l5 22h91l4 23h-91v23h90l-3 23h-87l-5 22h83l-10 13l-14 10h-101q7 -7 9 -10q9 -11 12.5 -27t3.5 -33
q0 -27 -6 -54l-28 -130q-3 -13 -3 -24q0 -31 29 -49q16 -10 34 -12t35 -2zM319 105l26 122q-41 0 -68.5 -31.5t-35.5 -70.5q-6 -27 2.5 -42t27.5 -15t31.5 8.5t16.5 28.5zM238 205l21 22q-60 0 -104 -26t-54 -72q-1 -6 -1.5 -11.5t-0.5 -9.5q0 -10 2.5 -19.5t7.5 -20.5h93
q-3 0 -3.5 9t-3.5 14h-71l-4 23h75l5 22h-76l6 12l8 11h71l13 23h-57l29 13q9 4 21.5 6t22.5 4zM566 608q-5 -26 -27 -44.5t-48 -18.5q-27 0 -41 18.5t-9 44.5q6 26 28 44.5t49 18.5q26 0 40 -18.5t8 -44.5zM384 608q-5 -26 -27 -44.5t-48 -18.5t-40.5 18.5t-9.5 44.5
q6 26 28.5 44.5t48.5 18.5t40 -18.5t8 -44.5z" />
    <glyph glyph-name="aring" unicode="&#xe5;" 
d="M567 295l-63 -295q-17 -14 -59 -14q-41 0 -65 13.5t-45 40.5q-37 -30 -68 -42t-73 -12q-70 0 -111 35q-33 30 -33 76q0 7 1 15.5t3 16.5q19 85 118 130q81 36 188 36q6 27 6 49q0 34 -17 52.5t-56 18.5q-37 0 -65 -11q-11 -4 -22.5 -10.5t-22.5 -15.5l-18 43q52 37 95 51
q57 19 143 19q84 0 127 -39t43 -106q0 -24 -6 -51zM471 68l5 23q-11 1 -28 2t-38 16l-5 5h76l5 22h-89l2 23h92l5 23h-92l5 23h92l4 22h-92l5 23h92l5 23h-92l5 22h91l4 23h-91v23h90l-3 23h-87l-5 22h83l-10 13l-14 10h-101q7 -7 9 -10q9 -11 12.5 -27t3.5 -33
q0 -27 -6 -54l-28 -130q-3 -13 -3 -24q0 -31 29 -49q16 -10 34 -12t35 -2zM319 105l26 122q-41 0 -68.5 -31.5t-35.5 -70.5q-6 -27 2.5 -42t27.5 -15t31.5 8.5t16.5 28.5zM238 205l21 22q-60 0 -104 -26t-54 -72q-1 -6 -1.5 -11.5t-0.5 -9.5q0 -10 2.5 -19.5t7.5 -20.5h93
q-3 0 -3.5 9t-3.5 14h-71l-4 23h75l5 22h-76l6 12l8 11h71l13 23h-57l29 13q9 4 21.5 6t22.5 4zM513 635q-8 -38 -39 -64t-69 -26q-33 0 -52.5 19.5t-19.5 50.5q0 5 0.5 10t1.5 10q8 37 39 63t69 26q33 0 52.5 -19.5t19.5 -49.5q0 -5 -0.5 -10t-1.5 -10zM474 635q4 22 -7 36
t-32 14q-22 0 -39.5 -14t-22.5 -36q-5 -23 6.5 -37t33.5 -14q21 0 39 14t22 37z" />
    <glyph glyph-name="ae" unicode="&#xe6;" horiz-adv-x="827" 
d="M848 227h-291q-6 -29 -6 -53q0 -32 10 -55q24 -51 88 -51q41 0 70.5 7t51.5 25l14 -37q-49 -38 -103.5 -57.5t-126.5 -19.5q-51 0 -95.5 16t-67.5 51q-31 -34 -85.5 -50.5t-112.5 -16.5q-70 0 -111 35q-33 30 -33 76q0 7 1 15.5t3 16.5q19 85 118 130q81 36 188 36
q6 27 6 49q0 34 -17 52.5t-56 18.5q-37 0 -65 -11q-11 -4 -22.5 -10.5t-22.5 -15.5l-18 43q52 37 95 51q57 19 143 19q38 0 66.5 -8t52.5 -24q64 32 140 32q124 0 171 -83q24 -44 24 -102q0 -35 -9 -79zM711 295h100l-1 23h-72v23h68l-8 23h-60l-2 22h51l-7 12l-12 11h-69
q20 -26 15 -81zM572 295h96q5 22 5 49q0 25 -6 45t-21 20q-11 0 -22.5 -11t-22 -27.5t-18 -37t-11.5 -38.5zM540 68l-14 23q-3 5 -20.5 6.5t-22.5 3.5l-26 13h62l-5 22h-82l-13 23h93l1 23h-99l-2 23h104l3 22h-105l4 23h106l6 23h-107l5 22h109l6 23h-111v23h119l10 23
h-129l-5 22h146l17 23h-200q6 -8 7 -9q14 -20 14 -57q0 -13 -2 -28t-5 -30l-7 -30q-4 -19 -6 -35t-2 -30q0 -48 25.5 -74t82.5 -42q14 -3 43 -6zM319 105l26 122q-41 0 -68.5 -31.5t-35.5 -70.5q-6 -27 2.5 -42t27.5 -15t31.5 8.5t16.5 28.5zM238 205l21 22q-60 0 -104 -26
t-54 -72q-1 -6 -1.5 -11.5t-0.5 -9.5q0 -10 2.5 -19.5t7.5 -20.5h93q-3 0 -3.5 9t-3.5 14h-71l-4 23h75l5 22h-76l6 12l8 11h71l13 23h-57l29 13q9 4 21.5 6t22.5 4z" />
    <glyph glyph-name="ccedilla" unicode="&#xe7;" horiz-adv-x="531" 
d="M506 100l13 -37q-55 -41 -106.5 -59t-123.5 -18l-26 -40q35 0 55.5 -20t13.5 -51q-6 -31 -42 -56t-89 -25q-44 0 -90 17l34 48q28 -16 58 -16q22 0 38.5 5t20.5 23q4 20 -13.5 25t-51.5 5h-25l58 90q-85 15 -129 75q-30 45 -30 107q0 33 7 65q25 120 136 190
q98 63 213 63q58 0 95.5 -17.5t56.5 -48.5l-31 -36q-9 12 -31.5 16t-51.5 4q-34 0 -64 -13.5t-54 -36.5t-40.5 -54t-24.5 -67q-3 -12 -4 -24t-1 -23q0 -57 31.5 -90t83.5 -33q42 0 69 8t45 24zM340 399l20 10h-104q-38 -21 -57 -39q-61 -56 -80 -143q-6 -27 -6 -50
q0 -64 50 -109h103l-16 23h-76l-19 23h85l-6 22h-90l-6 23h93l-1 23h-93l2 23h92l2 22h-91l6 23h90l7 23h-90l12 22h88l13 23h-87l17 23h83l20 23h-78l15 11l19 11h65z" />
    <glyph glyph-name="egrave" unicode="&#xe8;" horiz-adv-x="565" 
d="M573 227h-290q-6 -29 -6 -53q0 -32 10 -55q23 -51 88 -51q41 0 70 7t51 25l14 -37q-48 -38 -103 -57.5t-126 -19.5q-100 0 -156 52t-56 135q0 26 6 53q13 62 41.5 111t69.5 83t92.5 52.5t109.5 18.5q124 0 171 -83q23 -40 23 -100q0 -38 -9 -81zM434 295h100l-1 23h-72
v23h67l-7 23h-60l-3 22h52l-8 12l-11 11h-69q6 -10 7 -14q10 -28 7 -67zM298 295h96q2 9 3 20.5t1 24.5q0 26 -6 47.5t-20 21.5q-12 0 -23.5 -11t-21.5 -27.5t-17.5 -37t-11.5 -38.5zM163 68h100l-14 23h-75l-19 23h86l-5 22h-92l-6 23h97v23h-98l2 23h100l3 22h-100l6 23
h99l6 23h-97l11 22h92l7 23h-88l16 23h80l9 23h-69l31 22h51l16 23h-71q-52 -33 -80.5 -78t-41.5 -104q-3 -13 -4 -25.5t-1 -23.5q0 -43 18 -74q8 -15 31 -36zM389 715l131 -130l-30 -40l-191 82q-3 1 2.5 13t17.5 27t30 28.5t40 19.5z" />
    <glyph glyph-name="eacute" unicode="&#xe9;" horiz-adv-x="565" 
d="M573 227h-290q-6 -29 -6 -53q0 -32 10 -55q23 -51 88 -51q41 0 70 7t51 25l14 -37q-48 -38 -103 -57.5t-126 -19.5q-100 0 -156 52t-56 135q0 26 6 53q13 62 41.5 111t69.5 83t92.5 52.5t109.5 18.5q124 0 171 -83q23 -40 23 -100q0 -38 -9 -81zM434 295h100l-1 23h-72
v23h67l-7 23h-60l-3 22h52l-8 12l-11 11h-69q6 -10 7 -14q10 -28 7 -67zM298 295h96q2 9 3 20.5t1 24.5q0 26 -6 47.5t-20 21.5q-12 0 -23.5 -11t-21.5 -27.5t-17.5 -37t-11.5 -38.5zM163 68h100l-14 23h-75l-19 23h86l-5 22h-92l-6 23h97v23h-98l2 23h100l3 22h-100l6 23
h99l6 23h-97l11 22h92l7 23h-88l16 23h80l9 23h-69l31 22h51l16 23h-71q-52 -33 -80.5 -78t-41.5 -104q-3 -13 -4 -25.5t-1 -23.5q0 -43 18 -74q8 -15 31 -36zM522 627l-225 -82l-13 40l186 130q20 -5 32 -19t18 -29t6 -27t-4 -13z" />
    <glyph glyph-name="ecircumflex" unicode="&#xea;" horiz-adv-x="565" 
d="M573 227h-290q-6 -29 -6 -53q0 -32 10 -55q23 -51 88 -51q41 0 70 7t51 25l14 -37q-48 -38 -103 -57.5t-126 -19.5q-100 0 -156 52t-56 135q0 26 6 53q13 62 41.5 111t69.5 83t92.5 52.5t109.5 18.5q124 0 171 -83q23 -40 23 -100q0 -38 -9 -81zM434 295h100l-1 23h-72
v23h67l-7 23h-60l-3 22h52l-8 12l-11 11h-69q6 -10 7 -14q10 -28 7 -67zM298 295h96q2 9 3 20.5t1 24.5q0 26 -6 47.5t-20 21.5q-12 0 -23.5 -11t-21.5 -27.5t-17.5 -37t-11.5 -38.5zM163 68h100l-14 23h-75l-19 23h86l-5 22h-92l-6 23h97v23h-98l2 23h100l3 22h-100l6 23
h99l6 23h-97l11 22h92l7 23h-88l16 23h80l9 23h-69l31 22h51l16 23h-71q-52 -33 -80.5 -78t-41.5 -104q-3 -13 -4 -25.5t-1 -23.5q0 -43 18 -74q8 -15 31 -36zM468 693l126 -108l-30 -40l-146 68l-175 -68l-13 40l172 108h66z" />
    <glyph glyph-name="edieresis" unicode="&#xeb;" horiz-adv-x="565" 
d="M573 227h-290q-6 -29 -6 -53q0 -32 10 -55q23 -51 88 -51q41 0 70 7t51 25l14 -37q-48 -38 -103 -57.5t-126 -19.5q-100 0 -156 52t-56 135q0 26 6 53q13 62 41.5 111t69.5 83t92.5 52.5t109.5 18.5q124 0 171 -83q23 -40 23 -100q0 -38 -9 -81zM434 295h100l-1 23h-72
v23h67l-7 23h-60l-3 22h52l-8 12l-11 11h-69q6 -10 7 -14q10 -28 7 -67zM298 295h96q2 9 3 20.5t1 24.5q0 26 -6 47.5t-20 21.5q-12 0 -23.5 -11t-21.5 -27.5t-17.5 -37t-11.5 -38.5zM163 68h100l-14 23h-75l-19 23h86l-5 22h-92l-6 23h97v23h-98l2 23h100l3 22h-100l6 23
h99l6 23h-97l11 22h92l7 23h-88l16 23h80l9 23h-69l31 22h51l16 23h-71q-52 -33 -80.5 -78t-41.5 -104q-3 -13 -4 -25.5t-1 -23.5q0 -43 18 -74q8 -15 31 -36zM565 608q-5 -26 -27 -44.5t-48 -18.5q-27 0 -41 18.5t-9 44.5q6 26 28 44.5t49 18.5q26 0 40 -18.5t8 -44.5z
M383 608q-5 -26 -27 -44.5t-48 -18.5t-40.5 18.5t-9.5 44.5q6 26 28.5 44.5t48.5 18.5t40 -18.5t8 -44.5z" />
    <glyph glyph-name="igrave" unicode="&#xec;" horiz-adv-x="314" 
d="M361 477l-101 -477h-215l92 432q29 26 73.5 42.5t89.5 16.5q33 0 49 -6q7 -3 12 -8zM109 68h116l5 23h-93l5 23h93l5 22h-93l5 23h93l5 23h-93l5 23h93l4 22h-93l5 23h93l5 23h-93l5 22h93l5 23h-93l4 23h93l5 23h-93q2 0 6.5 3.5l4.5 3.5q24 12 42 13t45 2l5 23h-11
q-14 -1 -45 -4t-67 -29zM269 715l131 -130l-30 -40l-191 82q-3 1 2.5 13t17.5 27t30 28.5t40 19.5z" />
    <glyph glyph-name="iacute" unicode="&#xed;" horiz-adv-x="314" 
d="M361 477l-101 -477h-215l92 432q29 26 73.5 42.5t89.5 16.5q33 0 49 -6q7 -3 12 -8zM109 68h116l5 23h-93l5 23h93l5 22h-93l5 23h93l5 23h-93l5 23h93l4 22h-93l5 23h93l5 23h-93l5 22h93l5 23h-93l4 23h93l5 23h-93q2 0 6.5 3.5l4.5 3.5q24 12 42 13t45 2l5 23h-11
q-14 -1 -45 -4t-67 -29zM403 627l-225 -82l-13 40l186 130q20 -5 32 -19t18 -29t6 -27t-4 -13z" />
    <glyph glyph-name="icircumflex" unicode="&#xee;" horiz-adv-x="314" 
d="M361 477l-101 -477h-215l92 432q29 26 73.5 42.5t89.5 16.5q33 0 49 -6q7 -3 12 -8zM109 68h116l5 23h-93l5 23h93l5 22h-93l5 23h93l5 23h-93l5 23h93l4 22h-93l5 23h93l5 23h-93l5 22h93l5 23h-93l4 23h93l5 23h-93q2 0 6.5 3.5l4.5 3.5q24 12 42 13t45 2l5 23h-11
q-14 -1 -45 -4t-67 -29zM336 693l126 -108l-30 -40l-146 68l-175 -68l-13 40l172 108h66z" />
    <glyph glyph-name="idieresis" unicode="&#xef;" horiz-adv-x="314" 
d="M361 477l-101 -477h-215l92 432q29 26 73.5 42.5t89.5 16.5q33 0 49 -6q7 -3 12 -8zM109 68h116l5 23h-93l5 23h93l5 22h-93l5 23h93l5 23h-93l5 23h93l4 22h-93l5 23h93l5 23h-93l5 22h93l5 23h-93l4 23h93l5 23h-93q2 0 6.5 3.5l4.5 3.5q24 12 42 13t45 2l5 23h-11
q-14 -1 -45 -4t-67 -29zM445 608q-5 -26 -27 -44.5t-48 -18.5q-27 0 -41 18.5t-9 44.5q6 26 28 44.5t49 18.5q26 0 40 -18.5t8 -44.5zM263 608q-5 -26 -27 -44.5t-48 -18.5t-40.5 18.5t-9.5 44.5q6 26 28.5 44.5t48.5 18.5t40 -18.5t8 -44.5z" />
    <glyph glyph-name="FLW240" unicode="&#xf0;" horiz-adv-x="596" 
d="M707 609l-14 -68h-66q15 -51 15 -115q0 -72 -19 -158q-24 -112 -114 -196q-96 -90 -214 -90q-51 0 -92 15t-70 41.5t-44.5 62.5t-15.5 78q0 12 1.5 24t3.5 24q12 57 42.5 104.5t73.5 82t96.5 53.5t111.5 19q22 0 30 -4q5 -3 6 -5q2 7 3 18t1 24v10.5t-1 11.5h-99l14 68
h76q-14 41 -43.5 59.5t-67.5 18.5q-20 0 -41 -3l-2 44q8 3 22 6.5t30 5.5t32 3.5t28 1.5q60 0 116 -32q60 -37 95 -104h106zM567 245l6 23h-91l4 23h92l4 23h-92l3 22h92l3 23h-92l2 23h91l2 23h-89l3 22h86l-1 23h-83l2 23h79l-3 22h-75l1 23h70l-7 23h-64l-1 23h58l-10 22
h-50l-5 23h42l-17 23h-56q4 0 7 -11.5t5 -29.5t3 -40t1 -43v-19t-1 -16q-4 -53 -13 -115.5t-25 -134.5q-18 -88 -48 -140q-3 -5 -6.5 -9.5t-7.5 -9.5h36l32 22h-30l12 23h46l23 23h-60l8 23h70l15 22h-78l7 23h83l10 23h-88l5 22h90zM406 223q14 67 14 110q0 72 -35 72
q-29 0 -56.5 -51.5t-44.5 -130.5q-4 -24 -7 -45t-3 -38q0 -36 10 -56t29 -20q27 0 52 41.5t41 117.5zM305 382l20 23h-69q-35 -18 -52 -33q-56 -53 -77 -149q-2 -13 -3.5 -24.5t-1.5 -22.5q0 -64 48 -112h72l-7 22h-54l-17 23h70l-1 23h-80l-5 23h87l3 22h-92l1 23h94l4 23
h-95l6 22h94l6 23h-94l9 23h92l9 23h-89l15 22h81l12 23h-70l17 13l17 10h50z" />
    <glyph glyph-name="ntilde" unicode="&#xf1;" horiz-adv-x="617" 
d="M634 328l-70 -328h-216l66 310q3 15 3 28q0 38 -33 38q-23 0 -37.5 -18t-23.5 -61l-63 -297h-215l101 477q1 3 8.5 5.5t18 4.5t22 3t18.5 1q39 0 76.5 -17.5t49.5 -35.5q37 27 71 40t74 13q81 0 121 -38q33 -31 33 -84q0 -22 -4 -41zM411 68h118l5 23h-95l5 23h95l5 22
h-95l5 23h95l5 23h-95l5 23h95l4 22h-95l5 23h95l5 23h-95l5 22h95l5 23h-97l1 23h100l1 23h-102l-5 22h104q-1 6 -4 11.5t-8 11.5h-134q14 -13 20 -30.5t6 -37.5q0 -13 -2 -27t-5 -29zM109 68h119l5 23h-96l5 23h96l5 22h-96l5 23h96l5 23h-96l5 23h96l4 22h-96l5 23h96
l5 23h-96l5 22h96l5 23h-96l4 23h96l5 23h-96l5 22h86q-9 0 -25.5 8t-19.5 10q-23 5 -45 5h-14zM558 646l33 -13q-22 -39 -53 -63.5t-72 -24.5q-12 0 -28.5 3.5t-34 7.5t-33.5 7.5t-26 3.5q-40 0 -57 -18l-30 19q42 77 124 77q11 0 30.5 -3.5t38 -8t33 -8t16.5 -3.5
q20 0 36 7t23 17z" />
    <glyph glyph-name="ograve" unicode="&#xf2;" horiz-adv-x="597" 
d="M614 232q-11 -51 -40 -96t-71.5 -78.5t-96 -52.5t-113.5 -19q-51 0 -92 15t-70 41.5t-44.5 62.5t-15.5 78q0 12 1 24t4 25q12 57 42.5 104.5t73.5 82t96.5 53.5t111.5 19q101 0 161 -54t60 -144q0 -14 -1.5 -29.5t-5.5 -31.5zM465 205h96l4 22h-96l5 23h96l4 23h-96l3 22
h94l-1 23h-90l1 23h84l-7 23h-78l-2 22h66l-12 13l-14 10h-77q17 -25 17 -67q0 -23 -4 -52t-12 -63q-18 -90 -49 -140q-2 -4 -5.5 -9t-8.5 -10h72l17 11l14 12h-63l11 23h75l18 22h-83l7 23h91l11 23h-95zM406 227q14 65 14 108q0 74 -37 74q-29 0 -56 -51t-44 -131
q-11 -52 -11 -86q0 -35 10 -54t28 -19q28 0 54 42.5t42 116.5zM303 386l20 23h-69q-55 -25 -85 -71t-44 -111q-5 -28 -5 -48q0 -33 12 -59.5t36 -51.5h71l-5 23h-55l-17 23h70v22h-80l-6 23h87l3 23h-92l1 23h94l4 22h-95l6 23h94l6 23h-93l8 22h92l9 23h-88l15 23h80l12 23
h-70l17 12l17 10h50zM401 715l131 -130l-30 -40l-191 82q-3 1 2.5 13t17.5 27t30 28.5t40 19.5z" />
    <glyph glyph-name="oacute" unicode="&#xf3;" horiz-adv-x="597" 
d="M614 232q-11 -51 -40 -96t-71.5 -78.5t-96 -52.5t-113.5 -19q-51 0 -92 15t-70 41.5t-44.5 62.5t-15.5 78q0 12 1 24t4 25q12 57 42.5 104.5t73.5 82t96.5 53.5t111.5 19q101 0 161 -54t60 -144q0 -14 -1.5 -29.5t-5.5 -31.5zM465 205h96l4 22h-96l5 23h96l4 23h-96l3 22
h94l-1 23h-90l1 23h84l-7 23h-78l-2 22h66l-12 13l-14 10h-77q17 -25 17 -67q0 -23 -4 -52t-12 -63q-18 -90 -49 -140q-2 -4 -5.5 -9t-8.5 -10h72l17 11l14 12h-63l11 23h75l18 22h-83l7 23h91l11 23h-95zM406 227q14 65 14 108q0 74 -37 74q-29 0 -56 -51t-44 -131
q-11 -52 -11 -86q0 -35 10 -54t28 -19q28 0 54 42.5t42 116.5zM303 386l20 23h-69q-55 -25 -85 -71t-44 -111q-5 -28 -5 -48q0 -33 12 -59.5t36 -51.5h71l-5 23h-55l-17 23h70v22h-80l-6 23h87l3 23h-92l1 23h94l4 22h-95l6 23h94l6 23h-93l8 22h92l9 23h-88l15 23h80l12 23
h-70l17 12l17 10h50zM538 627l-225 -82l-13 40l186 130q20 -5 32 -19t18 -29t6 -27t-4 -13z" />
    <glyph glyph-name="ocircumflex" unicode="&#xf4;" horiz-adv-x="597" 
d="M614 232q-11 -51 -40 -96t-71.5 -78.5t-96 -52.5t-113.5 -19q-51 0 -92 15t-70 41.5t-44.5 62.5t-15.5 78q0 12 1 24t4 25q12 57 42.5 104.5t73.5 82t96.5 53.5t111.5 19q101 0 161 -54t60 -144q0 -14 -1.5 -29.5t-5.5 -31.5zM465 205h96l4 22h-96l5 23h96l4 23h-96l3 22
h94l-1 23h-90l1 23h84l-7 23h-78l-2 22h66l-12 13l-14 10h-77q17 -25 17 -67q0 -23 -4 -52t-12 -63q-18 -90 -49 -140q-2 -4 -5.5 -9t-8.5 -10h72l17 11l14 12h-63l11 23h75l18 22h-83l7 23h91l11 23h-95zM406 227q14 65 14 108q0 74 -37 74q-29 0 -56 -51t-44 -131
q-11 -52 -11 -86q0 -35 10 -54t28 -19q28 0 54 42.5t42 116.5zM303 386l20 23h-69q-55 -25 -85 -71t-44 -111q-5 -28 -5 -48q0 -33 12 -59.5t36 -51.5h71l-5 23h-55l-17 23h70v22h-80l-6 23h87l3 23h-92l1 23h94l4 22h-95l6 23h94l6 23h-93l8 22h92l9 23h-88l15 23h80l12 23
h-70l17 12l17 10h50zM477 693l126 -108l-30 -40l-146 68l-175 -68l-13 40l172 108h66z" />
    <glyph glyph-name="otilde" unicode="&#xf5;" horiz-adv-x="595" 
d="M614 232q-11 -51 -40 -96t-71.5 -78.5t-96 -52.5t-113.5 -19q-51 0 -92 15t-70 41.5t-44.5 62.5t-15.5 78q0 12 1 24t4 25q12 57 42.5 104.5t73.5 82t96.5 53.5t111.5 19q101 0 161 -54t60 -144q0 -14 -1.5 -29.5t-5.5 -31.5zM465 205h96l4 22h-96l5 23h96l4 23h-96l3 22
h94l-1 23h-90l1 23h84l-7 23h-78l-2 22h66l-12 13l-14 10h-77q17 -25 17 -67q0 -23 -4 -52t-12 -63q-18 -90 -49 -140q-2 -4 -5.5 -9t-8.5 -10h72l17 11l14 12h-63l11 23h75l18 22h-83l7 23h91l11 23h-95zM406 227q14 65 14 108q0 74 -37 74q-29 0 -56 -51t-44 -131
q-11 -52 -11 -86q0 -35 10 -54t28 -19q28 0 54 42.5t42 116.5zM303 386l20 23h-69q-55 -25 -85 -71t-44 -111q-5 -28 -5 -48q0 -33 12 -59.5t36 -51.5h71l-5 23h-55l-17 23h70v22h-80l-6 23h87l3 23h-92l1 23h94l4 22h-95l6 23h94l6 23h-93l8 22h92l9 23h-88l15 23h80l12 23
h-70l17 12l17 10h50zM555 646l33 -13q-22 -39 -53 -63.5t-72 -24.5q-12 0 -28.5 3.5t-34 7.5t-33.5 7.5t-26 3.5q-40 0 -57 -18l-30 19q42 77 124 77q11 0 30.5 -3.5t38 -8t33 -8t16.5 -3.5q20 0 36 7t23 17z" />
    <glyph glyph-name="odieresis" unicode="&#xf6;" horiz-adv-x="597" 
d="M614 232q-11 -51 -40 -96t-71.5 -78.5t-96 -52.5t-113.5 -19q-51 0 -92 15t-70 41.5t-44.5 62.5t-15.5 78q0 12 1 24t4 25q12 57 42.5 104.5t73.5 82t96.5 53.5t111.5 19q101 0 161 -54t60 -144q0 -14 -1.5 -29.5t-5.5 -31.5zM465 205h96l4 22h-96l5 23h96l4 23h-96l3 22
h94l-1 23h-90l1 23h84l-7 23h-78l-2 22h66l-12 13l-14 10h-77q17 -25 17 -67q0 -23 -4 -52t-12 -63q-18 -90 -49 -140q-2 -4 -5.5 -9t-8.5 -10h72l17 11l14 12h-63l11 23h75l18 22h-83l7 23h91l11 23h-95zM406 227q14 65 14 108q0 74 -37 74q-29 0 -56 -51t-44 -131
q-11 -52 -11 -86q0 -35 10 -54t28 -19q28 0 54 42.5t42 116.5zM303 386l20 23h-69q-55 -25 -85 -71t-44 -111q-5 -28 -5 -48q0 -33 12 -59.5t36 -51.5h71l-5 23h-55l-17 23h70v22h-80l-6 23h87l3 23h-92l1 23h94l4 22h-95l6 23h94l6 23h-93l8 22h92l9 23h-88l15 23h80l12 23
h-70l17 12l17 10h50zM581 608q-5 -26 -27 -44.5t-48 -18.5q-27 0 -41 18.5t-9 44.5q6 26 28 44.5t49 18.5q26 0 40 -18.5t8 -44.5zM399 608q-5 -26 -27 -44.5t-48 -18.5t-40.5 18.5t-9.5 44.5q6 26 28.5 44.5t48.5 18.5t40 -18.5t8 -44.5z" />
    <glyph glyph-name="divide" unicode="&#xf7;" horiz-adv-x="589" 
d="M466 473q-7 -30 -32.5 -51.5t-55.5 -21.5t-47 21.5t-10 51.5q6 30 32 51t56 21t46.5 -21t10.5 -51zM618 364l-24 -114h-496l24 114h496zM395 140q-7 -30 -32.5 -51.5t-55.5 -21.5t-47 21.5t-10 51.5q6 30 32 51.5t56 21.5t46.5 -21.5t10.5 -51.5zM413 473q3 19 -15 19
q-8 0 -15 -5.5t-8 -13.5q-5 -18 15 -18q7 0 14 5.5t9 12.5zM172 295h368l5 23h-368zM342 140q3 19 -15 19q-8 0 -14.5 -5.5t-8.5 -13.5q-4 -18 15 -18q7 0 14 5t9 13z" />
    <glyph glyph-name="oslash" unicode="&#xf8;" horiz-adv-x="595" 
d="M640 500l37 -47l-79 -65q23 -44 23 -94q0 -31 -7 -62q-11 -51 -40 -96t-71.5 -78.5t-96 -52.5t-113.5 -19q-80 0 -136 37l-85 -70l-37 48l76 63q-40 49 -40 121q0 20 5 47q12 57 42.5 104.5t73.5 82t96.5 53.5t111.5 19q102 0 161 -56zM465 205h96l4 22h-96l5 23h96l4 23
h-96l3 22h94l-1 23h-90l1 23h84l-7 23h-78l-2 22h66l-12 13l-14 10h-77q17 -25 17 -67q0 -23 -4 -52t-12 -63q-18 -90 -49 -140q-2 -4 -5.5 -9t-8.5 -10h72l17 11l14 12h-63l11 23h75l18 22h-83l7 23h91l11 23h-95zM406 227q14 65 14 108q0 74 -37 74q-29 0 -56 -51
t-44 -131q-11 -52 -11 -86q0 -35 10 -54t28 -19q28 0 54 42.5t42 116.5zM303 386l20 23h-69q-55 -25 -85 -71t-44 -111q-5 -28 -5 -48q0 -33 12 -59.5t36 -51.5h71l-5 23h-55l-17 23h70v22h-80l-6 23h87l3 23h-92l1 23h94l4 22h-95l6 23h94l6 23h-93l8 22h92l9 23h-88l15 23
h80l12 23h-70l17 12l17 10h50z" />
    <glyph glyph-name="ugrave" unicode="&#xf9;" horiz-adv-x="617" 
d="M668 477l-101 -477q-13 -8 -30 -11t-36 -3q-39 0 -76.5 17.5t-50.5 35.5q-68 -53 -144 -53q-81 0 -123 39q-35 32 -35 83q0 10 1.5 20t3.5 21l69 328h214l-72 -341q-3 -15 -3 -27q0 -41 38 -41q44 0 59 68l72 341h214zM534 68l5 23q-13 1 -31 2t-38 16l-5 5h79l5 22h-93
l3 23h95l5 23h-95l5 23h95l4 22h-95l5 23h95l5 23h-95l5 22h95l5 23h-95l4 23h95l5 23h-95l5 22h95l5 23h-118l-54 -254q-1 -5 -1.5 -10t-0.5 -10q0 -35 31 -53q17 -10 35.5 -12t34.5 -2zM225 68h11l-2 23q-15 1 -34.5 2t-38.5 16l-5 5h80l4 22h-93l2 23h96l5 23h-96l5 23
h96l4 22h-96l5 23h96l5 23h-96l5 22h96l5 23h-96l4 23h96l5 23h-96l5 22h96l5 23h-118l-54 -254q-9 -41 18 -64t69 -23h12zM414 715l131 -130l-30 -40l-191 82q-3 1 2.5 13t17.5 27t30 28.5t40 19.5z" />
    <glyph glyph-name="uacute" unicode="&#xfa;" horiz-adv-x="617" 
d="M668 477l-101 -477q-13 -8 -30 -11t-36 -3q-39 0 -76.5 17.5t-50.5 35.5q-68 -53 -144 -53q-81 0 -123 39q-35 32 -35 83q0 10 1.5 20t3.5 21l69 328h214l-72 -341q-3 -15 -3 -27q0 -41 38 -41q44 0 59 68l72 341h214zM534 68l5 23q-13 1 -31 2t-38 16l-5 5h79l5 22h-93
l3 23h95l5 23h-95l5 23h95l4 22h-95l5 23h95l5 23h-95l5 22h95l5 23h-95l4 23h95l5 23h-95l5 22h95l5 23h-118l-54 -254q-1 -5 -1.5 -10t-0.5 -10q0 -35 31 -53q17 -10 35.5 -12t34.5 -2zM225 68h11l-2 23q-15 1 -34.5 2t-38.5 16l-5 5h80l4 22h-93l2 23h96l5 23h-96l5 23
h96l4 22h-96l5 23h96l5 23h-96l5 22h96l5 23h-96l4 23h96l5 23h-96l5 22h96l5 23h-118l-54 -254q-9 -41 18 -64t69 -23h12zM551 627l-225 -82l-13 40l186 130q20 -5 32 -19t18 -29t6 -27t-4 -13z" />
    <glyph glyph-name="ucircumflex" unicode="&#xfb;" horiz-adv-x="617" 
d="M668 477l-101 -477q-13 -8 -30 -11t-36 -3q-39 0 -76.5 17.5t-50.5 35.5q-68 -53 -144 -53q-81 0 -123 39q-35 32 -35 83q0 10 1.5 20t3.5 21l69 328h214l-72 -341q-3 -15 -3 -27q0 -41 38 -41q44 0 59 68l72 341h214zM534 68l5 23q-13 1 -31 2t-38 16l-5 5h79l5 22h-93
l3 23h95l5 23h-95l5 23h95l4 22h-95l5 23h95l5 23h-95l5 22h95l5 23h-95l4 23h95l5 23h-95l5 22h95l5 23h-118l-54 -254q-1 -5 -1.5 -10t-0.5 -10q0 -35 31 -53q17 -10 35.5 -12t34.5 -2zM225 68h11l-2 23q-15 1 -34.5 2t-38.5 16l-5 5h80l4 22h-93l2 23h96l5 23h-96l5 23
h96l4 22h-96l5 23h96l5 23h-96l5 22h96l5 23h-96l4 23h96l5 23h-96l5 22h96l5 23h-118l-54 -254q-9 -41 18 -64t69 -23h12zM485 693l126 -108l-30 -40l-146 68l-175 -68l-13 40l172 108h66z" />
    <glyph glyph-name="udieresis" unicode="&#xfc;" horiz-adv-x="617" 
d="M668 477l-101 -477q-13 -8 -30 -11t-36 -3q-39 0 -76.5 17.5t-50.5 35.5q-68 -53 -144 -53q-81 0 -123 39q-35 32 -35 83q0 10 1.5 20t3.5 21l69 328h214l-72 -341q-3 -15 -3 -27q0 -41 38 -41q44 0 59 68l72 341h214zM534 68l5 23q-13 1 -31 2t-38 16l-5 5h79l5 22h-93
l3 23h95l5 23h-95l5 23h95l4 22h-95l5 23h95l5 23h-95l5 22h95l5 23h-95l4 23h95l5 23h-95l5 22h95l5 23h-118l-54 -254q-1 -5 -1.5 -10t-0.5 -10q0 -35 31 -53q17 -10 35.5 -12t34.5 -2zM225 68h11l-2 23q-15 1 -34.5 2t-38.5 16l-5 5h80l4 22h-93l2 23h96l5 23h-96l5 23
h96l4 22h-96l5 23h96l5 23h-96l5 22h96l5 23h-96l4 23h96l5 23h-96l5 22h96l5 23h-118l-54 -254q-9 -41 18 -64t69 -23h12zM586 608q-5 -26 -27 -44.5t-48 -18.5q-27 0 -41 18.5t-9 44.5q6 26 28 44.5t49 18.5q26 0 40 -18.5t8 -44.5zM404 608q-5 -26 -27 -44.5t-48 -18.5
t-40.5 18.5t-9.5 44.5q6 26 28.5 44.5t48.5 18.5t40 -18.5t8 -44.5z" />
    <glyph glyph-name="yacute" unicode="&#xfd;" horiz-adv-x="582" 
d="M533 477h129l-431 -659h-129l116 178l-100 481h209l51 -237zM223 -114l342 523h-25l-342 -523h25zM325 159l16 23h-89l-5 23h91l-6 22h-90l-5 23h91l-5 23h-91l-4 22h90l-5 23h-90l-6 23h91l-5 23h-90l-5 22h91l-5 23h-115l70 -341h16l15 23h-11l-4 23h30l15 22h-50
l-4 23h69zM557 627l-225 -82l-13 40l186 130q20 -5 32 -19t18 -29t6 -27t-4 -13z" />
    <glyph glyph-name="thorn" unicode="&#xfe;" horiz-adv-x="615" 
d="M637 223q-20 -92 -91 -159q-82 -78 -193 -78q-29 0 -49 9.5t-39 27.5l-44 -205h-215l179 841h215l-43 -204q26 24 48.5 30t54.5 6q121 0 163 -81q24 -44 24 -103q0 -41 -10 -84zM489 205h97l4 22h-97l5 23h97l4 23h-96l3 22h94v23h-91v23h87l-8 23h-79l-2 22h69l-13 13
l-14 10h-79q17 -24 17 -67q0 -23 -4.5 -52t-11.5 -63q-18 -87 -49 -140q-5 -9 -14 -19h73l18 11l14 12h-66l12 23h77l18 22h-86l8 23h91l10 23h-94zM431 227q14 65 14 109q0 34 -9 53.5t-28 19.5q-29 0 -56 -50.5t-44 -131.5q-6 -27 -8.5 -49.5t-2.5 -40.5q0 -69 38 -69
q26 0 53 41t43 118zM71 -114h119l5 23h-96l5 23h96l4 23h-96l5 22h96l5 23h-96l5 23h96l5 22h-96l4 23h96l5 23h-96l5 23h96l5 22h-96l5 23h96l5 23h-96l5 23h96l4 22h-96l5 23h96l5 23h-96l5 22h96l5 23h-96l4 23h96l5 23h-96l5 22h96l5 23h-96l5 23h96l5 23h-96l4 22h96
l5 23h-96l5 23h96l5 22h-96l5 23h96l5 23h-119z" />
    <glyph glyph-name="ydieresis" unicode="&#xff;" horiz-adv-x="581" 
d="M533 477h129l-431 -659h-129l116 178l-100 481h209l51 -237zM223 -114l342 523h-25l-342 -523h25zM325 159l16 23h-89l-5 23h91l-6 22h-90l-5 23h91l-5 23h-91l-4 22h90l-5 23h-90l-6 23h91l-5 23h-90l-5 22h91l-5 23h-115l70 -341h16l15 23h-11l-4 23h30l15 22h-50
l-4 23h69zM583 608q-5 -26 -27 -44.5t-48 -18.5q-27 0 -41 18.5t-9 44.5q6 26 28 44.5t49 18.5q26 0 40 -18.5t8 -44.5zM401 608q-5 -26 -27 -44.5t-48 -18.5t-40.5 18.5t-9.5 44.5q6 26 28.5 44.5t48.5 18.5t40 -18.5t8 -44.5z" />
    <glyph glyph-name="dotlessi" unicode="&#x131;" horiz-adv-x="309" 
d="M361 477l-101 -477h-215l92 432q29 26 73.5 42.5t89.5 16.5q33 0 49 -6q7 -3 12 -8zM109 68h116l5 23h-93l5 23h93l5 22h-93l5 23h93l5 23h-93l5 23h93l4 22h-93l5 23h93l5 23h-93l5 22h93l5 23h-93l4 23h93l5 23h-93q2 0 6.5 3.5l4.5 3.5q24 12 42 13t45 2l5 23h-11
q-14 -1 -45 -4t-67 -29z" />
    <glyph glyph-name="Lslash" unicode="&#x141;" horiz-adv-x="575" 
d="M565 68l-14 -68h-460l68 318h-64l14 68h64l58 273h239l-58 -273h69l-14 -68h-69l-54 -250h221zM146 68h141l5 23h-118l5 23h118l5 22h-118l5 23h118l5 23h-118l5 23h118l4 22h-118l5 23h118l5 23h-118l5 22h118l5 23h-118l4 23h118l5 23h-118l5 22h118l5 23h-118l5 23
h118l5 23h-118l4 22h118l5 23h-118l5 23h118l5 22h-118l5 23h118l5 23h-141z" />
    <glyph glyph-name="lslash" unicode="&#x142;" horiz-adv-x="400" 
d="M453 386l-14 -68h-66l-68 -318h-214l68 318h-64l14 68h64l58 273h214l-58 -273h66zM155 68h118l5 23h-95l5 23h95l5 22h-95l5 23h95l5 23h-95l5 23h95l4 22h-95l5 23h95l5 23h-95l5 22h95l5 23h-95l4 23h95l5 23h-95l5 22h95l5 23h-95l5 23h95l5 23h-95l4 22h95l5 23h-95
l5 23h95l5 22h-95l5 23h95l5 23h-118z" />
    <glyph glyph-name="OE" unicode="&#x152;" horiz-adv-x="1042" 
d="M1026 68l-14 -68h-480q-62 -14 -122 -14q-163 0 -250 84q-72 68 -72 177q0 39 9 84q36 167 173 259q123 84 286 84q65 0 119 -15h477l-14 -68h-221l-44 -205h131l-14 -68h-131l-54 -250h221zM495 68h253l5 23h-187l24 23h168l5 22h-152l18 23h139l5 23h-129l12 23h122
l4 22h-116l10 23h111l5 23h-109l8 22h106l5 23h-104l4 23h104l5 23h-106l2 22h109l5 23h-111l-1 23h117l5 23h-122l-4 22h130l5 23h-139l-6 23h150l5 22h-165l-16 23h186l5 23h-253q51 -25 69 -103q8 -35 8 -71q0 -21 -3 -43t-7 -45q-17 -82 -61 -150q-44 -71 -118 -111z
M627 331q10 43 10 83q0 61 -24 107q-28 54 -74 70q-33 -10 -61.5 -31t-55.5 -53q-62 -74 -84 -176q-9 -43 -9 -81q0 -60 22 -105q27 -60 76 -77q61 19 118 88q61 76 82 175zM229 68h124l-29 23h-81l-32 23h90l-13 22h-97l-15 23h103l-6 23h-108l-6 23h110l-3 22h-113l-1 23
h114l1 23h-114l2 22h114l4 23h-114l4 23h114l5 23h-113l8 22h113l9 23h-113l11 23h111l12 23h-108l15 22h105l15 23h-99l24 23h93l20 22h-84l38 23h77l35 23h-120q-75 -41 -125 -109t-68 -151q-8 -42 -8 -74q0 -47 14 -87q24 -62 85 -102z" />
    <glyph glyph-name="oe" unicode="&#x153;" horiz-adv-x="895" 
d="M911 227h-291q-6 -29 -6 -53q0 -32 10 -55q24 -51 88 -51q41 0 70.5 7t51.5 25l14 -37q-49 -38 -103.5 -57.5t-126.5 -19.5q-94 0 -151 48q-81 -48 -174 -48q-51 0 -92 15t-70 41.5t-44.5 62.5t-15.5 78q0 12 1 24t4 25q12 57 42.5 104.5t73.5 82t96.5 53.5t111.5 19
q96 0 154 -49q76 49 171 49q124 0 171 -83q24 -42 24 -102q0 -37 -9 -79zM771 295h100l-1 23h-72v23h68l-8 23h-60l-2 22h51l-7 12l-12 11h-69q20 -26 15 -81zM635 295h96q5 22 5 47t-6 46t-21 21q-11 0 -22.5 -11t-22 -27.5t-18 -37t-11.5 -38.5zM383 68h217l-14 23h-163
l11 23h145l-5 22h-130l7 23h121l1 23h-115l7 23h111l3 22h-110l5 23h110l6 23h-112l3 22h116l6 23h-119l1 23h126l10 23h-137l-2 22h151l17 23h-205q17 -25 17 -67q0 -23 -4 -52t-12 -63q-18 -90 -49 -140q-2 -4 -5.5 -9t-8.5 -10zM406 227q14 65 14 108q0 74 -37 74
q-29 0 -56 -51t-44 -131q-11 -52 -11 -86q0 -35 10 -54t28 -19q28 0 54 42.5t42 116.5zM303 386l20 23h-69q-55 -25 -85 -71t-44 -111q-5 -28 -5 -48q0 -33 12 -59.5t36 -51.5h71l-5 23h-55l-17 23h70v22h-80l-6 23h87l3 23h-92l1 23h94l4 22h-95l6 23h94l6 23h-93l8 22h92
l9 23h-88l15 23h80l12 23h-70l17 12l17 10h50z" />
    <glyph glyph-name="Scaron" unicode="&#x160;" horiz-adv-x="582" 
d="M598 212q-11 -52 -41.5 -93.5t-76.5 -71t-105.5 -45t-127.5 -15.5q-92 0 -150 34q-31 18 -54 52l32 57q39 -30 86 -46t94 -16q44 0 76.5 18.5t39.5 53.5q8 36 -63 80q-109 67 -130 89q-51 51 -51 117q0 18 5 43q10 46 38.5 83.5t70 64.5t92.5 41.5t106 14.5
q165 0 215 -82l-42 -46q-14 20 -59.5 33t-91.5 13q-37 0 -72 -13.5t-42 -50.5q-6 -33 67 -72q52 -29 86 -49t49 -34q53 -49 53 -119q0 -22 -4 -41zM427 205h113l3 22h-132l-24 23h156l-5 23h-184l-36 22h209l-18 23h-228l-33 23h234l-35 23h-224l-16 22h200l-39 23h-171
l-4 23h140l-22 23h-118l3 22h100l-6 23h-86l12 23h74l6 22h-62l26 23h51l25 23h-75q-71 -45 -87 -122q-2 -8 -3 -16.5t-1 -16.5q0 -30 13 -57.5t40 -48.5q31 -22 64.5 -42.5t65.5 -42.5q70 -47 58 -105q-5 -22 -14.5 -39.5t-27.5 -32.5h64l36 23h-55l13 23h67l18 22h-78
l3 23h88l9 23h-99zM608 897l12 -40l-185 -130h-66l-131 130l30 40l156 -68z" />
    <glyph glyph-name="scaron" unicode="&#x161;" horiz-adv-x="447" 
d="M450 152q-16 -76 -87.5 -121t-173.5 -45q-53 0 -92.5 13.5t-62.5 46.5l22 41q29 -19 58 -29t63 -10q32 0 53.5 12t27.5 41q3 12 -15 31t-41.5 37.5t-45.5 33.5t-26 20q-34 37 -34 87q0 15 3 31q7 34 29 62t53.5 47.5t70 30t79.5 10.5q121 0 161 -60l-32 -33
q-12 15 -40.5 23.5t-61.5 8.5q-31 0 -54 -10t-28 -36q-3 -12 17 -29.5t46 -35t49.5 -31.5t27.5 -19q37 -37 37 -86q0 -15 -3 -31zM324 159h79l1 23h-94l-26 23h115l-16 22h-137l-37 23h150l-36 23h-136l-12 22h107l-31 23h-79l1 23h60l-4 12l-2 11h-45q3 7 16 22h31
q7 17 12 23h-47q-38 -33 -45 -71q-3 -10 -3 -22q0 -45 36 -73q20 -17 43 -30t43 -29q47 -36 36 -86q-5 -21 -14 -30h58l26 23h-50l5 23h59l9 22h-67zM541 715l12 -40l-185 -130h-66l-131 130l30 40l156 -68z" />
    <glyph glyph-name="Ydieresis" unicode="&#x178;" horiz-adv-x="685" 
d="M657 659h149l-286 -409l-53 -250h-239l53 250l-124 409h245l78 -254zM505 320l192 271h-25l-175 -246zM284 68h140l5 23h-118l5 23h118l5 22h-118l5 23h118l5 23h-118l5 23h118l4 22h-118l5 23h118l-7 23h-108l-6 22h107l-6 23h-109l-7 23h108l-6 23h-108l-7 22h108
l-7 23h-108l-7 23h108l-6 23h-109l-7 22h109l-8 23h-108l-7 23h108l-7 22h-108l-7 23h109l-6 23h-134l99 -328zM639 791q-5 -26 -27 -44.5t-48 -18.5q-27 0 -41 18.5t-9 44.5q6 26 28 44.5t49 18.5q26 0 40 -18.5t8 -44.5zM457 791q-5 -26 -27 -44.5t-48 -18.5t-40.5 18.5
t-9.5 44.5q6 26 28.5 44.5t48.5 18.5t40 -18.5t8 -44.5z" />
    <glyph glyph-name="Zcaron" unicode="&#x17d;" horiz-adv-x="660" 
d="M647 68l-14 -68h-616l454 591h-296l14 68h584l-454 -591h328zM638 568l17 23h-137l-403 -523h139l18 23h-113l19 23h111l17 22h-112l18 23h112l18 23h-112l18 23h111l17 22h-112l18 23h111l19 23h-112l17 22h112l17 23h-112l17 23h112l18 23h-112l18 22h111l18 23h-112
l17 23h112l19 23h-113l17 22h111l18 23h-112l18 23h112l18 22h-112l17 23h112zM674 898l12 -40l-185 -130h-66l-131 130l30 40l156 -68z" />
    <glyph glyph-name="zcaron" unicode="&#x17e;" horiz-adv-x="538" 
d="M138 477h489l-331 -409h230l-14 -68h-493l333 409h-228zM497 386l18 23h-112l-276 -341h112l18 23h-84l18 23h85l18 22h-84l19 23h84l19 23h-85l19 23h83l19 22h-85l18 23h85l18 23h-84l18 22h85l19 23h-85l19 23h83l19 23h-85l19 22h85zM610 715l12 -40l-185 -130h-66
l-131 130l30 40l156 -68z" />
    <glyph glyph-name="florin" unicode="&#x192;" horiz-adv-x="351" 
d="M468 673l-10 -49q-54 -19 -84 -67t-44 -115l-17 -78h50l-14 -69h-50l-50 -235q-22 -102 -98 -167t-193 -75l11 52q49 22 77 68.5t41 110.5l53 246h-50l14 69h50l15 67q22 106 99 172q84 70 200 70zM320 562l-16 11q-51 -63 -67 -142l-82 -382q-5 -25 -18 -55t-31 -55
l15 -12q42 52 60 133l81 382q8 34 23 66t35 54z" />
    <glyph glyph-name="hungarumlaut" unicode="&#x2ba;" 
d="M631 662l-215 -117l-21 35l166 155q29 0 47 -20.5t23 -52.5zM423 662l-215 -117l-21 35l166 155q29 0 47 -20.5t23 -52.5z" />
    <glyph glyph-name="circumflex" unicode="&#x2c6;" horiz-adv-x="466" 
d="M407 693l126 -108l-30 -40l-146 68l-175 -68l-13 40l172 108h66z" />
    <glyph glyph-name="caron" unicode="&#x2c7;" horiz-adv-x="466" 
d="M557 715l12 -40l-185 -130h-66l-131 130l30 40l156 -68z" />
    <glyph glyph-name="breve" unicode="&#x2d8;" horiz-adv-x="394" 
d="M444 681l37 -27q-24 -50 -67.5 -79.5t-95.5 -29.5q-55 0 -84.5 29t-32.5 80l49 28q12 -55 85 -55q36 0 62.5 12.5t46.5 41.5z" />
    <glyph glyph-name="dotaccent" unicode="&#x2d9;" horiz-adv-x="225" 
d="M304 608q-5 -26 -27 -44.5t-48 -18.5t-40.5 18.5t-9.5 44.5q6 26 28.5 44.5t48.5 18.5t40 -18.5t8 -44.5z" />
    <glyph glyph-name="ring" unicode="&#x2da;" horiz-adv-x="297" 
d="M373 635q-8 -38 -39 -64t-69 -26q-33 0 -52.5 19.5t-19.5 50.5q0 5 0.5 10t1.5 10q8 37 39 63t69 26q33 0 52.5 -19.5t19.5 -49.5q0 -5 -0.5 -10t-1.5 -10zM334 635q4 22 -7 36t-32 14q-22 0 -39.5 -14t-22.5 -36q-5 -23 6.5 -37t33.5 -14q21 0 39 14t22 37z" />
    <glyph glyph-name="ogonek" unicode="&#x2db;" horiz-adv-x="313" 
d="M201 -146l-10 -47q-34 -19 -71 -19q-44 0 -68.5 23t-16.5 64q7 31 45 59.5t93 42.5l57 15l-11 -54l-31 -9q-28 -8 -52 -20.5t-28 -33.5q-3 -17 10.5 -24.5t33.5 -7.5q10 0 23 2.5t26 8.5z" />
    <glyph glyph-name="tilde" unicode="&#x2dc;" horiz-adv-x="466" 
d="M497 646l33 -13q-22 -39 -53 -63.5t-72 -24.5q-12 0 -28.5 3.5t-34 7.5t-33.5 7.5t-26 3.5q-40 0 -57 -18l-30 19q42 77 124 77q11 0 30.5 -3.5t38 -8t33 -8t16.5 -3.5q20 0 36 7t23 17z" />
    <glyph glyph-name="summation" unicode="&#x3a3;" horiz-adv-x="655" 
d="M652 136l-29 -136h-596l260 293l-120 366h596l-29 -136h-68l15 68h-250l74 -225l-266 -298h330l15 68h68zM420 341l21 23h-109l-6 22h108l-7 23h-109l-7 23h109l-7 23h-109l-8 22h109l-8 23h-109l-7 23h109l-7 22h-110l-7 23h110l-7 23h-137l103 -314l-188 -209h29
l185 207l-5 20h23l21 23h-52l-8 23h80z" />
    <glyph glyph-name="Omega" unicode="&#x3a9;" horiz-adv-x="827" 
d="M812 68l-14 -68h-317l-7 91q57 37 97.5 102t55.5 138q10 43 10 83q0 61 -24 107q-28 54 -74 70q-33 -10 -61.5 -31t-55.5 -53q-62 -74 -84 -176q-9 -43 -9 -81q0 -98 61 -159l-44 -91h-319l14 68h119q-34 32 -53 78t-19 104q0 39 9 81q36 167 173 259q124 83 286 83
q160 0 250 -82q72 -67 72 -176q0 -19 -3 -40t-7 -44q-18 -85 -64 -152t-111 -111h119zM795 295l7 23h-105l4 23h105l3 23h-104l2 22h104l1 23h-102l-1 23h102l-3 23h-99l-4 22h97l-9 23h-92l-6 23h88l-14 22h-84l-16 23h81l-27 23h-116q51 -25 69 -103q8 -35 8 -71
q0 -21 -3 -43t-7 -45q-15 -70 -47 -128q-40 -69 -101 -114l2 -19h72l42 23h-76l24 23h84l25 22h-88l18 23h92l19 23h-96l12 23h99l12 22h-101l10 23h102l9 23h-104l8 22h104zM416 568l35 23h-120q-75 -41 -125 -109t-68 -151q-8 -42 -8 -74q0 -47 14 -87q24 -62 85 -102h80
l12 23h-78l-32 23h90l-13 22h-97l-15 23h103l-6 23h-108l-6 23h110l-3 22h-113l-1 23h114l1 23h-114l2 22h114l4 23h-114l4 23h114l5 23h-113l8 22h113l9 23h-113l11 23h111l12 23h-108l15 22h105l15 23h-99l24 23h93l20 22h-84l38 23h77z" />
    <glyph glyph-name="pi" unicode="&#x3c0;" horiz-adv-x="698" 
d="M687 55l-40 -69q-115 0 -175.5 49t-60.5 135q0 26 6 58l39 181h-68l-87 -409h-215l87 409h-59l14 68h623l-14 -68h-67l-41 -192q-5 -23 -5 -42q0 -37 16 -69t47 -51zM512 68h88l-12 23h-66l-19 23h78l-3 22h-86l-5 23h89l1 23h-91l2 23h91l4 22h-92l5 23h92l5 23h-93
l5 22h93l5 23h-93l4 23h93l5 23h-93l5 22h93l5 23h-116l-40 -187q-2 -12 -3.5 -23t-1.5 -22q0 -74 51 -109zM149 68h119l5 23h-96l5 23h96l5 22h-96l5 23h96l5 23h-96l5 23h96l4 22h-96l5 23h96l5 23h-96l5 22h96l5 23h-96l4 23h96l5 23h-96l5 22h96l5 23h-119z" />
    <glyph glyph-name="endash" unicode="&#x2013;" horiz-adv-x="684" 
d="M704 341l-33 -159h-587l33 159h587zM162 250h459l5 23h-459z" />
    <glyph glyph-name="emdash" unicode="&#x2014;" horiz-adv-x="956" 
d="M977 341l-33 -159h-860l33 159h860zM162 250h732l5 23h-732z" />
    <glyph glyph-name="quoteleft" unicode="&#x2018;" horiz-adv-x="284" 
d="M394 731l22 -37q-25 -17 -47 -45t-26 -48q-3 -13 4.5 -46.5t7.5 -68.5q0 -16 -3 -31q-5 -24 -18.5 -44.5t-32.5 -36t-41.5 -24.5t-46.5 -9q-41 0 -66.5 25.5t-25.5 63.5q0 13 3 25q10 49 34 93.5t61 76.5q79 70 175 106zM197 455h106l3 22h-105l8 23h96l-7 23h-80l13 22
h60l-1 23h-42l23 23h21l6 23h-33q-41 -35 -58 -65q-25 -41 -36 -94q-3 -12 -2 -24.5t9 -21.5h100l9 11l8 12h-96z" />
    <glyph glyph-name="quoteright" unicode="&#x2019;" horiz-adv-x="282" 
d="M378 579q-22 -104 -96 -171q-40 -34 -83.5 -61t-91.5 -44l-21 37q25 17 46.5 45t26.5 48q3 13 -4.5 46.5t-7.5 68.5q0 16 3 31q5 24 18.5 44.5t32 36t41 24.5t46.5 9q41 0 66.5 -26t25.5 -65v-11.5t-2 -11.5zM229 591h102l-2 12t-3 11h-109q-14 -17 -18 -35
q-3 -17 -1 -34.5t6 -34.5t7 -32.5t0 -27.5t-5.5 -21t-6.5 -15q0 -1 -4 -5l18 -12q7 9 12.5 18t7.5 17l2 10q1 4 1.5 7.5t0.5 5.5h25l19 22h-44l-1 23h59l12 23h-80l-6 22h96l8 23h-102l1 11z" />
    <glyph glyph-name="quotesinglbase" unicode="&#x201a;" horiz-adv-x="284" 
d="M277 102q-11 -50 -35 -94t-62 -77q-80 -71 -174 -106l-21 38q25 17 46.5 45t25.5 47q4 14 -3.5 46.5t-7.5 67.5q0 17 3 33q5 24 18 44.5t32 35.5t41.5 24t46.5 9q41 0 66.5 -25.5t25.5 -64.5q0 -6 -0.5 -11.5t-1.5 -11.5zM127 114h102q0 14 -5 22h-109q-6 -8 -10.5 -16
t-6.5 -18q-2 -5 -2 -10.5v-10.5q0 -29 9 -58.5t4 -49.5q-4 -25 -12 -37q0 -1 -3 -4l18 -12q16 20 19 35q2 8 3 10q2 11 1 12h25l20 23h-44l-1 23h59l12 22h-80l-7 23h96l8 23h-102l2 11z" />
    <glyph glyph-name="quotedblleft" unicode="&#x201c;" horiz-adv-x="558" 
d="M667 731l22 -37q-25 -17 -47.5 -45t-26.5 -48q-3 -13 4.5 -46.5t7.5 -68.5q0 -16 -3 -31q-5 -24 -18.5 -44.5t-32 -36t-41 -24.5t-46.5 -9q-41 0 -66.5 25.5t-25.5 63.5q0 13 3 25q11 49 34.5 93.5t60.5 76.5q79 70 175 106zM394 731l22 -37q-25 -17 -47 -45t-26 -48
q-3 -13 4.5 -46.5t7.5 -68.5q0 -16 -3 -31q-5 -24 -18.5 -44.5t-32.5 -36t-41.5 -24.5t-46.5 -9q-41 0 -66.5 25.5t-25.5 63.5q0 13 3 25q10 49 34 93.5t61 76.5q79 70 175 106zM470 455h106l2 22h-104l7 23h97l-7 23h-80l12 22h61l-1 23h-42l23 23h21l6 23h-34
q-42 -37 -63 -74t-31 -85q-7 -28 8 -46h100l9 11l7 12h-95l-3 12zM197 455h106l3 22h-105l8 23h96l-7 23h-80l13 22h60l-1 23h-42l23 23h21l6 23h-33q-41 -35 -58 -65q-25 -41 -36 -94q-3 -12 -2 -24.5t9 -21.5h100l9 11l8 12h-96z" />
    <glyph glyph-name="quotedblright" unicode="&#x201d;" horiz-adv-x="560" 
d="M650 577q-10 -49 -34 -93.5t-62 -77.5q-77 -68 -175 -105l-21 37q25 17 47.5 45t26.5 48q2 13 -5 46t-7 67q0 16 3 33q5 24 18 44.5t32 36t41.5 24.5t46.5 9q41 0 66 -25.5t25 -64.5v-12t-2 -12zM378 577q-10 -49 -35 -93.5t-62 -77.5q-78 -69 -174 -105l-21 37
q25 17 46.5 45t26.5 48q2 13 -5 46t-7 67q0 16 3 33q5 24 18.5 44.5t32 36t41 24.5t46.5 9q41 0 66.5 -26t25.5 -65v-11.5t-2 -11.5zM500 589h102q0 14 -4 23h-109q-14 -16 -17 -35q-2 -5 -2 -10.5v-10.5q0 -29 9 -58t4 -50q-4 -22 -11 -36q-1 -1 -1.5 -2.5t-2.5 -2.5
l18 -12q-1 1 6.5 11.5t8.5 12.5q4 8 4 11q1 7 3 10q1 6 1 13h25l20 22h-44l-1 23h59l12 23h-80l-6 23h96l6 22h-101l2 11zM228 589h102q0 14 -5 23h-109q-6 -8 -11 -16.5t-6 -18.5q-1 -5 -1.5 -10.5t-0.5 -10.5q0 -29 8.5 -58t4.5 -50q-4 -22 -11 -36q-1 -1 -2 -2.5t-2 -2.5
l18 -12q7 9 12 18t7 17q1 7 3 10q2 11 1 13h25l20 22h-44l-1 23h59l12 23h-80l-6 23h96l7 22h-102l2 11z" />
    <glyph glyph-name="quotedblbase" unicode="&#x201e;" horiz-adv-x="555" 
d="M547 102q-11 -50 -35 -94t-61 -77q-79 -70 -174 -106l-21 38q24 17 46 45t26 47q4 14 -3.5 46.5t-7.5 67.5q0 17 3 33q5 24 18.5 44.5t32 35.5t41 24t46.5 9q41 0 66 -25.5t25 -63.5q0 -6 -0.5 -12t-1.5 -12zM277 102q-11 -50 -35 -94t-62 -77q-80 -71 -174 -106l-21 38
q25 17 46.5 45t25.5 47q4 14 -3.5 46.5t-7.5 67.5q0 17 3 33q5 24 18 44.5t32 35.5t41.5 24t46.5 9q41 0 66.5 -25.5t25.5 -64.5q0 -6 -0.5 -11.5t-1.5 -11.5zM398 114h101q2 13 -4 22h-109q-6 -8 -11 -16t-6 -18q-1 -5 -1.5 -10.5t-0.5 -10.5q0 -29 8.5 -58.5t4.5 -49.5
q-4 -25 -12 -37q0 -1 -3 -4l18 -12q16 20 19 35q2 8 3 10q2 11 1 12h25l20 23h-44l-1 23h59l12 22h-80l-7 23h96l8 23h-102l2 11zM127 114h102q0 14 -5 22h-109q-6 -8 -10.5 -16t-6.5 -18q-2 -5 -2 -10.5v-10.5q0 -29 9 -58.5t4 -49.5q-4 -25 -12 -37q0 -1 -3 -4l18 -12
q16 20 19 35q2 8 3 10q2 11 1 12h25l20 23h-44l-1 23h59l12 22h-80l-7 23h96l8 23h-102l2 11z" />
    <glyph glyph-name="dagger" unicode="&#x2020;" horiz-adv-x="545" 
d="M606 523l-24 -114h-169l-118 -554h-113l119 554h-169l24 114h168l36 168h113l-36 -168h169zM378 455h151l4 22h-151l32 150h-23l-32 -150h-149l-4 -22h149l-114 -537h23z" />
    <glyph glyph-name="daggerdbl" unicode="&#x2021;" horiz-adv-x="545" 
d="M524 136l-24 -113h-169l-36 -168h-113l36 168h-168l24 113h168l59 273h-169l24 114h168l36 168h113l-36 -168h169l-24 -114h-169l-58 -273h169zM295 68h151l5 23h-151l78 364h151l4 22h-151l32 150h-23l-32 -150h-149l-4 -22h149l-78 -364h-149l-5 -23h149l-31 -150h23z
" />
    <glyph glyph-name="bullet" unicode="&#x2022;" horiz-adv-x="331" 
d="M349 307q-5 -24 -19 -46t-33.5 -38.5t-43 -26t-48.5 -9.5q-43 0 -70.5 26.5t-27.5 67.5q0 13 3 26q5 25 19 47t34 38t44 25t49 9q43 0 69.5 -26t26.5 -67q0 -13 -3 -26zM173 295h131q4 10 4 11q1 3 1 12h-130l6 13q3 5 4.5 6t4.5 4h112q-5 15 -14 23h-101
q-31 -22 -39 -57q-6 -32 14 -57h103q5 0 11.5 8t11.5 15h-112l-5 11z" />
    <glyph glyph-name="ellipsis" unicode="&#x2026;" horiz-adv-x="1138" 
d="M1113 102q-5 -24 -18.5 -44.5t-32.5 -36t-41.5 -24.5t-46.5 -9q-40 0 -65.5 25.5t-25.5 63.5q0 11 3 25q10 47 50 80t87 33q41 0 66.5 -25.5t25.5 -64.5q0 -6 -0.5 -11.5t-1.5 -11.5zM704 102q-5 -24 -18.5 -44.5t-32.5 -36t-41.5 -24.5t-46.5 -9q-41 0 -66 25.5
t-25 63.5q0 11 3 25q10 47 50 80t87 33q41 0 66.5 -25.5t25.5 -64.5v-11.5t-2 -11.5zM295 102q-5 -24 -18.5 -44.5t-32.5 -36t-41.5 -24.5t-46.5 -9q-41 0 -66.5 25.5t-25.5 63.5q0 13 3 25q5 24 18 44.5t32 35.5t41.5 24t46.5 9q41 0 66.5 -25.5t25.5 -64.5
q0 -6 -0.5 -11.5t-1.5 -11.5zM1060 91h-102l1 11l4 12h102q0 14 -4 22h-109q-14 -16 -17 -34q-4 -18 2 -34h109q8 9 14 23zM651 91h-102l1 11l4 12h102q0 14 -4 22h-109q-14 -16 -17 -34q-4 -18 2 -34h109q8 9 14 23zM242 91h-102l1 11l4 12h102q0 14 -4 22h-109
q-14 -16 -17 -34q-4 -18 2 -34h109q8 9 14 23z" />
    <glyph glyph-name="perthousand" unicode="&#x2030;" horiz-adv-x="1042" 
d="M1048 159q-17 -81 -63.5 -127.5t-109.5 -46.5q-49 0 -77 32.5t-28 87.5q0 25 6 54q17 80 63.5 125t108.5 45q51 0 78.5 -30.5t27.5 -85.5q0 -25 -6 -54zM735 159q-17 -81 -63.5 -127.5t-109.5 -46.5q-49 0 -77 32.5t-28 87.5q0 25 6 54q17 80 63.5 125t108.5 45
q51 0 78.5 -30.5t27.5 -85.5q0 -25 -6 -54zM591 659h131l-447 -659h-130zM406 503q-17 -81 -63.5 -127.5t-108.5 -46.5q-49 0 -77.5 32t-28.5 88q0 25 6 54q16 79 63 124.5t110 45.5q50 0 77.5 -31t27.5 -85q0 -25 -6 -54zM1004 156q7 32 7 65q0 9 -0.5 18.5t-1.5 18.5
l-20 -6q0 -6 0.5 -11.5t0.5 -11.5q0 -33 -8 -73q-6 -28 -13 -48.5t-21 -45.5l17 -9q17 29 25 51t14 52zM939 159q13 62 13 97q0 32 -13 32q-27 0 -54 -129q-7 -34 -10.5 -58.5t-3.5 -41.5q0 -32 13 -32q26 0 55 132zM816 53l21 9q-3 18 -3 33q0 13 2 27.5t6 33.5
q10 50 36 96l-18 6q-16 -28 -25 -50.5t-15 -51.5q-3 -16 -5 -33t-2 -33q0 -19 3 -37zM691 156q7 32 7 65q0 9 -0.5 18.5t-1.5 18.5l-20 -6q1 -6 1 -12.5v-12.5q0 -33 -8 -71q-6 -28 -13 -48.5t-21 -45.5l17 -9q16 29 24.5 51t14.5 52zM362 500q8 37 8 66q0 18 -3 36l-21 -7
q1 -7 1.5 -15.5t0.5 -16.5q0 -32 -7 -63q-6 -29 -13.5 -49.5t-21.5 -45.5l17 -9q16 29 24.5 51.5t14.5 52.5zM627 159q7 31 10 55.5t3 40.5q0 33 -14 33q-27 0 -54 -129q-8 -34 -11 -58.5t-3 -41.5q0 -32 13 -32q27 0 56 132zM268 68l355 523h-25l-355 -523h25zM298 503
q14 67 14 97q0 32 -14 32q-28 0 -55 -129q-7 -33 -10.5 -58t-3.5 -41q0 -33 14 -33q26 0 55 132zM503 53l21 9q-3 18 -3 33q0 13 2 27.5t6 33.5q11 50 36 96l-18 6q-17 -28 -25 -50.5t-14 -51.5q-7 -34 -7 -69q0 -9 0.5 -17.5t1.5 -16.5zM174 396l21 9q-1 8 -1.5 15.5
t-0.5 15.5q0 14 2 29t6 35q11 52 34 95l-17 7q-16 -28 -24 -50.5t-15 -51.5q-7 -34 -7 -70v-17.5t2 -16.5z" />
    <glyph glyph-name="guilsinglleft" unicode="&#x2039;" horiz-adv-x="315" 
d="M242 296l60 -169l-112 -55l-82 223l180 228l86 -58zM188 296l109 137l-17 12l-118 -148l54 -148l22 11z" />
    <glyph glyph-name="guilsinglright" unicode="&#x203a;" horiz-adv-x="309" 
d="M255 523l83 -228l-178 -223l-88 55l133 169l-61 169zM169 149l116 148l-54 148l-23 -12l50 -137l-107 -136z" />
    <glyph glyph-name="trademark" unicode="&#x2122;" horiz-adv-x="673" 
d="M767 659l-70 -330h-55l46 216l-127 -215h-58l-34 215l-46 -216h-56l70 330h72l41 -245l145 245h72zM413 659l-11 -53h-96l-59 -277h-55l59 277h-95l11 53h246z" />
    <glyph glyph-name="partialdiff" unicode="&#x2202;" horiz-adv-x="593" 
d="M622 273q-23 -110 -115 -197q-97 -90 -214 -90q-51 0 -92 15t-70 41.5t-44.5 62.5t-15.5 78q0 12 1 24t4 25q12 57 42.5 104.5t73.5 82t96.5 53.5t111.5 19q27 0 37 -9q1 8 2.5 19t1.5 24q0 8 -0.5 16.5t-1.5 18.5q-6 49 -18 74.5t-28 37t-35 14t-38 6.5q-22 0 -42 -4
l-2 45q9 3 23 6t30 5t31.5 3.5t27.5 1.5q74 0 137 -45q71 -54 98 -152q17 -59 17 -125q0 -71 -18 -154zM566 250l6 23h-92l4 22h93l4 23h-93l3 23h92l3 23h-92l3 22h90l2 23h-88l2 23h86l-1 23h-83l1 22h80l-3 23h-74v23h70l-7 22h-63l-2 23h59l-11 23h-50l-4 23h42l-18 22
h-55q4 0 6.5 -10.5t4 -27t2.5 -37t1 -40.5v-23t-1 -21q-2 -53 -11.5 -115t-25.5 -135q-18 -90 -49 -140q-2 -4 -5.5 -9t-8.5 -10h36l34 23h-30l11 23h46l24 22h-60l7 23h70l15 23h-78l7 23h84l9 22h-88l5 23h91zM404 227q14 68 14 110q0 34 -8.5 53t-26.5 19q-29 0 -56 -51
t-44 -131q-11 -52 -11 -86q0 -35 10 -54t28 -19q28 0 53 42t41 117zM303 386l20 23h-69q-55 -25 -85 -71t-44 -111q-5 -28 -5 -48q0 -33 12 -59.5t36 -51.5h71l-5 23h-55l-17 23h70v22h-80l-6 23h87l3 23h-92l1 23h94l4 22h-95l6 23h94l6 23h-93l8 22h92l9 23h-88l15 23h80
l12 23h-70l17 12l17 10h50z" />
    <glyph glyph-name="Delta" unicode="&#x2206;" horiz-adv-x="680" 
d="M511 807l122 -807h-588zM119 45h459l-96 630zM468 606l82 -538h-394zM231 114h263l-57 357z" />
    <glyph glyph-name="product" unicode="&#x220f;" horiz-adv-x="835" 
d="M818 68l-14 -68h-324l126 591h-130l-126 -591h-323l14 68h84l112 523h-84l14 68h777l-14 -68h-85l-112 -523h85zM535 68h141l5 23h-118l5 23h118l5 22h-118l5 23h118l5 23h-118l5 23h118l4 22h-118l5 23h118l5 23h-118l5 22h118l5 23h-118l4 23h118l5 23h-118l5 22h118
l5 23h-118l5 23h118l5 23h-118l4 22h118l5 23h-118l5 23h118l5 22h-118l5 23h118l5 23h-141zM166 68h141l5 23h-118l5 23h118l5 22h-118l5 23h118l5 23h-118l5 23h118l4 22h-118l5 23h118l5 23h-118l5 22h118l5 23h-118l4 23h118l5 23h-118l5 22h118l5 23h-118l5 23h118
l5 23h-118l4 22h118l5 23h-118l5 23h118l5 22h-118l5 23h118l5 23h-141z" />
    <glyph glyph-name="fraction" unicode="&#x2215;" horiz-adv-x="491" 
d="M474 659h131l-448 -659h-130zM150 68l356 523h-25l-355 -523h24z" />
    <glyph glyph-name="FLW256" unicode="&#x2219;" horiz-adv-x="284" 
d="M315 284q-5 -24 -18 -44.5t-32 -36t-41.5 -24.5t-46.5 -9q-41 0 -66.5 26t-25.5 65q0 6 0.5 11.5t1.5 11.5q11 47 51 80t87 33q41 0 67 -25.5t26 -63.5q0 -12 -3 -24zM263 273h-102v11l5 11h102q0 13 -5 23h-109q-13 -15 -18 -34q-3 -19 3 -34h109q9 9 15 23z" />
    <glyph glyph-name="radical" unicode="&#x221a;" horiz-adv-x="744" 
d="M838 636l-24 -113h-217l-309 -536h-108l-60 386h121l31 -205l269 468h297zM575 568h185l5 23h-200l-308 -535h-16l-39 262h-24l43 -283h46z" />
    <glyph glyph-name="infinity" unicode="&#x221e;" horiz-adv-x="721" 
d="M715 229q-6 -29 -22.5 -54.5t-39 -44.5t-50 -30.5t-54.5 -11.5q-40 0 -79 24t-70 65l-6 6l-6 -6q-50 -41 -97.5 -65t-89.5 -24q-48 0 -79 33t-31 80q0 13 3 28q6 28 22.5 53t39 43.5t50 29t54.5 10.5q42 0 80.5 -22.5t69.5 -61.5l3 -6l9 6q50 37 94.5 60.5t90.5 23.5
q48 0 79.5 -31.5t31.5 -78.5q0 -13 -3 -26zM649 229q6 30 -10.5 50t-45.5 20q-31 0 -66.5 -19t-68.5 -45l-7 -6l4 -6q23 -27 49.5 -47.5t58.5 -20.5q29 0 54 22t32 52zM351 223l7 6l-4 6q-18 29 -50 46.5t-58 17.5q-28 0 -54 -20.5t-32 -49.5q-7 -30 9.5 -52t45.5 -22
q31 0 65 19t71 49z" />
    <glyph glyph-name="integral" unicode="&#x222b;" horiz-adv-x="356" 
d="M470 673l-10 -49q-52 -18 -82.5 -67t-44.5 -115l-81 -382q-22 -102 -98 -167t-193 -75l11 52q5 2 9.5 4t7.5 4q39 23 64 67.5t37 103.5l82 382q22 106 99 172q84 70 199 70zM323 562l-16 11q-50 -60 -67 -142l-82 -382q-5 -25 -18 -55t-31 -55l15 -12q42 52 60 133
l81 382q7 34 22.5 66t35.5 54z" />
    <glyph glyph-name="approxequal" unicode="&#x2248;" horiz-adv-x="535" 
d="M508 486l76 -69l-34 -35q-34 -37 -65.5 -50.5t-74.5 -13.5q-21 0 -39 6t-34 14l-42 24q-13 7 -24 7t-18.5 -4t-21.5 -16l-34 -31l-68 79l28 26q35 32 68.5 45.5t70.5 13.5q26 0 41 -4t32 -15l39 -24q8 -5 15 -6t11 -1q20 0 40 20zM464 277l75 -69l-33 -35
q-34 -37 -66 -50.5t-75 -13.5q-21 0 -39 6t-34 14l-41 24q-13 7 -24 7t-19 -4t-21 -16l-35 -31l-67 79l27 26q36 32 69.5 45.5t70.5 13.5q26 0 41 -4.5t32 -14.5l39 -24q8 -4 14.5 -5.5t10.5 -1.5q21 0 41 20zM505 397l-13 15q-36 -27 -68 -27q-13 0 -24 4t-20 9l-41 24
q-17 9 -28 12t-25 3q-24 0 -43.5 -7t-40.5 -24l13 -14q30 24 66 24q14 0 23.5 -3t21.5 -10l40 -23q23 -15 54 -15q26 0 44.5 6.5t40.5 25.5zM461 188l-14 15q-37 -28 -68 -28q-13 0 -23.5 4.5t-20.5 9.5l-41 24q-16 9 -28 12t-25 3q-24 0 -43 -7t-40 -24l13 -14q29 24 66 24
q14 0 23 -3t21 -10l40 -23q13 -8 25 -12t29 -4q26 0 45 7t41 26z" />
    <glyph glyph-name="notequal" unicode="&#x2260;" horiz-adv-x="595" 
d="M599 273l-24 -114h-257l-77 -114h-130l77 114h-109l24 114h162l31 45h-183l24 114h236l77 113h131l-77 -113h129l-24 -114h-183l-31 -45h204zM296 205h225l4 22h-214l92 137h151l5 22h-140l62 91h-25l-62 -91h-203l-5 -22h193l-93 -137h-129l-4 -22h118l-62 -91h25z" />
    <glyph glyph-name="lessequal" unicode="&#x2264;" horiz-adv-x="587" 
d="M553 321l-26 -122l-355 142l23 108l416 142l-26 -121l-220 -75zM565 114l-24 -114h-496l24 114h496zM226 372l262 -104l5 24l-242 95l4 16l282 95l5 24l-306 -104zM119 45h368l4 23h-368z" />
    <glyph glyph-name="greaterequal" unicode="&#x2265;" horiz-adv-x="589" 
d="M581 449l-23 -108l-415 -142l26 122l220 74l-188 75l26 121zM565 114l-24 -114h-496l24 114h496zM212 268l306 104l10 46l-262 104l-5 -24l242 -95l-4 -16l-282 -95zM119 45h368l4 23h-368z" />
    <glyph glyph-name="lozenge" unicode="&#x25ca;" horiz-adv-x="560" 
d="M453 607l115 -312l-248 -313h-99l-113 313l246 312h99zM307 33l209 262l-98 261h-51l-207 -261l96 -262h51zM402 535l88 -240l-190 -240h-27l-86 240l188 240h27zM300 124l137 171l-64 170l-135 -170z" />
    <glyph glyph-name="fi" unicode="&#xf001;" horiz-adv-x="607" 
d="M697 618q-3 -16 -17.5 -29t-33.5 -23t-40.5 -15.5t-38.5 -5.5q-38 0 -68.5 18.5t-30.5 54.5q-36 -20 -67.5 -60t-42.5 -93l-17 -79h85l10 46q28 26 72.5 42.5t90.5 16.5q31 0 49 -6q6 -3 11 -8l-101 -477h-214l68 318h-85l-68 -318h-214l97 454q24 116 116 181
q103 71 286 71q78 0 117 -19q47 -23 36 -69zM647 625v5.5t-2 5.5h-116q-5 -7 -5 -11q-2 -11 1 -11h117q4 8 5 11zM408 68h115l5 23h-93l5 23h93l5 22h-93l5 23h93l5 23h-93l5 23h93l4 22h-93l5 23h93l5 23h-93l5 22h93l5 23h-93l4 23h93l5 23h-93q2 0 6.5 3.5l4.5 3.5
q24 12 42 13t45 2l5 23h-11q-6 0 -18 -0.5t-27.5 -3.5t-32.5 -9.5t-33 -19.5zM418 626l20 10h-95q-42 -19 -63 -35q-68 -53 -88 -146l-83 -387h116l5 23h-93l5 23h93l5 22h-93l5 23h93l5 23h-93l5 23h93l4 22h-93l5 23h94l5 23h-94l5 22h94l5 23h-94l4 23h94l5 23h-94l5 22
h94l5 23h-93l5 23h93l5 23h-94l5 22h93l5 23h-90l11 23h88l14 22h-88l19 23h84l19 23h-75l19 13l22 10h60z" />
    <glyph glyph-name="fl" unicode="&#xf002;" horiz-adv-x="609" 
d="M680 568l-121 -568h-214l68 318h-86l-68 -318h-214l97 454q23 111 110.5 176t221.5 65q25 0 43.5 -1.5t44.5 -8.5l-31 -49q-28 0 -56 -14t-51.5 -38t-41 -55t-24.5 -64l-17 -79h86l39 182h214zM409 68h118l5 23h-96l5 23h96l5 22h-96l5 23h96l5 23h-96l5 23h96l4 22h-96
l5 23h96l5 23h-96l5 22h96l5 23h-96l4 23h96l5 23h-96l5 22h96l5 23h-96l5 23h96l5 23h-96l4 22h96l5 23h-118zM418 626l20 10h-95q-42 -19 -63 -35q-68 -53 -88 -146l-83 -387h116l5 23h-93l5 23h93l5 22h-93l5 23h93l5 23h-93l5 23h93l4 22h-93l5 23h94l5 23h-94l5 22h94
l5 23h-94l4 23h94l5 23h-94l5 22h94l5 23h-93l5 23h93l5 23h-94l5 22h93l5 23h-90l11 23h88l14 22h-88l19 23h84l19 23h-75l19 13l22 10h60z" />
    </font>
</defs>
</svg>
